<svg xmlns="http://www.w3.org/2000/svg" viewBox="0 0 576 512"><path d="M518.4 467.6H457c-27.6 0-50.1-22.5-50.1-50.1v-61.4c0-27.6 22.5-50.1 50.1-50.1h61.4c27.6 0 50.1 22.5 50.1 50.1v61.4c-.1 27.6-22.5 50.1-50.1 50.1zM456.9 314c-23.2 0-42.1 18.9-42.1 42.1v61.4c0 23.2 18.9 42.1 42.1 42.1h61.4c23.2 0 42.1-18.9 42.1-42.1v-61.4c0-23.2-18.9-42.1-42.1-42.1h-61.4zM119.1 467.6H57.6c-27.6 0-50.1-22.5-50.1-50.1v-61.4C7.6 328.5 30 306 57.6 306H119c27.6 0 50.1 22.5 50.1 50.1v61.4c0 27.6-22.4 50.1-50 50.1zM57.6 314c-23.2 0-42.1 18.9-42.1 42.1v61.4c0 23.2 18.9 42.1 42.1 42.1H119c23.2 0 42.1-18.9 42.1-42.1v-61.4c0-23.2-18.9-42.1-42.1-42.1H57.6zM311 191.2h-46c-21.2 0-38.5-17.3-38.5-38.5v-46c0-21.2 17.3-38.5 38.5-38.5h46c21.2 0 38.5 17.3 38.5 38.5v46c0 21.2-17.2 38.5-38.5 38.5zM265 76.1c-16.8 0-30.5 13.7-30.5 30.5v46c0 16.8 13.7 30.5 30.5 30.5h46c16.8 0 30.5-13.7 30.5-30.5v-46c0-16.8-13.7-30.5-30.5-30.5h-46zM119.1 271.6c-4.2 0-7.7 3.5-7.7 7.7V310H65.3v-30.7c0-29.7 24.1-53.7 53.7-53.7h146v-38.4h46v38.4h145.9c29.7 0 53.7 24.1 53.7 53.7V310h-46.1v-30.7c0-4.2-3.5-7.7-7.7-7.7H311V310h-46v-38.4H119.1zM335.2 480h-94.4c-25.4 0-46-20.6-46-46v-94.4c0-25.4 20.6-46 46-46h94.4c25.4 0 46 20.6 46 46V434c0 25.4-20.6 46-46 46z"/></svg>