<svg xmlns="http://www.w3.org/2000/svg" viewBox="0 0 512 512"><path d="M256.3 32.7c123.8 0 224.4 100.4 224.4 223.9S380.1 480.4 256.3 480.4S31.9 380 31.9 256.5S132.6 32.7 256.3 32.7m0-10.2c-129.6 0-234.6 104.8-234.6 234.1s105 234.1 234.6 234.1s234.6-104.8 234.6-234.1S385.9 22.5 256.3 22.5l0 0zm145.3 82.7H400h-37.2-.7l-.3 .8L256.3 395.9l-105-289.8-.3-.8h-.7-37.6-1.7l.7 1.9 124.2 334.8 .3 .8h.7 38.8 .7l.3-.8L400.9 107.1l.7-1.9zm-232.4 5c-9.4 2.5-13.7-8.1-7.5-13c58.5-36.6 133.1-36 190.4 1.2c4.3 5.6-.6 14.2-9.4 11.8c-52.2-34.1-126.3-31.1-173.5 0zm19.3 38.5c-9.4 4.3-13.2-7.4-8.3-11.7c46.5-31.9 107.1-32.6 152.6-.1c3.5 4.9 1.9 16.1-10.6 11.8c-39.2-27.9-98.3-24.2-133.7 0zm22.7 39.7c-10.6 6.2-17.4-5-10.6-11.2c35.1-29.7 85.9-23.6 113.2 1.8c3.7 9.9-4.7 12.5-10 10.6c-24.2-20.5-70.9-18-92.6-1.2zm19.1 41c-6.2 2.5-14.9 1.8-12.4-9.3c14.9-24.2 59.7-27.3 77.1 1.8c1.8 4.5-3.7 11.8-11.2 8.1c-22.4-24.8-46-10-53.5-.6zm26-198.1c123.6 0 224.2 100.6 224.2 224.3S379.9 479.7 256.3 479.7S32 379.2 32 255.5S132.6 31.3 256.3 31.3m0-10.2C126.8 21 21.8 126 21.8 255.5S126.8 490 256.3 490s234.4-105 234.4-234.4S385.7 21 256.3 21l0 0z"/></svg>