<?xml version="1.0" encoding="utf-8"?>
<!-- Generator: Adobe Illustrator 25.4.1, SVG Export Plug-In . SVG Version: 6.00 Build 0)  -->
<svg version="1.1" id="Layer_1" xmlns="http://www.w3.org/2000/svg" xmlns:xlink="http://www.w3.org/1999/xlink" x="0px" y="0px"
	 viewBox="0 0 441 531" style="enable-background:new 0 0 441 531;" xml:space="preserve">
<style type="text/css">
	.st0{opacity:0.3;fill:url(#SVGID_1_);enable-background:new    ;}
	.st1{opacity:0.3;fill:url(#SVGID_00000005962860786120071180000010047165091041290683_);enable-background:new    ;}
	.st2{opacity:0.3;fill:url(#SVGID_00000044900115454245507350000007120091187525262757_);enable-background:new    ;}
</style>
<linearGradient id="SVGID_1_" gradientUnits="userSpaceOnUse" x1="723.902" y1="804.8917" x2="723.902" y2="93.6537" gradientTransform="matrix(-0.5831 0.7804 -0.7278 -0.6252 789.082 -101.5525)">
	<stop  offset="0" style="stop-color:#4A6CF7"/>
	<stop  offset="1" style="stop-color:#4A6CF7;stop-opacity:0"/>
</linearGradient>
<path class="st0" d="M-31.4-1.9l-112,149.8c-0.6,0.9-0.5,2.1,0.3,2.8l391.3,336.1c0.8,0.7,2,0.6,2.6-0.3l112-149.8
	c0.6-0.9,0.5-2.1-0.3-2.8L-28.8-2.2C-29.6-2.9-30.8-2.7-31.4-1.9z"/>
<linearGradient id="SVGID_00000119836628095950668620000009611206585818992827_" gradientUnits="userSpaceOnUse" x1="598.4598" y1="687.8907" x2="598.4598" y2="-23.3472" gradientTransform="matrix(-0.5831 0.7804 -0.7278 -0.6252 630.7873 -23.6438)">
	<stop  offset="0" style="stop-color:#4A6CF7"/>
	<stop  offset="1" style="stop-color:#4A6CF7;stop-opacity:0"/>
</linearGradient>
<path style="opacity:0.3;fill:url(#SVGID_00000119836628095950668620000009611206585818992827_);enable-background:new    ;" d="
	M-71.1,104.4l-32.5,43.5c-0.6,0.9-0.5,2.1,0.3,2.8l391.3,336.1c0.8,0.7,2,0.6,2.6-0.3l32.5-43.5c0.6-0.9,0.5-2.1-0.3-2.8
	L-68.5,104.1C-69.3,103.4-70.5,103.6-71.1,104.4z"/>
<linearGradient id="SVGID_00000049901870077534289960000011040823173667885748_" gradientUnits="userSpaceOnUse" x1="643.834" y1="839.78" x2="643.834" y2="128.542" gradientTransform="matrix(-0.5831 0.7804 -0.7278 -0.6252 630.7873 -23.6438)">
	<stop  offset="0" style="stop-color:#4A6CF7"/>
	<stop  offset="1" style="stop-color:#4A6CF7;stop-opacity:0"/>
</linearGradient>
<path style="opacity:0.3;fill:url(#SVGID_00000049901870077534289960000011040823173667885748_);enable-background:new    ;" d="
	M-208.1,44.9l-32.5,43.5c-0.6,0.9-0.5,2.1,0.3,2.8l391.3,336.1c0.8,0.7,2,0.6,2.6-0.3l32.5-43.5c0.6-0.9,0.5-2.1-0.3-2.8
	L-205.5,44.6C-206.3,43.9-222,87.9-208.1,44.9z"/>
</svg>
