<?xml version="1.0" encoding="utf-8"?>
<!-- Generator: Adobe Illustrator 25.4.1, SVG Export Plug-In . SVG Version: 6.00 Build 0)  -->
<svg version="1.1" id="Layer_1" xmlns="http://www.w3.org/2000/svg" xmlns:xlink="http://www.w3.org/1999/xlink" x="0px" y="0px"
	 viewBox="0 0 456.3 166.1" style="enable-background:new 0 0 456.3 166.1;" xml:space="preserve">
<style type="text/css">
	.st0{fill:#020203;}
	.st1{fill:none;stroke:#020203;stroke-width:0.75;stroke-miterlimit:10;}
	.st2{clip-path:url(#SVGID_00000087371681294110751410000015181599903962273418_);fill:#FFFFFF;}
	.st3{clip-path:url(#SVGID_00000140710100117921891510000014886619121475587501_);}
	.st4{clip-path:url(#SVGID_00000177466575682269938460000012267623501720118914_);fill:#FFFFFF;}
	.st5{clip-path:url(#SVGID_00000054961289170692152630000012612357960245097125_);fill:#FFFFFF;}
	.st6{clip-path:url(#SVGID_00000089562850211282684390000000653990340952172428_);fill:#FFFFFF;}
	.st7{clip-path:url(#SVGID_00000139981535814278414890000010161901299207670435_);fill:#FFFFFF;}
	.st8{clip-path:url(#SVGID_00000023996720805963781790000001676804992758599358_);fill:#EE7529;}
	.st9{fill:#E9512A;}
	.st10{fill:#FFFFFF;}
	.st11{fill:#F49739;}
	.st12{fill:url(#SVGID_00000106863668113126987210000000626096867001125512_);}
	.st13{opacity:0.38;fill:url(#SVGID_00000162347039930810187620000005223324111523341758_);enable-background:new    ;}
	.st14{opacity:0.38;fill:url(#SVGID_00000008858909679255429800000006681873985540405917_);enable-background:new    ;}
	.st15{opacity:0.51;}
	.st16{fill:url(#SVGID_00000035521251274334048950000012538016635486674618_);}
	.st17{fill:url(#SVGID_00000076590365563764983510000000321767778728488865_);}
	.st18{fill:url(#SVGID_00000034773397854929772420000018148972855115238292_);}
	.st19{fill:url(#SVGID_00000106148732804332338260000007255509783886442393_);}
</style>
<g>
	<g>
		<path class="st0" d="M408.3,28.9v2.3h-0.7v-5.6h1.5c0.7,0,1.2,0.1,1.5,0.4s0.5,0.7,0.5,1.2c0,0.7-0.4,1.2-1.1,1.5l1.5,2.5h-0.8
			l-1.4-2.3H408.3z M408.3,28.4h0.9c0.5,0,0.8-0.1,1-0.3c0.2-0.2,0.3-0.5,0.3-0.8c0-0.4-0.1-0.6-0.3-0.8c-0.2-0.2-0.6-0.2-1.1-0.2
			h-0.8V28.4z"/>
	</g>
	<circle class="st1" cx="409.4" cy="28.6" r="4.8"/>
</g>
<g>
	<g id="_x37_._Vision_Logo_dark_text_00000181782542485419314760000009608121096298269598_">
		<g>
			<g>
				<g>
					<g>
						<defs>
							<rect id="SVGID_1_" x="48.8" y="35.5" width="358.6" height="129.1"/>
						</defs>
						<clipPath id="SVGID_00000048468241940300844590000006387990958159171471_">
							<use xlink:href="#SVGID_1_"  style="overflow:visible;"/>
						</clipPath>
						<polygon style="clip-path:url(#SVGID_00000048468241940300844590000006387990958159171471_);fill:#FFFFFF;" points="
							134.8,36.9 134.5,36.9 134.5,37.3 134.5,104.2 134.5,104.5 134.8,104.5 143.3,104.5 143.7,104.5 143.7,104.2 143.7,37.3 
							143.7,36.9 143.3,36.9 						"/>
					</g>
				</g>
			</g>
			<g>
				<g>
					<g>
						<defs>
							<rect id="SVGID_00000128447349782861561360000003324227152601889213_" x="48.8" y="35.5" width="358.6" height="129.1"/>
						</defs>
						<clipPath id="SVGID_00000138553479596826545780000014179260449921995157_">
							<use xlink:href="#SVGID_00000128447349782861561360000003324227152601889213_"  style="overflow:visible;"/>
						</clipPath>
						<g style="clip-path:url(#SVGID_00000138553479596826545780000014179260449921995157_);">
							<g>
								<g>
									<g>
										<defs>
											<rect id="SVGID_00000157280264039926074050000009419838688612498870_" x="48.8" y="35.5" width="358.6" height="129.1"/>
										</defs>
										<clipPath id="SVGID_00000080908143618487152430000004037432781928134306_">
											<use xlink:href="#SVGID_00000157280264039926074050000009419838688612498870_"  style="overflow:visible;"/>
										</clipPath>
										<path style="clip-path:url(#SVGID_00000080908143618487152430000004037432781928134306_);fill:#FFFFFF;" d="M190.5,65.4
											c-9.6-1.5-18.2-3.5-18.2-10.6c0-7.7,8.8-11.1,17.6-11.1c8.6,0.1,15.6,3.2,18.9,8.4l0.2,0.3l0.3-0.2l6.4-4L216,48l-0.2-0.1
											c-6.4-10.8-16.8-12.4-26-12.4c-9.1,0-17.2,2.7-21.8,7.3c-3.2,3.1-4.8,7.1-4.6,11.9c0,13.7,12.9,16.8,26.2,18.8
											c9.4,1.4,19.5,3.5,19.4,11.9c0,11.2-14.5,12.1-19,12.1c-9.3,0-17.7-4.6-21.6-11.5l-0.2-0.3l-0.3,0.2l-6.9,4l-0.3,0.1
											l0.1,0.3c4.8,10.1,15.1,15.7,29.1,15.7c13.5,0,28-5.3,28.1-20.2C217.9,69.7,202.7,67.3,190.5,65.4"/>
									</g>
								</g>
							</g>
							<g>
								<g>
									<g>
										<defs>
											<rect id="SVGID_00000008145774939077787680000013991189323915301000_" x="48.8" y="35.5" width="358.6" height="129.1"/>
										</defs>
										<clipPath id="SVGID_00000008852594531333758410000013486448200193436604_">
											<use xlink:href="#SVGID_00000008145774939077787680000013991189323915301000_"  style="overflow:visible;"/>
										</clipPath>
										<polygon style="clip-path:url(#SVGID_00000008852594531333758410000013486448200193436604_);fill:#FFFFFF;" points="
											235.8,36.9 235.5,36.9 235.5,37.3 235.5,104.2 235.5,104.5 235.8,104.5 244.3,104.5 244.7,104.5 244.7,104.2 244.7,37.3 
											244.7,36.9 244.3,36.9 										"/>
									</g>
								</g>
							</g>
							<g>
								<g>
									<g>
										<defs>
											<rect id="SVGID_00000072962785898013713030000009321014214350651275_" x="48.8" y="35.5" width="358.6" height="129.1"/>
										</defs>
										<clipPath id="SVGID_00000065791576890914152760000003131570604917595536_">
											<use xlink:href="#SVGID_00000072962785898013713030000009321014214350651275_"  style="overflow:visible;"/>
										</clipPath>
										<path style="clip-path:url(#SVGID_00000065791576890914152760000003131570604917595536_);fill:#FFFFFF;" d="M297.8,35.8
											L297.8,35.8c-20.7,0-35.1,14.5-35.1,35.2c0,9.3,3.1,17.8,8.7,24.1c6.3,7.1,15.4,10.8,26.3,10.8c10.9,0,20-3.7,26.2-10.8
											c5.5-6.3,8.6-14.8,8.7-24.1c0.1-9.9-3.6-19.2-10-25.6C316.3,39.2,307.8,35.8,297.8,35.8 M297.8,97.3
											c-18,0-25.9-13.3-25.9-26.4c0-13.4,8.1-26.7,25.9-26.7c12.9,0.1,25.8,8.5,25.7,26.7C323.5,89.2,310.6,97.3,297.8,97.3"/>
									</g>
								</g>
							</g>
							<g>
								<g>
									<g>
										<defs>
											<rect id="SVGID_00000082326237173234688750000018254011094322753411_" x="48.8" y="35.5" width="358.6" height="129.1"/>
										</defs>
										<clipPath id="SVGID_00000072986331632871921560000009350619885054810496_">
											<use xlink:href="#SVGID_00000082326237173234688750000018254011094322753411_"  style="overflow:visible;"/>
										</clipPath>
										<polygon style="clip-path:url(#SVGID_00000072986331632871921560000009350619885054810496_);fill:#FFFFFF;" points="
											407.1,36.9 398.6,36.9 398.3,36.9 398.3,37.3 398.3,87.6 357.1,37.1 357,36.9 356.9,36.9 350.9,36.9 350.6,36.9 
											350.6,37.3 350.6,104.2 350.6,104.5 350.9,104.5 359.3,104.5 359.7,104.5 359.7,104.2 359.7,54.2 400.9,104.4 401,104.5 
											401.2,104.5 407.1,104.5 407.4,104.5 407.4,104.2 407.4,37.3 407.4,36.9 										"/>
									</g>
								</g>
							</g>
							<g>
								<g>
									<g>
										<defs>
											<rect id="SVGID_00000121272852777332599760000009471566281177736076_" x="48.8" y="35.5" width="358.6" height="129.1"/>
										</defs>
										<clipPath id="SVGID_00000183961360892986775620000013361343292191952019_">
											<use xlink:href="#SVGID_00000121272852777332599760000009471566281177736076_"  style="overflow:visible;"/>
										</clipPath>
										<polygon style="clip-path:url(#SVGID_00000183961360892986775620000013361343292191952019_);fill:#EE7529;" points="
											120.6,36.9 120.2,36.9 111,36.9 110.8,36.9 110.7,37.1 84.7,95.3 58.7,37.1 58.7,36.9 58.5,36.9 49.2,36.9 48.8,36.9 
											49,37.3 79.7,104.6 79.8,104.7 79.9,104.7 89.5,104.7 89.7,104.7 89.8,104.6 120.4,37.3 										"/>
									</g>
								</g>
							</g>
						</g>
					</g>
				</g>
			</g>
		</g>
	</g>
	<g>
		<path class="st9" d="M144.5,126.1c0,1.5-0.5,2.7-1.5,3.5c-1,0.8-2.6,1.2-4.5,1.2h-1.8v6h-1.8v-15.2h3.9
			C142.5,121.6,144.5,123,144.5,126.1z M136.6,129.3h1.5c1.5,0,2.7-0.2,3.4-0.7c0.7-0.5,1-1.3,1-2.4c0-1-0.3-1.7-1-2.2
			c-0.6-0.5-1.7-0.7-3.1-0.7h-2L136.6,129.3L136.6,129.3z"/>
		<path class="st9" d="M160.2,130.4v6.3h-1.8v-15.2h4.2c1.9,0,3.3,0.4,4.1,1.1c0.9,0.7,1.3,1.8,1.3,3.2c0,2-1,3.3-3.1,4.1l4.1,6.8
			h-2.1l-3.7-6.3H160.2z M160.2,128.9h2.5c1.2,0,2.2-0.2,2.8-0.7c0.6-0.5,0.9-1.2,0.9-2.2c0-1-0.3-1.7-0.9-2.1
			c-0.6-0.4-1.5-0.7-2.9-0.7h-2.3L160.2,128.9L160.2,128.9z"/>
		<path class="st9" d="M195.6,129.2c0,2.4-0.6,4.4-1.9,5.8c-1.2,1.4-3,2.1-5.2,2.1c-2.3,0-4-0.7-5.2-2c-1.2-1.3-1.9-3.3-1.9-5.8
			c0-2.4,0.6-4.4,1.9-5.8c1.2-1.3,3-2,5.3-2c2.2,0,3.9,0.7,5.2,2.1C195,124.9,195.6,126.8,195.6,129.2z M183.4,129.2
			c0,2,0.4,3.6,1.3,4.7c0.9,1,2.2,1.6,3.8,1.6c1.7,0,3-0.5,3.8-1.6c0.8-1,1.3-2.6,1.3-4.7c0-2-0.4-3.5-1.3-4.7
			c-0.8-1-2.2-1.6-3.8-1.6s-3,0.5-3.8,1.6C183.8,125.6,183.4,127.2,183.4,129.2z"/>
		<path class="st10" d="M234.7,132.8c0,1.3-0.5,2.3-1.4,3.1c-0.9,0.7-2.3,1.1-3.9,1.1c-1.9,0-3.2-0.2-4.2-0.7v-1.7
			c0.6,0.3,1.3,0.5,2.1,0.6c0.7,0.2,1.4,0.2,2.2,0.2c1.1,0,2.1-0.2,2.7-0.7c0.6-0.4,0.9-1.1,0.9-1.8c0-0.5-0.1-0.9-0.3-1.3
			c-0.2-0.3-0.6-0.6-1-0.9c-0.5-0.3-1.2-0.6-2.3-1c-1.4-0.5-2.5-1.1-3.1-1.8c-0.6-0.7-0.9-1.6-0.9-2.7c0-1.2,0.4-2.1,1.3-2.8
			c0.9-0.7,2.1-1,3.5-1c1.5,0,2.9,0.3,4.2,0.8l-0.5,1.5c-1.2-0.5-2.5-0.8-3.7-0.8c-0.9,0-1.7,0.2-2.2,0.6c-0.5,0.4-0.8,0.9-0.8,1.7
			c0,0.5,0.1,0.9,0.3,1.3c0.2,0.3,0.5,0.6,1,0.9c0.5,0.3,1.1,0.6,2.2,0.9c1.7,0.6,2.7,1.2,3.3,1.8
			C234.3,130.8,234.7,131.8,234.7,132.8z"/>
		<path class="st10" d="M261.8,129.2c0,2.4-0.6,4.4-1.9,5.8c-1.2,1.4-3,2.1-5.2,2.1c-2.3,0-4-0.7-5.2-2c-1.2-1.3-1.9-3.3-1.9-5.8
			c0-2.4,0.6-4.4,1.9-5.8c1.2-1.3,3-2,5.3-2c2.2,0,3.9,0.7,5.2,2.1C261.2,124.9,261.8,126.8,261.8,129.2z M249.6,129.2
			c0,2,0.4,3.6,1.3,4.7c0.9,1,2.2,1.6,3.8,1.6s3-0.5,3.8-1.6c0.8-1,1.3-2.6,1.3-4.7c0-2-0.4-3.5-1.3-4.7c-0.8-1-2.2-1.6-3.8-1.6
			c-1.7,0-3,0.5-3.8,1.6C250,125.6,249.6,127.2,249.6,129.2z"/>
		<path class="st10" d="M277.6,136.8h-1.8v-15.2h8.6v1.5h-6.7v5.6h6.3v1.5h-6.3L277.6,136.8L277.6,136.8z"/>
		<path class="st10" d="M302.4,136.8h-1.8v-13.6h-4.9v-1.5h11.5v1.5h-4.9L302.4,136.8L302.4,136.8z"/>
		<path class="st10" d="M333.6,136.8h-1.8l-3.1-10.1c-0.1-0.4-0.3-1-0.5-1.7c-0.2-0.7-0.3-1.1-0.3-1.2c-0.1,0.9-0.4,1.9-0.7,3
			l-3,10.1h-1.8l-4-15.2h1.9l2.4,9.4c0.3,1.3,0.6,2.5,0.7,3.5c0.2-1.3,0.5-2.5,0.8-3.7l2.8-9.2h1.9l2.9,9.3c0.3,1.1,0.6,2.3,0.8,3.6
			c0.1-1,0.4-2.2,0.7-3.5l2.4-9.3h1.9L333.6,136.8z"/>
		<path class="st10" d="M360.3,136.8l-1.9-4.9h-6.1l-1.9,4.9h-1.8l6.1-15.2h1.4l6,15.2H360.3z M358,130.3l-1.8-4.7
			c-0.2-0.6-0.5-1.3-0.7-2.2c-0.1,0.7-0.4,1.4-0.6,2.2l-1.8,4.7H358z"/>
		<path class="st10" d="M376.8,130.4v6.3H375v-15.2h4.2c1.9,0,3.3,0.4,4.1,1.1c0.9,0.7,1.3,1.8,1.3,3.2c0,2-1,3.3-3.1,4.1l4.1,6.8
			h-2.1l-3.7-6.3H376.8z M376.8,128.9h2.5c1.2,0,2.2-0.2,2.8-0.7c0.6-0.5,0.9-1.2,0.9-2.2c0-1-0.3-1.7-0.9-2.1
			c-0.6-0.4-1.5-0.7-2.9-0.7h-2.3v5.8L376.8,128.9L376.8,128.9z"/>
		<path class="st10" d="M407.5,136.8H399v-15.2h8.6v1.5h-6.7v4.9h6.3v1.5h-6.3v5.6h6.7V136.8z"/>
	</g>
	<polygon class="st11" points="79.9,104.7 94.8,104.7 125.8,36.9 110.1,36.9 	"/>
	
		<linearGradient id="SVGID_00000093860137267631665400000010165362781917628319_" gradientUnits="userSpaceOnUse" x1="71.3043" y1="746.077" x2="71.0658" y2="745.8413" gradientTransform="matrix(1 0 0 1 0 -676)">
		<stop  offset="0" style="stop-color:#ED6851"/>
		<stop  offset="1" style="stop-color:#EF7850"/>
	</linearGradient>
	<polygon style="fill:url(#SVGID_00000093860137267631665400000010165362781917628319_);" points="94.7,104.7 79.8,104.7 48.8,36.9 
		64.4,36.9 	"/>
	
		<linearGradient id="SVGID_00000155127282518971359640000006421867645953788042_" gradientUnits="userSpaceOnUse" x1="113.4003" y1="760.9918" x2="113.151" y2="760.9067" gradientTransform="matrix(1 0 0 1 0 -676)">
		<stop  offset="0" style="stop-color:#ED6851"/>
		<stop  offset="1" style="stop-color:#E8412B"/>
	</linearGradient>
	
		<polygon style="opacity:0.38;fill:url(#SVGID_00000155127282518971359640000006421867645953788042_);enable-background:new    ;" points="
		94.7,104.7 79.8,104.7 57.3,56 64.3,37 	"/>
	
		<linearGradient id="SVGID_00000138537848257547506850000018092797230730403510_" gradientUnits="userSpaceOnUse" x1="98.1416" y1="777.3591" x2="98.0724" y2="777.3356" gradientTransform="matrix(1 0 0 1 0 -676)">
		<stop  offset="0" style="stop-color:#ED6851"/>
		<stop  offset="0" style="stop-color:#EA532A"/>
	</linearGradient>
	
		<polygon style="opacity:0.38;fill:url(#SVGID_00000138537848257547506850000018092797230730403510_);enable-background:new    ;" points="
		94.8,104.7 79.9,104.7 79.9,104.7 87.3,88.1 	"/>
	<g class="st15">
		
			<linearGradient id="SVGID_00000094582182709480662140000017876159183380985008_" gradientUnits="userSpaceOnUse" x1="113.0914" y1="752.727" x2="101.0734" y2="729.0984" gradientTransform="matrix(1 0 0 1 0 -676)">
			<stop  offset="0" style="stop-color:#EBA320"/>
			<stop  offset="0.1613" style="stop-color:#EC9C2A"/>
			<stop  offset="0.4293" style="stop-color:#EC8A3E"/>
			<stop  offset="0.7693" style="stop-color:#ED6951"/>
			<stop  offset="0.7748" style="stop-color:#ED6851"/>
		</linearGradient>
		<polygon style="fill:url(#SVGID_00000094582182709480662140000017876159183380985008_);" points="125.4,37 109.5,38.9 87.3,88.1 
			94.8,104.7 		"/>
		
			<linearGradient id="SVGID_00000096052885427958061250000017347689268970335364_" gradientUnits="userSpaceOnUse" x1="112.207" y1="740.3075" x2="102.3596" y2="720.9464" gradientTransform="matrix(1 0 0 1 0 -676)">
			<stop  offset="0" style="stop-color:#F1892D"/>
			<stop  offset="0.2114" style="stop-color:#F18335"/>
			<stop  offset="0.5617" style="stop-color:#EE7447"/>
			<stop  offset="0.7793" style="stop-color:#ED6851"/>
		</linearGradient>
		<polygon style="fill:url(#SVGID_00000096052885427958061250000017347689268970335364_);" points="125.5,37 109.5,38.8 91.8,77.7 
			101.1,90.8 		"/>
		
			<linearGradient id="SVGID_00000114038645363062627400000010073001777319604629_" gradientUnits="userSpaceOnUse" x1="118.0973" y1="738.7059" x2="110.5285" y2="723.825" gradientTransform="matrix(1 0 0 1 0 -676)">
			<stop  offset="0" style="stop-color:#F6A250"/>
			<stop  offset="0.839" style="stop-color:#F59F4F"/>
		</linearGradient>
		<polygon style="fill:url(#SVGID_00000114038645363062627400000010073001777319604629_);" points="125.8,36.9 109.5,38.8 98,64.2 
			107.8,76.3 		"/>
		
			<linearGradient id="SVGID_00000111161316379677600460000001383105488161026955_" gradientUnits="userSpaceOnUse" x1="135.1105" y1="726.2585" x2="107.6496" y2="727.5537" gradientTransform="matrix(1 0 0 1 0 -676)">
			<stop  offset="0" style="stop-color:#F29164"/>
			<stop  offset="0.9749" style="stop-color:#FEDC47"/>
		</linearGradient>
		<polygon style="fill:url(#SVGID_00000111161316379677600460000001383105488161026955_);" points="125.8,36.9 110.1,36.9 
			103.1,52.7 112.7,65.8 		"/>
	</g>
	<polygon class="st9" points="103.5,136.8 73.1,136.8 70.3,127.4 106.8,127.4 	"/>
</g>
</svg>
