<?xml version="1.0" encoding="utf-8"?>
<!-- Generator: Adobe Illustrator 25.4.1, SVG Export Plug-In . SVG Version: 6.00 Build 0)  -->
<svg version="1.1" id="Layer_1" xmlns="http://www.w3.org/2000/svg" xmlns:xlink="http://www.w3.org/1999/xlink" x="0px" y="0px"
	 viewBox="0 0 456.3 166.1" style="enable-background:new 0 0 456.3 166.1;" xml:space="preserve">
<style type="text/css">
	.st0{fill:#020203;}
	.st1{fill:none;stroke:#020203;stroke-width:0.75;stroke-miterlimit:10;}
	.st2{clip-path:url(#SVGID_00000112593352731135743470000010622060532767227551_);fill:#FFFFFF;}
	.st3{clip-path:url(#SVGID_00000031929166292439309850000011702254782036304782_);}
	.st4{clip-path:url(#SVGID_00000087403123995250206070000013197038604159766159_);fill:#FFFFFF;}
	.st5{clip-path:url(#SVGID_00000181056269020926295640000013604164412226535353_);fill:#FFFFFF;}
	.st6{clip-path:url(#SVGID_00000080190848519318821350000005966615891829760179_);fill:#FFFFFF;}
	.st7{clip-path:url(#SVGID_00000092437544460669227500000009284504365486155705_);fill:#FFFFFF;}
	.st8{fill:#FFFFFF;}
	.st9{fill:#E9512A;}
	.st10{fill:#D36014;}
	.st11{fill:#C72F17;}
	.st12{fill:#F08019;}
	.st13{fill:#FBC16C;}
	.st14{fill:#5C0BAF;}
	.st15{fill:#4149D8;}
	.st16{fill:#579DEF;}
	.st17{fill:#3D0CA4;}
	.st18{fill:#6C09B4;}
	.st19{fill:#4258E5;}
	.st20{fill:#FF9243;}
	.st21{fill:#403FCF;}
	.st22{fill:url(#SVGID_00000154406756032809604380000007765086156426952355_);}
</style>
<g>
	<g>
		<path class="st0" d="M408.3,28.9v2.3h-0.7v-5.6h1.5c0.7,0,1.2,0.1,1.5,0.4s0.5,0.7,0.5,1.2c0,0.7-0.4,1.2-1.1,1.5l1.5,2.5h-0.8
			l-1.4-2.3H408.3z M408.3,28.4h0.9c0.5,0,0.8-0.1,1-0.3c0.2-0.2,0.3-0.5,0.3-0.8c0-0.4-0.1-0.6-0.3-0.8c-0.2-0.2-0.6-0.2-1.1-0.2
			h-0.8V28.4z"/>
	</g>
	<circle class="st1" cx="409.4" cy="28.6" r="4.8"/>
</g>
<g>
	<g id="_x37_._Vision_Logo_dark_text_00000181782542485419314760000009608121096298269598_">
		<g>
			<g>
				<g>
					<g>
						<defs>
							<rect id="SVGID_1_" x="48.8" y="35.5" width="358.6" height="129.1"/>
						</defs>
						<clipPath id="SVGID_00000027599377220809811480000013182448316228103579_">
							<use xlink:href="#SVGID_1_"  style="overflow:visible;"/>
						</clipPath>
						<polygon style="clip-path:url(#SVGID_00000027599377220809811480000013182448316228103579_);fill:#FFFFFF;" points="
							134.8,36.9 134.5,36.9 134.5,37.3 134.5,104.2 134.5,104.5 134.8,104.5 143.3,104.5 143.7,104.5 143.7,104.2 143.7,37.3 
							143.7,36.9 143.3,36.9 						"/>
					</g>
				</g>
			</g>
			<g>
				<g>
					<g>
						<defs>
							<rect id="SVGID_00000082366766963240341620000003517763583343132582_" x="48.8" y="35.5" width="358.6" height="129.1"/>
						</defs>
						<clipPath id="SVGID_00000134947802242448307790000005373802826359922316_">
							<use xlink:href="#SVGID_00000082366766963240341620000003517763583343132582_"  style="overflow:visible;"/>
						</clipPath>
						<g style="clip-path:url(#SVGID_00000134947802242448307790000005373802826359922316_);">
							<g>
								<g>
									<g>
										<defs>
											<rect id="SVGID_00000097497333100953125060000016936143352923978129_" x="48.8" y="35.5" width="358.6" height="129.1"/>
										</defs>
										<clipPath id="SVGID_00000060720166476334862450000002100935862100946071_">
											<use xlink:href="#SVGID_00000097497333100953125060000016936143352923978129_"  style="overflow:visible;"/>
										</clipPath>
										<path style="clip-path:url(#SVGID_00000060720166476334862450000002100935862100946071_);fill:#FFFFFF;" d="M190.5,65.4
											c-9.6-1.5-18.2-3.5-18.2-10.6c0-7.7,8.8-11.1,17.6-11.1c8.6,0.1,15.6,3.2,18.9,8.4l0.2,0.3l0.3-0.2l6.4-4L216,48l-0.2-0.1
											c-6.4-10.8-16.8-12.4-26-12.4c-9.1,0-17.2,2.7-21.8,7.3c-3.2,3.1-4.8,7.1-4.6,11.9c0,13.7,12.9,16.8,26.2,18.8
											c9.4,1.4,19.5,3.5,19.4,11.9c0,11.2-14.5,12.1-19,12.1c-9.3,0-17.7-4.6-21.6-11.5l-0.2-0.3l-0.3,0.2l-6.9,4l-0.3,0.1
											l0.1,0.3c4.8,10.1,15.1,15.7,29.1,15.7c13.5,0,28-5.3,28.1-20.2C217.9,69.7,202.7,67.3,190.5,65.4"/>
									</g>
								</g>
							</g>
							<g>
								<g>
									<g>
										<defs>
											<rect id="SVGID_00000120518314153719521380000000214420968932089534_" x="48.8" y="35.5" width="358.6" height="129.1"/>
										</defs>
										<clipPath id="SVGID_00000182488718321446647610000014368284935953771911_">
											<use xlink:href="#SVGID_00000120518314153719521380000000214420968932089534_"  style="overflow:visible;"/>
										</clipPath>
										<polygon style="clip-path:url(#SVGID_00000182488718321446647610000014368284935953771911_);fill:#FFFFFF;" points="
											235.8,36.9 235.5,36.9 235.5,37.3 235.5,104.2 235.5,104.5 235.8,104.5 244.3,104.5 244.7,104.5 244.7,104.2 244.7,37.3 
											244.7,36.9 244.3,36.9 										"/>
									</g>
								</g>
							</g>
							<g>
								<g>
									<g>
										<defs>
											<rect id="SVGID_00000039819456775769582500000010421681375427814066_" x="48.8" y="35.5" width="358.6" height="129.1"/>
										</defs>
										<clipPath id="SVGID_00000035515077194703674080000000039341387324035725_">
											<use xlink:href="#SVGID_00000039819456775769582500000010421681375427814066_"  style="overflow:visible;"/>
										</clipPath>
										<path style="clip-path:url(#SVGID_00000035515077194703674080000000039341387324035725_);fill:#FFFFFF;" d="M297.8,35.8
											L297.8,35.8c-20.7,0-35.1,14.5-35.1,35.2c0,9.3,3.1,17.8,8.7,24.1c6.3,7.1,15.4,10.8,26.3,10.8c10.9,0,20-3.7,26.2-10.8
											c5.5-6.3,8.6-14.8,8.7-24.1c0.1-9.9-3.6-19.2-10-25.6C316.3,39.2,307.8,35.8,297.8,35.8 M297.8,97.3
											c-18,0-25.9-13.3-25.9-26.4c0-13.4,8.1-26.7,25.9-26.7c12.9,0.1,25.8,8.5,25.7,26.7C323.5,89.2,310.6,97.3,297.8,97.3"/>
									</g>
								</g>
							</g>
							<g>
								<g>
									<g>
										<defs>
											<rect id="SVGID_00000173860631270783567930000014959065402460649662_" x="48.8" y="35.5" width="358.6" height="129.1"/>
										</defs>
										<clipPath id="SVGID_00000101070496728325651420000017804268293601056687_">
											<use xlink:href="#SVGID_00000173860631270783567930000014959065402460649662_"  style="overflow:visible;"/>
										</clipPath>
										<polygon style="clip-path:url(#SVGID_00000101070496728325651420000017804268293601056687_);fill:#FFFFFF;" points="
											407.1,36.9 398.6,36.9 398.3,36.9 398.3,37.3 398.3,87.6 357.1,37.1 357,36.9 356.9,36.9 350.9,36.9 350.6,36.9 
											350.6,37.3 350.6,104.2 350.6,104.5 350.9,104.5 359.3,104.5 359.7,104.5 359.7,104.2 359.7,54.2 400.9,104.4 401,104.5 
											401.2,104.5 407.1,104.5 407.4,104.5 407.4,104.2 407.4,37.3 407.4,36.9 										"/>
									</g>
								</g>
							</g>
							<g>
								<g>
									<g>
										<defs>
											<rect id="SVGID_00000039856204727443085590000003157159780798301580_" x="48.8" y="35.5" width="358.6" height="129.1"/>
										</defs>
										<clipPath id="SVGID_00000076567662221904556890000013501036725281874831_">
											<use xlink:href="#SVGID_00000039856204727443085590000003157159780798301580_"  style="overflow:visible;"/>
										</clipPath>
									</g>
								</g>
							</g>
						</g>
					</g>
				</g>
			</g>
		</g>
	</g>
	<g>
		<path class="st8" d="M144.5,126.1c0,1.5-0.5,2.7-1.5,3.5c-1,0.8-2.6,1.2-4.5,1.2h-1.8v6h-1.8v-15.2h3.9
			C142.5,121.6,144.5,123,144.5,126.1z M136.6,129.3h1.5c1.5,0,2.7-0.2,3.4-0.7c0.7-0.5,1-1.3,1-2.4c0-1-0.3-1.7-1-2.2
			c-0.6-0.5-1.7-0.7-3.1-0.7h-2L136.6,129.3L136.6,129.3z"/>
		<path class="st8" d="M160.2,130.4v6.3h-1.8v-15.2h4.2c1.9,0,3.3,0.4,4.1,1.1c0.9,0.7,1.3,1.8,1.3,3.2c0,2-1,3.3-3.1,4.1l4.1,6.8
			h-2.1l-3.7-6.3H160.2z M160.2,128.9h2.5c1.2,0,2.2-0.2,2.8-0.7c0.6-0.5,0.9-1.2,0.9-2.2c0-1-0.3-1.7-0.9-2.1
			c-0.6-0.4-1.5-0.7-2.9-0.7h-2.3L160.2,128.9L160.2,128.9z"/>
		<path class="st8" d="M195.6,129.2c0,2.4-0.6,4.4-1.9,5.8c-1.2,1.4-3,2.1-5.2,2.1c-2.3,0-4-0.7-5.2-2c-1.2-1.3-1.9-3.3-1.9-5.8
			c0-2.4,0.6-4.4,1.9-5.8c1.2-1.3,3-2,5.3-2c2.2,0,3.9,0.7,5.2,2.1C195,124.9,195.6,126.8,195.6,129.2z M183.4,129.2
			c0,2,0.4,3.6,1.3,4.7c0.9,1,2.2,1.6,3.8,1.6c1.7,0,3-0.5,3.8-1.6c0.8-1,1.3-2.6,1.3-4.7c0-2-0.4-3.5-1.3-4.7
			c-0.8-1-2.2-1.6-3.8-1.6s-3,0.5-3.8,1.6C183.8,125.6,183.4,127.2,183.4,129.2z"/>
		<path class="st8" d="M234.7,132.8c0,1.3-0.5,2.3-1.4,3.1c-0.9,0.7-2.3,1.1-3.9,1.1c-1.9,0-3.2-0.2-4.2-0.7v-1.7
			c0.6,0.3,1.3,0.5,2.1,0.6c0.7,0.2,1.4,0.2,2.2,0.2c1.1,0,2.1-0.2,2.7-0.7c0.6-0.4,0.9-1.1,0.9-1.8c0-0.5-0.1-0.9-0.3-1.3
			c-0.2-0.3-0.6-0.6-1-0.9c-0.5-0.3-1.2-0.6-2.3-1c-1.4-0.5-2.5-1.1-3.1-1.8c-0.6-0.7-0.9-1.6-0.9-2.7c0-1.2,0.4-2.1,1.3-2.8
			c0.9-0.7,2.1-1,3.5-1c1.5,0,2.9,0.3,4.2,0.8l-0.5,1.5c-1.2-0.5-2.5-0.8-3.7-0.8c-0.9,0-1.7,0.2-2.2,0.6c-0.5,0.4-0.8,0.9-0.8,1.7
			c0,0.5,0.1,0.9,0.3,1.3c0.2,0.3,0.5,0.6,1,0.9c0.5,0.3,1.1,0.6,2.2,0.9c1.7,0.6,2.7,1.2,3.3,1.8
			C234.3,130.8,234.7,131.8,234.7,132.8z"/>
		<path class="st8" d="M261.8,129.2c0,2.4-0.6,4.4-1.9,5.8c-1.2,1.4-3,2.1-5.2,2.1c-2.3,0-4-0.7-5.2-2c-1.2-1.3-1.9-3.3-1.9-5.8
			c0-2.4,0.6-4.4,1.9-5.8c1.2-1.3,3-2,5.3-2c2.2,0,3.9,0.7,5.2,2.1C261.2,124.9,261.8,126.8,261.8,129.2z M249.6,129.2
			c0,2,0.4,3.6,1.3,4.7c0.9,1,2.2,1.6,3.8,1.6s3-0.5,3.8-1.6c0.8-1,1.3-2.6,1.3-4.7c0-2-0.4-3.5-1.3-4.7c-0.8-1-2.2-1.6-3.8-1.6
			c-1.7,0-3,0.5-3.8,1.6C250,125.6,249.6,127.2,249.6,129.2z"/>
		<path class="st8" d="M277.6,136.8h-1.8v-15.2h8.6v1.5h-6.7v5.6h6.3v1.5h-6.3L277.6,136.8L277.6,136.8z"/>
		<path class="st8" d="M302.4,136.8h-1.8v-13.6h-4.9v-1.5h11.5v1.5h-4.9L302.4,136.8L302.4,136.8z"/>
		<path class="st8" d="M333.6,136.8h-1.8l-3.1-10.1c-0.1-0.4-0.3-1-0.5-1.7c-0.2-0.7-0.3-1.1-0.3-1.2c-0.1,0.9-0.4,1.9-0.7,3
			l-3,10.1h-1.8l-4-15.2h1.9l2.4,9.4c0.3,1.3,0.6,2.5,0.7,3.5c0.2-1.3,0.5-2.5,0.8-3.7l2.8-9.2h1.9l2.9,9.3c0.3,1.1,0.6,2.3,0.8,3.6
			c0.1-1,0.4-2.2,0.7-3.5l2.4-9.3h1.9L333.6,136.8z"/>
		<path class="st8" d="M360.3,136.8l-1.9-4.9h-6.1l-1.9,4.9h-1.8l6.1-15.2h1.4l6,15.2H360.3z M358,130.3l-1.8-4.7
			c-0.2-0.6-0.5-1.3-0.7-2.2c-0.1,0.7-0.4,1.4-0.6,2.2l-1.8,4.7H358z"/>
		<path class="st8" d="M376.8,130.4v6.3H375v-15.2h4.2c1.9,0,3.3,0.4,4.1,1.1c0.9,0.7,1.3,1.8,1.3,3.2c0,2-1,3.3-3.1,4.1l4.1,6.8
			h-2.1l-3.7-6.3H376.8z M376.8,128.9h2.5c1.2,0,2.2-0.2,2.8-0.7c0.6-0.5,0.9-1.2,0.9-2.2c0-1-0.3-1.7-0.9-2.1
			c-0.6-0.4-1.5-0.7-2.9-0.7h-2.3v5.8L376.8,128.9L376.8,128.9z"/>
		<path class="st8" d="M407.5,136.8H399v-15.2h8.6v1.5h-6.7v4.9h6.3v1.5h-6.3v5.6h6.7V136.8z"/>
	</g>
	<polygon class="st9" points="103.5,136.8 73.1,136.8 70.3,127.4 106.8,127.4 	"/>
</g>
<g>
	<path class="st10" d="M82.6,75.1C74.9,64.6,65.7,48.4,58,38c-0.3-0.4-0.5-0.7-0.9-0.8c-1.8,0-3.5,0-5.3-0.1c-0.9,0-0.6,0.5-0.2,0.9
		c0.5,0.1,0.7,0.6,1,1c7.5,10.1,14.2,27.4,21.6,37.4L82.6,75.1z"/>
	<path class="st11" d="M84.8,74.8c-5.1-11.6-11.9-27-14.9-34c-0.8-1.9-2.2-3.2-3.9-3.4c-3-0.5-5.9-0.2-8.9-0.2c0.3,0.5,0.7,1,1,1.5
		C65.7,48.9,73.4,65.1,81,75.3"/>
	<path class="st12" d="M58.7,52.6c4.1,5.6,11.4,18.4,15.5,24l5.7-1C74.6,68.4,64.9,55.1,59.6,48c-2.4-3.2-4.7-6.4-7.1-9.5
		c-0.2-0.3-0.4-1.1-0.9-0.4c1.7,4.4,3.6,8.6,5.5,12.8C57.7,51.2,58.2,51.9,58.7,52.6z"/>
	<path class="st13" d="M68.6,77.7l9.7-1.9C74,69.9,62.7,57.9,58.2,52c-0.3-0.4-0.6-1.1-1.2-0.6c0.3,1.2,0.9,2.1,1.3,3.2"/>
	<path class="st14" d="M94.9,109.2c-1.5-1.9-3-3.9-4.5-5.9c-0.4-0.5-0.7-1.2-1.7-0.4c0,2.1-0.1,3.2-0.1,5.3l0.9,0.9H94.9z"/>
	<path class="st15" d="M117,61.8c-1.9,4.4-3.7,8.9-5.7,13.2c-0.2,0.1-0.3,0.5-0.5,0.5c-1.9,0.5-3.7,1.5-5.7,1.7
		c-1.3-3.2-3.5-5.2-5.2-7.8c-0.5-0.7-1-1.3-1.8-1.5c-0.1-0.5,0.1-0.9,0.3-1.3c2.6-4.3,5.4-8.2,8.5-11.9c0.8-1,1.5-2.1,2.5-2.7
		c0.5-0.1,0.9,0.3,1.3,0.7c1.9,2.5,3.9,5.1,5.7,7.7C116.7,60.9,116.9,61.3,117,61.8z"/>
	<path class="st16" d="M126.7,37.1c-3.9,0-7.7,0-11.6,0c-0.7,1.2-1.8,2.1-3.1,2.4c-0.9,0.2-1.8,0.4-2.6,0.7l-0.5,0.2
		c-2.2,5.1-4.4,10.3-6.5,15.4c-2.1,5-4.3,10.1-6.4,15.2c1.2-0.3,1.5-1.7,2-2.9c0.1-0.3,0.3-0.7,0.5-1c3.3-5.3,6.9-10.3,10.9-14.6
		c0.5-0.3,0.9-0.6,1.3-1c5.1-5.3,10.5-10,16.4-13.3c0.4-0.6,0.3-0.8,0.1-0.9"/>
	<path class="st17" d="M104.9,77c2.1-0.7,4.3-1.4,6.4-2c-2.4,5.6-4.8,11.2-7.2,16.8c-0.7,1.6-1.4,3.3-2.2,4.9
		c-0.5,0.2-0.8-0.2-1.1-0.6c-3.3-3.6-6.8-6.7-10.5-9.6c-0.3-0.3-0.9-0.4-0.7-1.2l0,0c1.2-1.4,2.7-2.1,4.1-3c3.1-1.9,6.3-3.6,9.6-5
		C104,77.1,104.4,76.9,104.9,77z"/>
	<path class="st18" d="M89.9,103.1c1.4,1.9,2.9,3.8,4.3,5.8c0.2,0.2,0.4,0.4,0.7,0.4h0.7c0.7,0,1.3-0.4,1.5-1
		c1.7-3.8,3.3-7.7,4.9-11.5c-0.2-0.2-0.5-0.3-0.6-0.5c-2.8-3.2-5.8-5.9-8.9-8.5c-0.9-0.8-2-1.1-2.6-2.4c-0.1,0.1-0.1,0.2-0.2,0.2
		c-0.2,0.4-1.8,3.6-1.8,4.1c0,5,1.3,7.3,1.5,12.4C89.4,102.5,89.7,102.8,89.9,103.1z"/>
	<path class="st19" d="M109.5,52.3c3.1-3.6,6.5-6.7,10-9.5c2.2-1.7,4.4-3.4,6.8-4.7c0.3-0.2,1.4-0.8,1-0.2
		c-3.4,7.9-6.8,15.9-10.2,23.8c-2-2.8-4.1-5.5-6.1-8.3C110.5,53,110.1,52.4,109.5,52.3z"/>
	<path class="st20" d="M80,107.2c0.2,0.4,1.1,2.2,2.4,2l11.5,0c1.6,0,4,0.2,2.6-1.8c-4.2-5.8-9.6-25.6-11.7-32.6
		c-0.2-0.8-7.8,8.2-7.9,8.2c-1.2,1.2-2.3,2.5-3.5,3.6c-1,0.9-1,1.7-0.4,3.1C75.6,95.8,77.4,101.1,80,107.2z"/>
	<path class="st21" d="M104.9,77c-3,1.4-6,2.7-8.8,4.4c-1.7,1-3.4,2.1-5.1,3.2c-0.4,0.2-0.7,0.6-1.1,0.6c1.8-4.7,3.8-9.1,5.9-13.6
		c0.1-0.3,0.3-0.6,0.4-0.8c0.9-0.6,1.2-2.1,2-2.9c0.6-0.1,1.1,0,1.5,0.7c1.5,2.2,3.1,4.3,4.8,6.4C104.9,75.6,105,76.2,104.9,77z"/>
	
		<linearGradient id="SVGID_00000068659520769769977330000015332460241433746309_" gradientUnits="userSpaceOnUse" x1="96.3956" y1="56.9612" x2="120.669" y2="49.5361">
		<stop  offset="0" style="stop-color:#4149D8"/>
		<stop  offset="0.584" style="stop-color:#7FC0FF"/>
	</linearGradient>
	<path style="fill:url(#SVGID_00000068659520769769977330000015332460241433746309_);" d="M120.6,38.6c0.4-0.5,0.8-1,1.1-1.5
		c-3,0-6.1-0.3-9,0.2c-1.7,0.3-3,1.5-3.9,3.5c-4.4,10.4-8.8,20.8-13.2,31.2"/>
</g>
</svg>
