<?xml version="1.0" encoding="utf-8"?>
<!-- Generator: Adobe Illustrator 25.4.1, SVG Export Plug-In . SVG Version: 6.00 Build 0)  -->
<svg version="1.1" id="Layer_1" xmlns="http://www.w3.org/2000/svg" xmlns:xlink="http://www.w3.org/1999/xlink" x="0px" y="0px"
	 viewBox="0 0 456.3 166.1" style="enable-background:new 0 0 456.3 166.1;" xml:space="preserve">
<style type="text/css">
	.st0{clip-path:url(#SVGID_00000085213902384527643130000010842074276146038972_);fill:#1E2546;}
	.st1{clip-path:url(#SVGID_00000116952147241169132580000005127089239413019069_);}
	.st2{clip-path:url(#SVGID_00000146480148872042007800000007512394927910262149_);fill:#1E2546;}
	.st3{clip-path:url(#SVGID_00000036935447659381364920000000244127619043872409_);fill:#1E2546;}
	.st4{clip-path:url(#SVGID_00000173150194502451172040000000557759042592371642_);fill:#1E2546;}
	.st5{clip-path:url(#SVGID_00000096058826174521816490000016570931191812081042_);fill:#1E2546;}
	.st6{clip-path:url(#SVGID_00000145757848384235115450000008866276232174029452_);fill:#EE7529;}
	.st7{fill:#E9512A;}
	.st8{fill:#1E2546;}
	.st9{fill:#F49739;}
	.st10{fill:url(#SVGID_00000038390335860441648560000003908362337177040811_);}
	.st11{opacity:0.38;fill:url(#SVGID_00000084500095070304284360000004133504674119538327_);}
	.st12{opacity:0.38;fill:url(#SVGID_00000155827800347105902920000014530744077994809002_);}
	.st13{opacity:0.51;}
	.st14{fill:url(#SVGID_00000002353338554500386300000015690909163970118332_);}
	.st15{fill:url(#SVGID_00000016762829743095628470000004360269754192454588_);}
	.st16{fill:url(#SVGID_00000012434621109200364750000009812055602690796466_);}
	.st17{fill:url(#SVGID_00000177459921789792861250000005012822694259783062_);}
	.st18{fill:#ED6A28;}
	.st19{fill:#020203;}
	.st20{fill:none;stroke:#020203;stroke-width:0.75;stroke-miterlimit:10;}
</style>
<g>
	<g id="_x37_._Vision_Logo_dark_text_1_">
		<g>
			<g>
				<defs>
					<rect id="SVGID_1_" x="41.2" y="34" width="360.1" height="132.1"/>
				</defs>
				<clipPath id="SVGID_00000127764422911382735410000017111132788273789352_">
					<use xlink:href="#SVGID_1_"  style="overflow:visible;"/>
				</clipPath>
				<polygon style="clip-path:url(#SVGID_00000127764422911382735410000017111132788273789352_);fill:#1E2546;" points="127.6,35.5 
					127.2,35.5 127.2,35.8 127.2,104.3 127.2,104.6 127.6,104.6 136.1,104.6 136.5,104.6 136.5,104.3 136.5,35.8 136.5,35.5 
					136.1,35.5 				"/>
			</g>
			<g>
				<defs>
					<rect id="SVGID_00000045597776525462968400000012443125486031707320_" x="41.2" y="34" width="360.1" height="132.1"/>
				</defs>
				<clipPath id="SVGID_00000102525973287346953830000002274371978492334475_">
					<use xlink:href="#SVGID_00000045597776525462968400000012443125486031707320_"  style="overflow:visible;"/>
				</clipPath>
				<g style="clip-path:url(#SVGID_00000102525973287346953830000002274371978492334475_);">
					<g>
						<defs>
							<rect id="SVGID_00000071542161303678570900000015580270322936980654_" x="41.2" y="34" width="360.1" height="132.1"/>
						</defs>
						<clipPath id="SVGID_00000060742889185856895820000001940327961215275398_">
							<use xlink:href="#SVGID_00000071542161303678570900000015580270322936980654_"  style="overflow:visible;"/>
						</clipPath>
						<path style="clip-path:url(#SVGID_00000060742889185856895820000001940327961215275398_);fill:#1E2546;" d="M183.5,64.6
							c-9.6-1.6-18.3-3.6-18.3-10.9c0-7.9,8.9-11.4,17.6-11.4c8.6,0.1,15.7,3.4,19,8.6l0.2,0.3l0.3-0.2l6.5-4l0.3-0.2l-0.2-0.3
							C202.3,35.5,192,34,182.6,34c-9.1,0-17.3,2.8-21.9,7.4c-3.2,3.2-4.7,7.3-4.7,12.1c0,14,13,17.2,26.3,19.3
							c9.5,1.4,19.6,3.7,19.5,12.2c0,11.5-14.6,12.4-19,12.4c-9.3,0-17.8-4.6-21.7-11.9l-0.2-0.3l-0.3,0.2l-7,4.1l-0.3,0.1l0.1,0.3
							c4.8,10.4,15.2,16,29.2,16c13.6,0,28.1-5.4,28.2-20.7C211,68.9,195.7,66.5,183.5,64.6"/>
					</g>
					<g>
						<defs>
							<rect id="SVGID_00000116940412716716571190000001920622163993266608_" x="41.2" y="34" width="360.1" height="132.1"/>
						</defs>
						<clipPath id="SVGID_00000125585657966385581540000011671853259758097550_">
							<use xlink:href="#SVGID_00000116940412716716571190000001920622163993266608_"  style="overflow:visible;"/>
						</clipPath>
						<polygon style="clip-path:url(#SVGID_00000125585657966385581540000011671853259758097550_);fill:#1E2546;" points="229,35.5 
							228.6,35.5 228.6,35.8 228.6,104.3 228.6,104.6 229,104.6 237.5,104.6 237.8,104.6 237.8,104.3 237.8,35.8 237.8,35.5 
							237.5,35.5 						"/>
					</g>
					<g>
						<defs>
							<rect id="SVGID_00000028309100929493203000000016627694934334658957_" x="41.2" y="34" width="360.1" height="132.1"/>
						</defs>
						<clipPath id="SVGID_00000002382265614874083160000013574806918982732172_">
							<use xlink:href="#SVGID_00000028309100929493203000000016627694934334658957_"  style="overflow:visible;"/>
						</clipPath>
						<path style="clip-path:url(#SVGID_00000002382265614874083160000013574806918982732172_);fill:#1E2546;" d="M291.2,34.3
							L291.2,34.3c-20.7,0-35.2,14.8-35.2,35.9c0,9.5,3.1,18.2,8.7,24.7c6.3,7.2,15.5,11.1,26.5,11.1s20.1-3.9,26.4-11.1
							c5.5-6.4,8.6-15.1,8.7-24.6c0.1-10.2-3.6-19.7-10-26.3C309.8,37.7,301.2,34.3,291.2,34.3 M291.2,97.3c-18,0-26.1-13.6-26.1-27
							c0-13.6,8.1-27.4,26.1-27.4c12.9,0.1,25.9,8.7,25.8,27.4C316.9,88.9,304,97.3,291.2,97.3"/>
					</g>
					<g>
						<defs>
							<rect id="SVGID_00000137840783020451509080000016347904061727409560_" x="41.2" y="34" width="360.1" height="132.1"/>
						</defs>
						<clipPath id="SVGID_00000183218079093229027740000011988923119669441701_">
							<use xlink:href="#SVGID_00000137840783020451509080000016347904061727409560_"  style="overflow:visible;"/>
						</clipPath>
						<polygon style="clip-path:url(#SVGID_00000183218079093229027740000011988923119669441701_);fill:#1E2546;" points="
							400.9,35.5 392.4,35.5 392.1,35.5 392.1,35.8 392.1,87.2 350.8,35.6 350.7,35.5 350.5,35.5 344.5,35.5 344.2,35.5 344.2,35.8 
							344.2,104.3 344.2,104.6 344.5,104.6 353,104.6 353.3,104.6 353.3,104.3 353.3,53 394.7,104.5 394.8,104.6 395,104.6 
							400.9,104.6 401.2,104.6 401.2,104.3 401.2,35.8 401.2,35.5 						"/>
					</g>
					<g>
						<defs>
							<rect id="SVGID_00000125603931167181741020000011638953716081261746_" x="41.2" y="34" width="360.1" height="132.1"/>
						</defs>
						<clipPath id="SVGID_00000121960286480111750940000010669100208266600342_">
							<use xlink:href="#SVGID_00000125603931167181741020000011638953716081261746_"  style="overflow:visible;"/>
						</clipPath>
						<polygon style="clip-path:url(#SVGID_00000121960286480111750940000010669100208266600342_);fill:#EE7529;" points="
							113.4,35.5 112.9,35.5 103.7,35.5 103.5,35.5 103.4,35.6 77.3,95.2 51.2,35.6 51.1,35.5 50.9,35.5 41.6,35.5 41.2,35.5 
							41.4,35.9 72.2,104.6 72.3,104.8 72.4,104.8 82.1,104.8 82.3,104.8 82.3,104.6 113.2,35.9 						"/>
					</g>
					<g>
						<defs>
							<rect id="SVGID_00000170972280023389186470000003353473626107805355_" x="41.2" y="25" width="360.1" height="132.1"/>
						</defs>
						<clipPath id="SVGID_00000157292715889392179690000000123925407722072704_">
							<use xlink:href="#SVGID_00000170972280023389186470000003353473626107805355_"  style="overflow:visible;"/>
						</clipPath>
					</g>
					<g>
						<defs>
							<rect id="SVGID_00000132780489661057861340000009656490157473080747_" x="41.2" y="34" width="360.1" height="132.1"/>
						</defs>
						<clipPath id="SVGID_00000061436097364599606680000001061147385452738716_">
							<use xlink:href="#SVGID_00000132780489661057861340000009656490157473080747_"  style="overflow:visible;"/>
						</clipPath>
					</g>
					<g>
						<defs>
							<rect id="SVGID_00000049917952864963495980000016319700894448914870_" x="41.2" y="34" width="360.1" height="132.1"/>
						</defs>
						<clipPath id="SVGID_00000136378438151035070720000008899839662568198293_">
							<use xlink:href="#SVGID_00000049917952864963495980000016319700894448914870_"  style="overflow:visible;"/>
						</clipPath>
					</g>
					<g>
						<defs>
							<rect id="SVGID_00000088117471414208234660000013810647872276343182_" x="41.2" y="34" width="360.1" height="132.1"/>
						</defs>
						<clipPath id="SVGID_00000066514664841420712310000003565655901879778727_">
							<use xlink:href="#SVGID_00000088117471414208234660000013810647872276343182_"  style="overflow:visible;"/>
						</clipPath>
					</g>
					<g>
						<defs>
							<rect id="SVGID_00000091707691945106424810000002083347210461366711_" x="41.2" y="34" width="360.1" height="132.1"/>
						</defs>
						<clipPath id="SVGID_00000008857304133936621400000008633909682988024997_">
							<use xlink:href="#SVGID_00000091707691945106424810000002083347210461366711_"  style="overflow:visible;"/>
						</clipPath>
					</g>
					<g>
						<defs>
							<rect id="SVGID_00000140710625578499564780000018352514870289745057_" x="41.2" y="34" width="360.1" height="132.1"/>
						</defs>
						<clipPath id="SVGID_00000021832943121607091830000004027388081763304631_">
							<use xlink:href="#SVGID_00000140710625578499564780000018352514870289745057_"  style="overflow:visible;"/>
						</clipPath>
					</g>
					<g>
						<defs>
							<rect id="SVGID_00000000943677279987432000000004172548851864557473_" x="41.2" y="34" width="360.1" height="132.1"/>
						</defs>
						<clipPath id="SVGID_00000078019592219336389100000011306453787916002229_">
							<use xlink:href="#SVGID_00000000943677279987432000000004172548851864557473_"  style="overflow:visible;"/>
						</clipPath>
					</g>
					<g>
						<defs>
							<rect id="SVGID_00000003818587932296619510000013557918420425057425_" x="41.2" y="34" width="360.1" height="132.1"/>
						</defs>
						<clipPath id="SVGID_00000046309234917646215450000003437259195431464586_">
							<use xlink:href="#SVGID_00000003818587932296619510000013557918420425057425_"  style="overflow:visible;"/>
						</clipPath>
					</g>
					<g>
						<defs>
							<rect id="SVGID_00000165236429517679389410000006507233335082800285_" x="41.2" y="34" width="360.1" height="132.1"/>
						</defs>
						<clipPath id="SVGID_00000016770918787239346420000012512617199319747224_">
							<use xlink:href="#SVGID_00000165236429517679389410000006507233335082800285_"  style="overflow:visible;"/>
						</clipPath>
					</g>
				</g>
			</g>
		</g>
	</g>
	<g>
		<path class="st7" d="M136.7,125.6c0,1.6-0.5,2.8-1.6,3.6c-1.1,0.8-2.6,1.3-4.6,1.3h-1.8v6.1H127V121h4
			C134.8,121,136.7,122.5,136.7,125.6z M128.8,128.9h1.6c1.6,0,2.7-0.3,3.4-0.8c0.7-0.5,1.1-1.3,1.1-2.5c0-1-0.3-1.8-1-2.3
			c-0.7-0.5-1.7-0.8-3.1-0.8h-2V128.9z"/>
		<path class="st7" d="M152.5,130.1v6.5h-1.8V121h4.2c1.9,0,3.3,0.4,4.2,1.1c0.9,0.7,1.4,1.8,1.4,3.3c0,2.1-1,3.4-3.1,4.2l4.2,7
			h-2.1l-3.7-6.5H152.5z M152.5,128.6h2.5c1.3,0,2.2-0.3,2.8-0.8c0.6-0.5,0.9-1.3,0.9-2.3c0-1-0.3-1.8-0.9-2.2
			c-0.6-0.5-1.6-0.7-2.9-0.7h-2.3V128.6z"/>
		<path class="st7" d="M188.2,128.8c0,2.5-0.6,4.4-1.9,5.9c-1.2,1.4-3,2.1-5.2,2.1c-2.3,0-4-0.7-5.3-2.1c-1.2-1.4-1.8-3.4-1.8-5.9
			c0-2.5,0.6-4.5,1.9-5.9c1.2-1.4,3-2.1,5.3-2.1c2.2,0,3.9,0.7,5.2,2.1C187.6,124.3,188.2,126.3,188.2,128.8z M176,128.8
			c0,2.1,0.4,3.7,1.3,4.8c0.9,1.1,2.2,1.6,3.9,1.6c1.7,0,3-0.5,3.9-1.6c0.9-1.1,1.3-2.7,1.3-4.8c0-2.1-0.4-3.7-1.3-4.8
			c-0.9-1.1-2.2-1.6-3.9-1.6c-1.7,0-3,0.5-3.9,1.6C176.4,125.1,176,126.7,176,128.8z"/>
		<path class="st8" d="M227.6,132.4c0,1.4-0.5,2.4-1.5,3.2c-1,0.8-2.3,1.1-4,1.1c-1.8,0-3.2-0.2-4.2-0.7v-1.7
			c0.6,0.3,1.3,0.5,2.1,0.6c0.7,0.2,1.5,0.2,2.2,0.2c1.2,0,2.1-0.2,2.7-0.7c0.6-0.5,0.9-1.1,0.9-1.9c0-0.5-0.1-1-0.3-1.3
			c-0.2-0.3-0.6-0.7-1.1-1c-0.5-0.3-1.3-0.6-2.3-1c-1.4-0.5-2.5-1.1-3.1-1.8c-0.6-0.7-0.9-1.6-0.9-2.8c0-1.2,0.4-2.2,1.3-2.9
			c0.9-0.7,2.1-1.1,3.5-1.1c1.5,0,2.9,0.3,4.2,0.8l-0.6,1.6c-1.3-0.5-2.5-0.8-3.7-0.8c-0.9,0-1.7,0.2-2.2,0.6
			c-0.5,0.4-0.8,1-0.8,1.7c0,0.5,0.1,1,0.3,1.3c0.2,0.3,0.5,0.7,1,0.9c0.5,0.3,1.2,0.6,2.1,1c1.6,0.6,2.7,1.2,3.3,1.9
			C227.2,130.5,227.6,131.4,227.6,132.4z"/>
		<path class="st8" d="M254.9,128.8c0,2.5-0.6,4.4-1.9,5.9c-1.2,1.4-3,2.1-5.2,2.1c-2.3,0-4-0.7-5.3-2.1c-1.2-1.4-1.8-3.4-1.8-5.9
			c0-2.5,0.6-4.5,1.9-5.9c1.2-1.4,3-2.1,5.3-2.1c2.2,0,3.9,0.7,5.2,2.1C254.2,124.3,254.9,126.3,254.9,128.8z M242.6,128.8
			c0,2.1,0.4,3.7,1.3,4.8c0.9,1.1,2.2,1.6,3.9,1.6c1.7,0,3-0.5,3.9-1.6c0.9-1.1,1.3-2.7,1.3-4.8c0-2.1-0.4-3.7-1.3-4.8
			c-0.9-1.1-2.2-1.6-3.9-1.6c-1.7,0-3,0.5-3.9,1.6C243,125.1,242.6,126.7,242.6,128.8z"/>
		<path class="st8" d="M270.9,136.6h-1.8V121h8.6v1.6h-6.8v5.7h6.4v1.6h-6.4V136.6z"/>
		<path class="st8" d="M295.7,136.6H294v-13.9h-4.9V121h11.5v1.6h-4.9V136.6z"/>
		<path class="st8" d="M327.2,136.6h-1.8l-3.1-10.4c-0.1-0.5-0.3-1-0.5-1.7c-0.2-0.7-0.3-1.1-0.3-1.3c-0.2,0.9-0.4,2-0.7,3.1
			l-3,10.3H316l-4.1-15.5h1.9l2.4,9.6c0.3,1.3,0.6,2.6,0.7,3.7c0.2-1.3,0.5-2.6,0.8-3.8l2.8-9.4h1.9l2.9,9.5
			c0.3,1.1,0.6,2.3,0.9,3.7c0.1-1,0.4-2.2,0.8-3.7l2.4-9.6h1.9L327.2,136.6z"/>
		<path class="st8" d="M354.2,136.6l-1.9-4.9h-6.2l-1.9,4.9h-1.8l6.1-15.6h1.5l6.1,15.6H354.2z M351.7,130l-1.8-4.8
			c-0.2-0.6-0.5-1.4-0.7-2.2c-0.2,0.7-0.4,1.4-0.7,2.2l-1.8,4.8H351.7z"/>
		<path class="st8" d="M370.7,130.1v6.5h-1.8V121h4.2c1.9,0,3.3,0.4,4.2,1.1s1.4,1.8,1.4,3.3c0,2.1-1,3.4-3.1,4.2l4.2,7h-2.1
			l-3.7-6.5H370.7z M370.7,128.6h2.5c1.3,0,2.2-0.3,2.8-0.8c0.6-0.5,0.9-1.3,0.9-2.3c0-1-0.3-1.8-0.9-2.2c-0.6-0.5-1.6-0.7-2.9-0.7
			h-2.3V128.6z"/>
		<path class="st8" d="M401.6,136.6H393V121h8.6v1.6h-6.8v5h6.4v1.6h-6.4v5.7h6.8V136.6z"/>
	</g>
	<polygon class="st9" points="72.4,104.8 87.4,104.8 118.5,35.5 102.8,35.5 	"/>
	
		<linearGradient id="SVGID_00000141434829488304208600000011949976872337537954_" gradientUnits="userSpaceOnUse" x1="63.7936" y1="69.3566" x2="63.5514" y2="69.1173">
		<stop  offset="0" style="stop-color:#ED6851"/>
		<stop  offset="1" style="stop-color:#EF7850"/>
	</linearGradient>
	<polygon style="fill:url(#SVGID_00000141434829488304208600000011949976872337537954_);" points="87.3,104.8 72.3,104.8 41.2,35.5 
		56.9,35.5 	"/>
	
		<linearGradient id="SVGID_00000010283313623101521520000007185732840567669406_" gradientUnits="userSpaceOnUse" x1="106.3373" y1="84.4072" x2="106.0856" y2="84.3214">
		<stop  offset="0" style="stop-color:#ED6851"/>
		<stop  offset="1" style="stop-color:#E73E2B"/>
	</linearGradient>
	<polygon style="opacity:0.38;fill:url(#SVGID_00000010283313623101521520000007185732840567669406_);" points="87.3,104.8 
		72.3,104.8 49.8,55 56.8,35.5 	"/>
	
		<linearGradient id="SVGID_00000032618908218348976280000009296247486298550405_" gradientUnits="userSpaceOnUse" x1="90.7891" y1="101.3028" x2="90.7197" y2="101.2791">
		<stop  offset="0" style="stop-color:#ED6851"/>
		<stop  offset="0" style="stop-color:#EA532A"/>
	</linearGradient>
	<polygon style="opacity:0.38;fill:url(#SVGID_00000032618908218348976280000009296247486298550405_);" points="87.4,104.8 
		72.4,104.8 72.4,104.8 79.9,87.8 	"/>
	<g class="st13">
		
			<linearGradient id="SVGID_00000103250425984053038950000000805995326529407165_" gradientUnits="userSpaceOnUse" x1="105.862" y1="76.2277" x2="93.5331" y2="51.9878">
			<stop  offset="0" style="stop-color:#EBA320"/>
			<stop  offset="0.1613" style="stop-color:#EC9C2A"/>
			<stop  offset="0.4293" style="stop-color:#EC8A3E"/>
			<stop  offset="0.7693" style="stop-color:#ED6951"/>
			<stop  offset="0.7748" style="stop-color:#ED6851"/>
		</linearGradient>
		<polygon style="fill:url(#SVGID_00000103250425984053038950000000805995326529407165_);" points="118.1,35.5 102.2,37.5 
			79.9,87.8 87.4,104.8 		"/>
		
			<linearGradient id="SVGID_00000175323964500395856170000001944868823197701009_" gradientUnits="userSpaceOnUse" x1="104.967" y1="63.4605" x2="94.8722" y2="43.613">
			<stop  offset="0" style="stop-color:#F1892D"/>
			<stop  offset="0.2114" style="stop-color:#F18335"/>
			<stop  offset="0.5617" style="stop-color:#EE7447"/>
			<stop  offset="0.7793" style="stop-color:#ED6851"/>
		</linearGradient>
		<polygon style="fill:url(#SVGID_00000175323964500395856170000001944868823197701009_);" points="118.2,35.5 102.1,37.3 
			84.5,77.1 93.8,90.6 		"/>
		
			<linearGradient id="SVGID_00000119819328238835580880000000245222752594238362_" gradientUnits="userSpaceOnUse" x1="110.9045" y1="61.8334" x2="103.1554" y2="46.5978">
			<stop  offset="0" style="stop-color:#F6A250"/>
			<stop  offset="0.839" style="stop-color:#F59F4F"/>
		</linearGradient>
		<polygon style="fill:url(#SVGID_00000119819328238835580880000000245222752594238362_);" points="118.5,35.5 102.1,37.3 
			90.6,63.3 100.5,75.8 		"/>
		
			<linearGradient id="SVGID_00000085242290308501178220000005204361772276153231_" gradientUnits="userSpaceOnUse" x1="127.8795" y1="49.0757" x2="100.2955" y2="50.3767">
			<stop  offset="0" style="stop-color:#F29164"/>
			<stop  offset="0.9749" style="stop-color:#FEDC47"/>
		</linearGradient>
		<polygon style="fill:url(#SVGID_00000085242290308501178220000005204361772276153231_);" points="118.5,35.5 102.8,35.5 
			95.7,51.6 105.3,64.9 		"/>
	</g>
	<polygon class="st18" points="94.9,136.6 64.4,136.6 61.5,126.9 98.2,126.9 	"/>
</g>
<g>
	<g>
		<path class="st19" d="M408.3,28.9v2.3h-0.7v-5.6h1.5c0.7,0,1.2,0.1,1.5,0.4c0.3,0.3,0.5,0.7,0.5,1.2c0,0.7-0.4,1.2-1.1,1.5
			l1.5,2.5h-0.8l-1.4-2.3H408.3z M408.3,28.4h0.9c0.5,0,0.8-0.1,1-0.3c0.2-0.2,0.3-0.5,0.3-0.8c0-0.4-0.1-0.6-0.3-0.8
			c-0.2-0.2-0.6-0.2-1.1-0.2h-0.8V28.4z"/>
	</g>
	<circle class="st20" cx="409.4" cy="28.6" r="4.8"/>
</g>
</svg>
