<?xml version="1.0" encoding="UTF-8" standalone="no"?>
<!DOCTYPE svg PUBLIC "-//W3C//DTD SVG 1.0//EN" "http://www.w3.org/TR/2001/REC-SVG-20010904/DTD/svg10.dtd">
<!-- Created with Inkscape (http://www.inkscape.org/) by Steadfast-->
<svg
   xmlns:svg="http://www.w3.org/2000/svg"
   xmlns="http://www.w3.org/2000/svg"
   version="1.0"
   width="900"
   height="313"
   id="svg2826">
  <defs
     id="defs2828">
    <clipPath
       id="clipPath157">
      <path
         d="M 0,0 L 839.055,0 L 839.055,595.276 L 0,595.276 L 0,0 z"
         id="path159" />
    </clipPath>
    <clipPath
       id="clipPath227">
      <path
         d="M 0,0 L 839.055,0 L 839.055,595.276 L 0,595.276 L 0,0 z"
         id="path229" />
    </clipPath>
    <clipPath
       id="clipPath249">
      <path
         d="M 0,0 L 839.055,0 L 839.055,595.276 L 0,595.276 L 0,0 z"
         id="path251" />
    </clipPath>
    <clipPath
       id="clipPath277">
      <path
         d="M 0,0 L 839.055,0 L 839.055,595.276 L 0,595.276 L 0,0 z"
         id="path279" />
    </clipPath>
    <clipPath
       id="clipPath307">
      <path
         d="M 0,0 L 839.055,0 L 839.055,595.276 L 0,595.276 L 0,0 z"
         id="path309" />
    </clipPath>
  </defs>
  <g
     id="layer1">
    <g
       transform="matrix(5.4988057,0,0,5.4988057,-1089.6656,-618.46653)"
       id="g2921">
      <g
         transform="matrix(1.25,0,0,-1.25,221.0415,126.45923)"
         id="g145">
        <path
           d="M 0,0 L -0.013,0.004 L -0.034,-0.253 L 0,0 z"
           id="path147"
           style="fill:#b4975a;fill-opacity:1;fill-rule:nonzero;stroke:none" />
      </g>
      <g
         transform="matrix(1.25,0,0,-1.25,-605.62113,841.7851)"
         id="g153">
        <g
           clip-path="url(#clipPath157)"
           id="g155">
          <g
             transform="translate(665.1174,554.8188)"
             id="g161">
            <path
               d="M 0,0 C 0,0.316 -0.26,1.033 -0.577,1.033 C -0.894,1.033 -1.153,0.316 -1.153,0 C -1.153,-0.141 -1.096,-0.275 -1.007,-0.376 C -1.122,-0.458 -1.165,-0.604 -1.165,-0.87 C -1.165,-1.146 -1.214,-1.19 -1.31,-1.281 L -1.369,-1.336 C -1.369,-1.336 -1.39,-1.369 -1.413,-1.401 C -1.738,-1.215 -2.383,-1.158 -2.667,-1.135 C -2.7,-1.092 -2.733,-1.039 -2.733,-1.039 L -2.774,-1.003 C -2.819,-0.952 -2.819,-0.952 -2.819,-0.851 L -2.819,-0.399 C -2.725,-0.322 -2.557,-0.165 -2.557,0.08 C -2.557,0.174 -2.598,0.716 -2.667,0.773 C -2.689,0.793 -2.711,0.81 -2.733,0.82 C -2.648,0.924 -2.593,1.055 -2.593,1.201 C -2.593,1.517 -2.847,1.772 -3.166,1.772 C -3.48,1.772 -3.738,1.517 -3.738,1.201 C -3.738,1.047 -3.678,0.91 -3.581,0.81 C -3.597,0.796 -3.618,0.786 -3.631,0.773 C -3.699,0.716 -3.735,0.174 -3.735,0.08 C -3.735,-0.165 -3.575,-0.322 -3.475,-0.399 L -3.475,-0.851 C -3.475,-0.952 -3.475,-0.952 -3.524,-1.003 L -3.563,-1.039 C -3.563,-1.039 -3.597,-1.092 -3.631,-1.136 C -3.913,-1.158 -4.55,-1.218 -4.873,-1.401 C -4.887,-1.374 -4.917,-1.336 -4.917,-1.336 L -4.975,-1.281 C -5.072,-1.19 -5.122,-1.146 -5.122,-0.87 C -5.122,-0.604 -5.163,-0.458 -5.279,-0.376 C -5.19,-0.275 -5.134,-0.141 -5.134,0 C -5.134,0.316 -5.391,1.033 -5.708,1.033 C -6.026,1.033 -6.287,0.316 -6.287,0 C -6.287,-0.219 -6.158,-0.409 -5.976,-0.507 C -5.993,-0.561 -6.003,-0.618 -6.003,-0.667 C -6.003,-0.736 -5.993,-0.79 -5.99,-0.799 C -5.981,-0.827 -5.284,-2.255 -5.182,-2.464 L -5.203,-2.546 C -5.203,-3.159 -3.76,-3.224 -3.144,-3.224 C -2.524,-3.224 -1.076,-3.159 -1.076,-2.546 C -1.076,-2.546 -1.094,-2.506 -1.104,-2.464 C -1.063,-2.383 -0.307,-0.827 -0.307,-0.827 C -0.3,-0.807 -0.282,-0.742 -0.282,-0.66 C -0.282,-0.611 -0.291,-0.557 -0.309,-0.507 C -0.125,-0.409 0,-0.219 0,0 M -7.331,1.934 L 0.987,1.934 C 0.987,1.934 0.804,-1.12 0.738,-3.621 L -7.121,-3.621 C -7.121,-3.621 -7.284,1.266 -7.331,1.934"
               id="path163"
               style="fill:#b4975a;fill-opacity:1;fill-rule:nonzero;stroke:none" />
          </g>
          <g
             transform="translate(665.1716,549.6534)"
             id="g165">
            <path
               d="M 0,0 C 0,0.325 -0.267,0.595 -0.595,0.595 C -0.927,0.595 -1.197,0.325 -1.197,0 C -1.197,-0.146 -1.145,-0.273 -1.061,-0.376 C -1.164,-0.465 -1.207,-0.617 -1.207,-0.873 C -1.207,-1.139 -1.248,-1.179 -1.345,-1.268 L -1.409,-1.321 C -1.409,-1.321 -1.426,-1.354 -1.451,-1.388 C -1.77,-1.208 -2.341,-1.14 -2.676,-1.122 C -2.704,-1.074 -2.736,-1.029 -2.736,-1.029 L -2.777,-0.987 C -2.777,-0.987 -2.81,-0.957 -2.813,-0.953 C -2.813,-0.951 -2.817,-0.855 -2.817,-0.855 L -2.817,-0.409 C -2.714,-0.332 -2.554,-0.171 -2.554,0.075 C -2.554,0.179 -2.595,0.267 -2.673,0.337 C -2.688,0.348 -2.704,0.354 -2.722,0.371 C -2.636,0.469 -2.586,0.595 -2.586,0.741 C -2.586,1.066 -2.856,1.338 -3.185,1.338 C -3.516,1.338 -3.785,1.066 -3.785,0.741 C -3.785,0.59 -3.728,0.454 -3.635,0.351 C -3.648,0.348 -3.657,0.341 -3.664,0.337 C -3.741,0.27 -3.776,0.179 -3.776,0.075 C -3.776,-0.171 -3.62,-0.332 -3.521,-0.409 L -3.521,-0.855 C -3.521,-0.855 -3.523,-0.951 -3.523,-0.953 C -3.53,-0.957 -3.56,-0.987 -3.56,-0.987 L -3.601,-1.029 C -3.601,-1.029 -3.632,-1.074 -3.664,-1.122 C -3.987,-1.14 -4.561,-1.208 -4.879,-1.388 C -4.895,-1.361 -4.92,-1.321 -4.92,-1.321 L -4.982,-1.268 C -5.073,-1.179 -5.12,-1.139 -5.12,-0.873 C -5.12,-0.617 -5.161,-0.465 -5.266,-0.376 C -5.179,-0.273 -5.129,-0.146 -5.129,0 C -5.129,0.325 -5.401,0.595 -5.727,0.595 C -6.058,0.595 -6.328,0.325 -6.328,0 C -6.328,-0.222 -6.204,-0.42 -6.025,-0.521 C -6.039,-0.576 -6.048,-0.626 -6.048,-0.672 C -6.048,-0.746 -6.035,-0.801 -6.035,-0.812 L -6.025,-0.827 C -6.025,-0.827 -5.272,-2.377 -5.229,-2.47 C -5.236,-2.511 -5.247,-2.553 -5.247,-2.553 C -5.247,-3.16 -3.942,-3.249 -3.163,-3.249 C -2.383,-3.249 -1.079,-3.16 -1.079,-2.553 C -1.079,-2.553 -1.088,-2.513 -1.1,-2.47 C -1.051,-2.377 -0.3,-0.83 -0.3,-0.83 L -0.292,-0.812 C -0.292,-0.801 -0.278,-0.746 -0.278,-0.672 C -0.278,-0.626 -0.289,-0.576 -0.303,-0.521 C -0.121,-0.42 0,-0.222 0,0"
               id="path167"
               style="fill:#b4975a;fill-opacity:1;fill-rule:nonzero;stroke:none" />
          </g>
          <g
             transform="translate(674.436,546.7076)"
             id="g169">
            <path
               d="M 0,0 C -0.018,-0.346 -0.184,-1.046 -0.366,-1.756 C -0.828,-2.033 -1.156,-2.405 -1.156,-2.405 C -1.08,-1.103 -1.756,-0.734 -1.756,-0.734 C -1.629,-1.335 -3.344,-1.763 -3.344,-1.763 C -3.559,-0.95 -2.746,-0.133 -2.746,-0.133 C -3.913,0.387 -5.418,-0.947 -5.418,-0.947 C -5.073,-0.346 -5.75,0.81 -5.75,0.81 C -5.799,0.433 -6.193,0.056 -6.543,-0.207 C -6.743,-0.585 -6.968,-0.974 -7.225,-1.385 C -8.68,-3.701 -12.103,-5.553 -12.245,-5.635 L -12.49,-5.763 L -12.738,-5.635 C -12.882,-5.553 -16.301,-3.701 -17.759,-1.385 C -18.019,-0.965 -18.25,-0.564 -18.453,-0.176 C -18.793,-0.632 -19.143,-0.965 -19.143,-0.965 C -19.687,0.188 -21.294,0.67 -21.294,0.67 C -20.781,-0.231 -21.302,-1.545 -21.582,-1.749 C -21.617,-1.773 -21.521,-1.573 -21.568,-1.427 C -21.926,-0.231 -23.028,-0.248 -23.028,-0.248 C -22.684,-1.195 -23.644,-2.065 -23.644,-2.065 C -23.903,-1.72 -23.903,-0.734 -23.903,-0.734 C -23.903,-0.734 -24.237,-0.76 -24.59,-1.061 C -24.694,-0.62 -24.771,-0.229 -24.783,0 C -24.784,0.079 -24.793,0.149 -24.793,0.218 C -24.793,0.852 -24.628,1.107 -24.628,1.11 C -23.95,2.323 -23.684,3.593 -23.641,3.814 C -23.611,3.847 -23.222,4.293 -22.893,4.669 C -22.79,4.676 -22.137,4.734 -22,4.734 C -21.847,4.734 -21.49,4.693 -21.314,4.693 C -21.138,4.693 -20.796,4.841 -20.796,5.143 C -20.796,5.443 -20.544,6.265 -20.544,6.265 C -20.544,6.265 -19.593,9.61 -19.55,9.566 C -19.55,9.566 -19.439,9.737 -19.362,9.799 C -19.263,8.122 -19.163,5.692 -19.163,4.676 C -19.163,2.706 -18.716,1.117 -17.318,-1.109 C -15.921,-3.333 -12.49,-5.174 -12.49,-5.174 C -12.49,-5.174 -9.063,-3.333 -7.662,-1.109 C -6.267,1.117 -5.793,2.706 -5.793,4.676 C -5.793,5.518 -5.728,7.482 -5.656,8.927 C -5.637,8.938 -5.621,8.948 -5.609,8.962 C -5.609,8.962 -5.349,9.063 -5.316,9.348 C -5.062,8.681 -4.419,6.265 -4.419,6.265 C -4.419,6.265 -4.075,5.517 -3.953,5.143 C -3.862,4.855 -3.615,4.693 -3.44,4.693 C -3.262,4.693 -2.909,4.734 -2.756,4.734 C -2.627,4.734 -2.063,4.685 -1.894,4.672 C -1.59,4.323 -1.224,3.901 -1.14,3.814 C -1.099,3.593 -0.84,2.323 -0.165,1.12 C -0.159,1.107 0.006,0.852 0.006,0.218 C 0.006,0.149 0.003,0.078 0,0 M -12.477,10.589 L -7.701,10.589 C -7.701,10.589 -7.934,6.053 -7.934,4.619 C -7.934,3.188 -8.259,2.029 -9.209,0.404 C -10.158,-1.214 -12.477,-2.559 -12.477,-2.559 C -12.477,-2.559 -14.803,-1.214 -15.75,0.404 C -16.693,2.029 -16.996,3.188 -16.996,4.619 C -16.996,6.053 -17.255,10.589 -17.255,10.589 L -12.477,10.589 z M -21.758,17.987 C -21.56,17.987 -21.394,17.887 -21.394,17.632 C -21.394,17.369 -21.56,17.269 -21.758,17.269 C -21.956,17.269 -22.118,17.431 -22.118,17.632 C -22.118,17.887 -22.014,17.987 -21.758,17.987 M -2.991,17.269 C -3.193,17.269 -3.353,17.431 -3.353,17.632 C -3.353,17.828 -3.193,17.987 -2.991,17.987 C -2.796,17.987 -2.633,17.828 -2.633,17.632 C -2.633,17.431 -2.796,17.269 -2.991,17.269 M -12.993,11.932 C -14.259,11.338 -15.222,11.888 -15.222,11.888 C -15.289,12.03 -15.243,12.697 -15.243,12.697 L -18.758,12.697 C -18.755,12.7 -18.753,12.701 -18.753,12.701 C -19.422,13.055 -19.616,12.674 -19.709,12.581 C -19.808,12.487 -19.908,12.26 -19.908,12.071 C -19.908,11.884 -19.808,11.492 -19.742,11.054 C -19.682,10.618 -19.742,10.202 -19.742,10.202 C -19.742,10.202 -21.008,6.108 -21.237,5.615 C -21.459,5.13 -21.903,5.242 -21.903,5.242 L -22.278,5.379 C -21.691,6.092 -21.356,6.729 -21.297,7.274 C -21.281,7.429 -21.27,7.612 -21.27,7.798 C -21.27,8.479 -21.368,9.713 -21.405,10.015 L -21.412,10.069 L -21.444,10.316 C -21.484,10.571 -21.538,10.888 -21.538,11.462 L -21.482,13.223 C -21.538,14.416 -22.252,15.252 -22.553,15.553 C -22.666,15.665 -22.734,15.887 -22.734,16.1 C -22.734,16.198 -22.718,16.294 -22.69,16.379 C -22.615,16.596 -22.172,16.752 -21.771,16.799 C -21.358,16.845 -20.678,17.036 -20.646,17.044 L -16.987,17.881 L -18.302,17.907 C -19.585,17.937 -21.088,18.055 -21.265,18.206 C -21.606,18.544 -22.019,18.571 -22.522,18.571 C -23.134,18.571 -23.809,17.861 -24.201,16.812 C -24.302,16.549 -24.344,16.292 -24.344,16.048 C -24.344,15.236 -23.865,14.562 -23.403,14.097 C -23.065,13.763 -23.057,13.055 -23.057,12.742 L -23.057,12.627 C -23.057,11.989 -23.109,11.491 -23.605,11.329 C -24.694,10.973 -25.521,10.493 -26.197,9.818 C -26.825,9.19 -27.179,7.888 -27.716,6.607 L -28.072,5.751 C -28.792,4.08 -28.894,3.034 -28.913,2.866 C -29.81,1.022 -29.953,0.053 -29.953,-0.372 C -29.953,-0.541 -29.933,-0.627 -29.927,-0.651 L -29.914,-0.684 C -29.859,-0.823 -29.784,-0.873 -29.561,-0.927 C -29.316,-0.992 -29.134,-0.869 -28.94,-0.743 L -28.783,-0.647 C -28.494,-0.475 -27.916,-0.12 -26.859,0.688 C -26.175,1.208 -25.597,1.828 -25.256,2.218 C -25.271,1.92 -25.29,1.616 -25.29,1.616 C -25.29,1.345 -25.389,1.117 -25.521,0.799 L -25.584,0.646 C -25.665,0.451 -25.69,0.288 -25.69,0.146 C -25.69,-0.024 -25.649,-0.16 -25.615,-0.26 C -25.607,-0.286 -25.483,-0.632 -25.483,-0.632 C -25.375,-0.927 -25.21,-1.381 -25.091,-1.751 C -25.259,-2.111 -25.384,-2.586 -25.415,-3.233 C -25.455,-4.102 -26.693,-2.49 -26.693,-2.49 C -26.352,-3.008 -26.479,-5.024 -26.991,-4.727 C -27.509,-4.425 -27.595,-3.267 -27.595,-3.267 C -28.194,-4.384 -27.687,-5.44 -27.687,-5.44 L -27.44,-5.569 C -24.83,-7.288 -12.513,-7.349 -12.513,-7.349 L -12.503,-7.349 C -12.503,-7.349 -0.185,-7.288 2.432,-5.569 L 2.622,-5.499 C 3.012,-5.156 3.356,-3.483 3.356,-3.483 C 3.135,-4.083 1.807,-4.124 1.807,-4.124 C 1.728,-3.582 2.204,-3.043 2.303,-2.942 C 2.319,-2.927 2.323,-2.922 2.323,-2.922 C 1.274,-2.429 0.379,-3.149 0.379,-3.149 C 0.253,-2.161 0.991,-1.55 0.991,-1.55 C 0.797,-1.469 0.594,-1.449 0.4,-1.469 C 0.505,-1.17 0.621,-0.857 0.698,-0.632 L 0.825,-0.286 C 0.861,-0.17 0.907,-0.032 0.907,0.149 C 0.907,0.292 0.88,0.451 0.8,0.646 L 0.734,0.805 C 0.606,1.118 0.507,1.348 0.507,1.616 C 0.507,1.616 0.491,1.92 0.472,2.218 C 0.813,1.828 1.39,1.208 2.076,0.688 C 3.13,-0.12 3.712,-0.47 3.99,-0.638 C 4,-0.647 4.156,-0.743 4.156,-0.743 C 4.351,-0.869 4.534,-0.992 4.775,-0.927 C 5,-0.873 5.074,-0.823 5.128,-0.684 L 5.141,-0.651 C 5.151,-0.627 5.172,-0.541 5.172,-0.372 C 5.172,0.053 5.024,1.021 4.131,2.866 C 4.115,3.034 4.006,4.08 3.29,5.751 L 2.929,6.612 C 2.391,7.888 2.041,9.19 1.41,9.818 C 0.734,10.493 -0.088,10.973 -1.18,11.329 C -1.681,11.491 -1.728,11.989 -1.728,12.627 C -1.728,12.635 -1.725,12.727 -1.725,12.73 C -1.725,13.055 -1.722,13.763 -1.384,14.097 C -0.918,14.562 -0.441,15.239 -0.441,16.048 C -0.441,16.292 -0.482,16.549 -0.584,16.812 C -0.981,17.861 -1.656,18.571 -2.263,18.571 C -2.766,18.571 -3.179,18.544 -3.519,18.206 C -3.694,18.055 -5.197,17.937 -6.487,17.907 L -7.797,17.881 L -4.131,17.042 C -4.113,17.036 -3.427,16.845 -3.012,16.799 C -2.615,16.752 -2.167,16.596 -2.098,16.379 C -2.063,16.294 -2.051,16.198 -2.051,16.1 C -2.051,15.887 -2.12,15.665 -2.233,15.553 C -2.534,15.252 -3.247,14.416 -3.303,13.24 C -3.303,13.223 -3.25,11.462 -3.25,11.462 C -3.25,10.888 -3.3,10.571 -3.341,10.316 L -3.374,10.069 L -3.384,10.01 C -3.418,9.713 -3.513,8.479 -3.513,7.798 C -3.513,7.61 -3.504,7.429 -3.487,7.274 C -3.427,6.726 -3.093,6.085 -2.5,5.368 L -2.851,5.242 C -2.851,5.242 -3.5,5.13 -3.727,5.615 C -3.953,6.108 -5.219,10.202 -5.219,10.202 C -5.219,10.202 -5.284,10.618 -5.219,11.054 C -5.156,11.492 -5.057,11.884 -5.057,12.071 C -5.057,12.26 -5.156,12.487 -5.252,12.581 C -5.344,12.674 -5.456,13.01 -6.125,12.701 L -6.125,12.697 L -11.769,12.693 C -12.459,12.143 -12.993,11.932 -12.993,11.932"
               id="path171"
               style="fill:#b4975a;fill-opacity:1;fill-rule:nonzero;stroke:none" />
          </g>
          <g
             transform="translate(664.4604,581.0542)"
             id="g173">
            <path
               d="M 0,0 C -0.199,0.058 -0.406,-0.056 -0.461,-0.25 C -0.486,-0.339 -0.477,-0.432 -0.439,-0.516 C -0.45,-0.521 -0.458,-0.521 -0.468,-0.525 C -0.543,-0.569 -0.587,-0.657 -0.621,-0.795 C -0.678,-0.965 -0.715,-0.983 -0.794,-1.025 L -0.84,-1.049 C -0.885,-1.074 -0.918,-1.103 -0.946,-1.135 C -1.049,-1.025 -1.29,-0.897 -1.596,-0.784 C -1.596,-0.779 -1.591,-0.774 -1.591,-0.773 C -1.591,-0.717 -1.605,-0.667 -1.633,-0.612 L -1.655,-0.582 C -1.665,-0.561 -1.671,-0.551 -1.671,-0.537 C -1.671,-0.522 -1.665,-0.506 -1.657,-0.475 C -1.657,-0.475 -1.591,-0.254 -1.574,-0.193 C -1.505,-0.164 -1.371,-0.096 -1.324,0.052 L -1.346,0.22 C -1.356,0.237 -1.374,0.244 -1.387,0.258 C -1.307,0.307 -1.246,0.378 -1.218,0.471 C -1.208,0.505 -1.202,0.54 -1.202,0.577 C -1.202,0.733 -1.307,0.883 -1.47,0.931 C -1.564,0.959 -1.665,0.949 -1.752,0.901 C -1.837,0.855 -1.9,0.776 -1.933,0.679 C -1.958,0.583 -1.946,0.483 -1.9,0.401 C -1.912,0.397 -1.922,0.397 -1.936,0.393 L -2.043,0.268 C -2.054,0.231 -2.062,0.201 -2.062,0.171 C -2.062,0.049 -2.002,-0.027 -1.966,-0.073 C -1.983,-0.134 -2.054,-0.36 -2.054,-0.36 C -2.068,-0.423 -2.068,-0.423 -2.117,-0.448 L -2.148,-0.462 C -2.205,-0.498 -2.249,-0.542 -2.274,-0.587 C -2.587,-0.516 -2.852,-0.495 -3.003,-0.528 C -3.006,-0.486 -3.017,-0.445 -3.042,-0.399 L -3.072,-0.349 C -3.111,-0.279 -3.138,-0.237 -3.086,-0.068 C -3.05,0.064 -3.031,0.162 -3.074,0.241 C -3.078,0.25 -3.086,0.256 -3.093,0.264 C -3.017,0.315 -2.952,0.384 -2.93,0.475 C -2.918,0.507 -2.912,0.544 -2.912,0.58 C -2.912,0.64 -2.93,0.702 -2.961,0.759 C -3.006,0.844 -3.083,0.913 -3.179,0.932 C -3.276,0.963 -3.372,0.952 -3.461,0.907 C -3.549,0.859 -3.612,0.78 -3.64,0.685 C -3.681,0.544 -3.639,0.401 -3.538,0.307 C -3.593,0.237 -3.596,0.142 -3.596,0.132 C -3.596,0.115 -3.474,-0.618 -3.417,-0.95 C -2.986,-0.999 -2.418,-1.151 -2.012,-1.275 C -1.671,-1.371 -1.189,-1.531 -0.805,-1.7 L -0.094,-0.916 C -0.081,-0.894 -0.037,-0.809 -0.042,-0.717 C 0,-0.713 0.035,-0.704 0.069,-0.683 C 0.16,-0.634 0.223,-0.558 0.25,-0.462 C 0.307,-0.266 0.193,-0.056 0,0"
               id="path175"
               style="fill:#b4975a;fill-opacity:1;fill-rule:nonzero;stroke:none" />
          </g>
          <g
             transform="translate(665.7979,560.3464)"
             id="g177">
            <path
               d="M 0,0 C -0.011,-0.036 -0.027,-0.076 -0.046,-0.117 C -0.046,-0.117 -0.127,-0.399 -0.439,-0.684 L -2.862,-0.684 C -2.862,-0.684 -1.837,0.492 -0.546,0.492 C -0.546,0.492 -0.081,0.048 -0.003,0.007"
               id="path179"
               style="fill:#b4975a;fill-opacity:1;fill-rule:nonzero;stroke:none" />
          </g>
          <g
             transform="translate(665.406,564.6992)"
             id="g181">
            <path
               d="M 0,0 L -0.551,1.158 L -1.039,2.096 C -0.52,1.59 1.552,-0.367 1.552,-0.367 C 1.977,-0.784 3.072,-1.135 3.116,-1.149 C 3.127,-1.156 3.546,-1.329 3.659,-1.956 C 3.727,-2.326 3.775,-2.529 3.805,-2.64 C 3.546,-2.76 2.796,-3.034 2.413,-2.539 C 1.889,-1.874 0.242,-0.238 0,0"
               id="path183"
               style="fill:#b4975a;fill-opacity:1;fill-rule:nonzero;stroke:none" />
          </g>
          <g
             transform="translate(662.5737,578.0402)"
             id="g185">
            <path
               d="M 0,0 C -0.203,0 -0.363,0.16 -0.363,0.362 C -0.363,0.56 -0.203,0.721 0,0.721 C 0.2,0.721 0.36,0.56 0.36,0.362 C 0.36,0.16 0.2,0 0,0 M -1.103,0.389 C -1.301,0.389 -1.459,0.552 -1.459,0.75 C -1.459,0.948 -1.301,1.109 -1.103,1.109 C -0.904,1.109 -0.744,0.948 -0.744,0.75 C -0.744,0.552 -0.904,0.389 -1.103,0.389 M 0.822,0.422 C 0.888,0.422 0.999,0.492 1.098,0.591 C 1.184,0.68 1.156,0.869 1.154,1.049 C 0.875,1.178 0.437,1.355 -0.182,1.536 C -0.904,1.745 -1.455,1.846 -1.753,1.866 C -1.761,1.863 -1.775,1.855 -1.787,1.845 C -1.863,1.767 -1.827,1.685 -1.827,1.545 C -1.827,1.4 -1.932,1.335 -1.932,1.139 C -1.932,0.94 -1.775,1.022 -1.775,1.022 L -1.827,0.905 C -2.101,0.905 -2.622,0.305 -2.622,0.305 C -2.479,0.447 -2.137,0.305 -2.137,0.305 C -2.137,0.305 -2.443,0.297 -2.725,0.021 C -3.005,-0.262 -2.931,-0.892 -2.931,-0.892 C -2.848,-0.81 -2.776,-0.855 -2.776,-0.855 C -3.212,-1.294 -3.116,-1.912 -3.116,-1.912 C -2.977,-1.663 -2.61,-1.573 -2.61,-1.573 C -2.61,-1.573 -2.659,-1.65 -2.859,-1.846 C -2.953,-1.945 -2.997,-2.073 -3.018,-2.172 C -2.985,-2.331 -2.936,-2.615 -2.922,-2.928 C -2.862,-2.886 -2.815,-2.845 -2.746,-2.775 C -2.49,-2.519 -2.354,-2.363 -2.252,-2.166 C -2.247,-2.163 -2.241,-2.15 -2.241,-2.15 L -2.018,-2.279 C -2.021,-2.28 -2.021,-2.284 -2.026,-2.29 C -2.029,-2.296 -2.325,-2.749 -2.393,-3.391 C -2.443,-3.869 -2.495,-4.159 -2.55,-4.384 C -2.246,-4.191 -1.791,-3.858 -1.581,-3.528 L -1.54,-3.457 C -1.271,-3.029 -1.163,-2.853 -1.163,-2.592 L -1.163,-2.279 L -0.94,-2.479 C -0.907,-2.512 -0.891,-2.607 -0.891,-2.731 C -0.891,-2.883 -0.925,-3.078 -0.973,-3.275 C -0.744,-3.174 -0.41,-2.925 -0.41,-2.32 L -0.146,-2.307 C -0.146,-2.323 -0.132,-2.517 -0.132,-2.749 C -0.132,-2.841 -0.135,-2.937 -0.146,-3.027 C -0.132,-3.019 -0.121,-3.009 -0.106,-2.998 C 0.588,-2.512 0.353,-1.51 0.353,-1.51 C 0.497,-1.65 0.599,-2.044 0.599,-2.044 C 0.966,-1.324 0.691,-0.609 0.691,-0.609 C 0.913,-0.71 0.981,-0.973 0.981,-0.973 C 1.293,0.057 0.781,0.345 0.781,0.345 C 0.781,0.345 0.759,0.422 0.822,0.422"
               id="path187"
               style="fill:#b4975a;fill-opacity:1;fill-rule:nonzero;stroke:none" />
          </g>
          <g
             transform="translate(656.3643,577.5005)"
             id="g189">
            <path
               d="M 0,0 C -0.107,-0.109 0.041,-0.363 0.276,-0.395 C 0.513,-0.428 0.803,-0.754 0.803,-0.754 C 0.376,-1.056 0.249,-1.491 0.249,-1.491 C 0.591,-1.443 1.087,-1.597 1.087,-1.597 C 0.85,-1.836 0.965,-2.556 0.965,-2.556 C 1.349,-2.243 1.765,-2.418 1.765,-2.418 C 1.765,-2.418 1.437,-2.862 1.729,-3.308 C 1.729,-3.308 2.115,-3.106 2.363,-3.239 C 2.375,-3.246 2.377,-3.255 2.388,-3.267 L 3.041,-2.535 C 3.026,-2.111 2.953,-1.715 2.925,-1.597 L 2.706,-1.417 C 2.706,-1.417 1.794,-0.63 1.706,-0.544 C 1.619,-0.452 1.563,-0.239 1.594,-0.123 C 1.625,-0.009 1.79,0.189 1.812,0.348 C 1.832,0.505 1.69,0.623 1.69,0.623 C 1.69,0.918 1.578,1.28 1.578,1.28 C 1.528,1.091 1.379,0.76 1.379,0.76 C 1.239,1.324 0.861,1.413 0.861,1.413 C 1.041,1.091 0.927,0.681 0.927,0.681 C 0.544,1.263 0.135,0.984 0.135,0.984 C 0.5,0.962 0.521,0.327 0.521,0.327 C 0.073,0.561 -0.548,0.109 -0.548,0.109 C -0.372,0.153 0.07,0.084 0.091,0.083 C 0.081,0.076 0.063,0.061 0,0"
               id="path191"
               style="fill:#b4975a;fill-opacity:1;fill-rule:nonzero;stroke:none" />
          </g>
          <g
             transform="translate(657.9587,564.1711)"
             id="g193">
            <path
               d="M 0,0 C 0,0 -0.344,0.018 -0.667,0.226 L -2.944,-0.43 C -2.944,-0.43 -3.594,-0.43 -3.853,-1.165 L -4.107,-1.898 C -4.107,-1.898 -3.681,-2.246 -3.332,-2.246 C -2.982,-2.246 -2.469,-2.418 -1.953,-1.898 C -1.572,-1.522 -0.538,-0.52 0,0"
               id="path195"
               style="fill:#b4975a;fill-opacity:1;fill-rule:nonzero;stroke:none" />
          </g>
          <g
             transform="translate(664.5981,561.6662)"
             id="g197">
            <path
               d="M 0,0 C -0.086,0.256 -0.113,0.387 -0.149,0.534 C -0.177,0.661 -0.318,1.572 -0.343,1.718 L -0.343,1.019 L -0.343,0.897 C -0.343,-0.012 -0.717,-0.179 -0.752,-0.189 L -1.781,-0.651 L -1.822,-0.576 C -1.824,-0.574 -1.93,-0.402 -2.109,-0.219 C -2.344,0.015 -2.399,0.189 -2.093,1.355 C -1.958,1.877 -1.886,2.745 -1.849,3.531 C -2.456,3.279 -4.381,2.508 -5.652,2.417 L -5.787,2.394 C -5.101,1.617 -4.759,0.771 -4.596,0.229 C -4.581,0.229 -4.556,0.078 -4.556,0.078 L -4.171,-1.589 L -4.323,-1.956 C -4.323,-1.956 -4.508,-1.165 -4.644,-0.59 C -5.277,-1.602 -5.177,-2.903 -5.177,-2.903 C -3.199,-3.45 -1.565,-1.557 -1.565,-1.557 C -0.584,-0.793 0.102,-0.628 0.541,-0.667 C 0.541,-0.667 0.088,-0.25 0,0"
               id="path199"
               style="fill:#b4975a;fill-opacity:1;fill-rule:nonzero;stroke:none" />
          </g>
          <g
             transform="translate(661.946,567.5857)"
             id="g201">
            <path
               d="M 0,0 C -1.722,0 -2.841,-0.438 -3.116,-0.56 C -3.207,-0.534 -3.384,-0.456 -3.384,-0.267 C -3.384,-0.13 -3.342,-0.017 -3.288,0.166 L -3.135,0.703 C -3.133,0.742 -3.094,1.009 -2.681,1.148 C -2.088,1.344 -1.473,1.462 -0.813,1.516 L 0.024,1.549 C 0.218,1.539 1.562,1.45 2.707,1.145 C 3.062,1.05 3.094,0.67 3.102,0.656 C 3.105,0.634 3.259,0.069 3.259,0.069 C 3.305,-0.054 3.33,-0.13 3.33,-0.256 C 3.33,-0.377 3.305,-0.467 3.259,-0.513 C 3.221,-0.554 3.171,-0.554 3.163,-0.554 C 3.163,-0.552 3.085,-0.522 3.085,-0.522 C 2.74,-0.395 1.687,0 0,0 M -4.084,2.585 C -3.916,2.629 -3.77,2.722 -3.653,2.845 C -3.489,2.625 -3.163,2.256 -2.515,1.597 C -2.61,1.569 -2.708,1.546 -2.804,1.516 C -3.146,1.402 -3.325,1.214 -3.419,1.052 L -4.084,2.585 z M -4.82,3.456 C -4.82,3.736 -4.592,3.964 -4.31,3.964 C -4.026,3.964 -3.8,3.736 -3.8,3.456 C -3.8,3.171 -4.026,2.938 -4.31,2.938 C -4.592,2.938 -4.82,3.171 -4.82,3.456 M -3.69,4.788 C -3.69,4.393 -3.428,4.2 -3.428,4.2 C -3.135,4.489 -3.05,4.852 -3.05,4.852 C -3.05,4.367 -2.739,4.24 -2.739,4.24 C -2.429,4.546 -2.476,4.969 -2.476,4.969 C -2.372,4.615 -1.964,4.549 -1.964,4.549 C -1.835,4.812 -1.835,5.449 -1.835,5.449 C -1.835,5.084 -1.459,4.942 -1.459,4.942 C -1.291,4.852 -1.157,4.834 -1.157,4.834 L -0.766,4.719 C -0.813,4.635 -0.844,4.548 -0.864,4.453 C -0.907,4.213 -0.855,3.975 -0.716,3.776 C -0.685,3.736 -0.647,3.694 -0.616,3.66 C -0.623,3.332 -0.71,2.713 -0.855,1.904 C -1.279,1.865 -1.685,1.806 -2.082,1.712 C -3.001,2.64 -3.394,3.106 -3.444,3.222 C -3.422,3.295 -3.407,3.373 -3.407,3.456 C -3.407,3.859 -3.679,4.2 -4.048,4.313 C -3.916,4.562 -3.69,4.788 -3.69,4.788 M 0.687,1.968 C 0.521,1.961 0.264,1.95 0.018,1.942 L 0.005,1.942 C -0.152,1.942 -0.304,1.934 -0.456,1.924 C -0.376,2.377 -0.279,2.982 -0.24,3.426 C -0.168,3.409 0.031,3.364 0.031,3.364 C 0.109,3.364 0.221,3.4 0.334,3.442 C 0.406,3.144 0.615,2.276 0.687,1.968 M -0.482,4.383 C -0.46,4.519 -0.382,4.635 -0.269,4.714 C -0.157,4.791 -0.023,4.821 0.112,4.801 C 0.248,4.775 0.365,4.702 0.446,4.589 L 0.446,4.588 C 0.521,4.479 0.549,4.344 0.531,4.208 C 0.502,4.071 0.425,3.955 0.314,3.877 C 0.206,3.795 0.068,3.766 -0.066,3.789 C -0.201,3.817 -0.319,3.891 -0.394,4 C -0.475,4.113 -0.503,4.251 -0.482,4.383 M 2.468,5.998 C 1.921,7.723 2.25,7.95 2.259,8.109 C 2.274,8.373 2.702,9.02 3.196,9.02 C 3.691,9.02 3.705,8.44 3.705,8.44 C 3.705,8.44 3.746,7.981 3.223,7.981 C 2.702,7.981 2.754,8.319 2.754,8.319 C 2.754,8.319 2.625,7.964 2.688,7.526 C 2.754,7.081 3.521,7.052 3.521,7.052 C 2.754,6.747 3.063,5.476 3.063,5.476 C 3.063,5.476 3.337,4.06 3.422,3.685 C 3.41,3.625 3.399,3.563 3.399,3.498 C 3.399,3.415 3.418,3.337 3.435,3.259 C 3.435,3.253 3.433,3.246 3.433,3.232 L 3.435,3.258 C 3.406,3.162 3.19,2.881 2.933,2.578 C 3.035,2.766 3.105,2.959 3.105,3.142 C 3.105,3.82 3.015,4.279 2.468,5.998 M 3.653,2.877 C 3.763,2.757 3.918,2.67 4.077,2.629 C 3.946,2.319 3.62,1.553 3.394,1.022 C 3.305,1.211 3.14,1.431 2.809,1.52 C 2.732,1.542 2.656,1.563 2.58,1.582 C 2.872,1.898 3.388,2.476 3.653,2.877 M 4.301,4.014 C 4.584,4.014 4.815,3.781 4.815,3.498 C 4.815,3.216 4.584,2.985 4.301,2.985 C 4.017,2.985 3.791,3.216 3.791,3.498 C 3.791,3.781 4.017,4.014 4.301,4.014 M 13.887,0.507 C 14.203,0.828 14.536,1.531 14.553,1.563 L 14.628,1.729 L 13.318,2.146 C 13.312,2.147 12.712,2.413 12.043,1.95 C 11.547,1.605 10.569,1.081 10.02,0.793 C 10.397,1.651 11.084,3.062 11.627,3.544 C 11.771,3.232 11.956,2.818 11.956,2.818 C 11.956,2.818 13.568,2.922 13.568,4.296 C 13.568,4.928 13.406,5.532 12.838,5.859 C 12.838,5.859 12.54,5.959 12.157,5.992 L 12.146,5.994 C 12.105,6 11.167,6.13 10.674,5.424 C 10.241,4.815 9.437,3.597 8.862,2.256 C 8.665,1.789 8.514,1.516 8.399,1.324 C 8.377,1.504 8.359,1.732 8.335,1.953 C 8.271,2.694 8.189,3.617 7.997,4.087 C 7.624,5.01 6.881,5.206 6.324,5.206 L 6.212,5.206 L 6.176,5.1 C 6.168,5.071 6,4.63 6,4.132 C 6,3.846 6.055,3.544 6.223,3.291 C 6.543,2.804 7.022,1.855 7.288,1.287 C 6.881,1.443 6.231,1.665 5.813,1.665 C 4.99,1.665 4.519,1.158 4.519,0.268 L 4.519,0.196 L 4.569,0.151 C 4.822,-0.084 5.478,-0.418 6.168,-0.029 C 6.549,0.188 6.775,0 6.99,-0.237 L 7.044,-0.292 C 7.072,-0.32 7.146,-0.449 7.197,-0.641 C 7.022,-1.127 6.491,-1.653 5.633,-1.751 C 4.828,-1.842 3.875,-1.251 3.377,-0.896 C 3.418,-0.883 3.453,-0.858 3.487,-0.831 C 3.596,-0.746 3.724,-0.579 3.724,-0.256 C 3.724,-0.059 3.68,0.06 3.625,0.204 L 3.565,0.423 L 4.496,2.617 C 4.899,2.708 5.203,3.066 5.203,3.498 C 5.203,3.992 4.8,4.397 4.301,4.397 C 3.893,4.397 3.553,4.125 3.44,3.751 C 3.444,4.159 3.553,4.639 3.669,4.942 C 3.794,5.279 4.486,6.246 4.671,6.975 C 4.852,7.705 5,8.818 4.177,9.426 C 3.356,10.041 2.492,9.6 2.156,9.379 C 1.812,9.157 1.577,8.124 1.577,7.512 C 1.577,6.898 1.944,5.476 2.117,5.044 C 2.288,4.615 2.492,3.732 2.492,3.156 C 2.492,2.58 2.165,1.95 2.165,1.95 L 1.883,1.725 C 1.868,1.726 1.852,1.729 1.834,1.732 C 1.861,1.924 1.944,2.64 1.944,3.364 C 1.944,4.211 1.531,5.239 0.954,6.102 C 0.653,6.558 0.549,6.909 0.521,7.138 L 0.04,6.813 L 0.179,7.192 C 0.188,7.214 0.193,7.25 0.196,7.281 C -0.094,6.926 -0.503,6.856 -0.51,6.853 C -0.51,6.853 -0.697,6.825 -0.713,6.823 C -0.726,6.809 -0.735,6.789 -0.735,6.789 C -1.091,6.225 -2.032,5.692 -2.074,5.671 L -2.377,5.5 L -2.259,5.827 C -2.169,6.069 -2.094,6.376 -2.021,7.087 C -2.003,7.23 -1.978,7.359 -1.947,7.485 C -2.188,7.248 -2.335,7.167 -2.35,7.159 L -2.424,7.121 L -3.213,6.24 L -3.204,6.24 C -3.204,6.24 -3.246,6.196 -3.307,6.135 L -3.357,6.078 L -3.36,6.082 C -3.544,5.886 -3.85,5.569 -3.951,5.467 C -4.1,5.319 -4.225,5.377 -4.225,5.377 C -4.434,5.614 -4.787,5.687 -4.787,5.687 C -5.519,5.744 -5.844,5.001 -5.844,5.001 C -5.6,5.244 -5.228,5.084 -5.228,5.084 C -5.807,4.948 -5.747,4.187 -5.747,4.187 C -5.554,4.563 -5.272,4.549 -5.272,4.549 L -5.257,4.537 C -5.082,4.357 -4.916,4.46 -4.916,4.46 C -5.069,4.303 -5.101,4.087 -5.088,3.894 C -5.165,3.762 -5.212,3.613 -5.212,3.456 C -5.212,3.023 -4.904,2.664 -4.506,2.574 C -4.366,2.256 -3.875,1.134 -3.597,0.494 L -3.656,0.283 C -3.72,0.085 -3.77,-0.073 -3.77,-0.267 C -3.77,-0.721 -3.357,-0.917 -3.135,-0.956 L -4.354,-3.021 C -3.902,-3.232 -3.529,-3.122 -3.529,-3.122 L 0.806,-2.334 C 0.85,-1.431 0.846,-0.638 0.846,-0.621 L 0.855,-0.423 C 1.102,-0.449 1.332,-0.479 1.535,-0.513 L 2.062,-0.615 C 2.415,-0.702 2.678,-0.788 2.848,-0.85 L 5.142,-2.774 L 6.543,-2.603 L 6.984,-2.447 C 7.006,-2.435 9.388,-1.587 10.847,-1.955 C 10.865,-1.955 11.509,-2.068 11.832,-2.191 C 12.256,-2.348 12.697,-2.3 13.111,-2.052 L 13.968,-1.48 L 13.836,-1.346 C 13.836,-1.346 13.345,-0.783 13.334,-0.774 C 13.287,-0.681 13.058,-0.366 12.405,-0.44 C 11.955,-0.492 11.409,-0.501 10.693,-0.501 C 11.31,-0.282 12.035,-0.057 12.35,-0.057 C 12.981,-0.057 13.521,0.144 13.887,0.507"
               id="path203"
               style="fill:#b4975a;fill-opacity:1;fill-rule:nonzero;stroke:none" />
          </g>
          <g
             transform="translate(664.0415,566.9705)"
             id="g205">
            <path
               d="M 0,0 L 2.236,-4.622 C 2.236,-4.622 2.514,-5.25 2.048,-6.609 C 2.048,-6.609 0.844,-5.727 0.669,-4.876 L 0.195,-2.7 C 0.195,-2.7 0.248,-0.757 0,0"
               id="path207"
               style="fill:#b4975a;fill-opacity:1;fill-rule:nonzero;stroke:none" />
          </g>
          <g
             transform="translate(695.8395,547.9015)"
             id="g209">
            <path
               d="M 0,0 C 0,-2.69 -1.602,-4.112 -4.372,-4.112 C -7.237,-4.112 -8.933,-2.84 -8.933,0 L -8.933,6.811 L -7.455,6.811 L -7.455,0 C -7.455,-1.884 -6.335,-2.915 -4.372,-2.915 C -2.506,-2.915 -1.475,-1.884 -1.475,0 L -1.475,6.811 L 0,6.811 L 0,0 z"
               id="path211"
               style="fill:#003e7e;fill-opacity:1;fill-rule:nonzero;stroke:none" />
          </g>
          <g
             transform="translate(696.7449,551.7715)"
             id="g213">
            <path
               d="M 0,0 L 1.243,0 L 1.243,-1.229 L 1.274,-1.229 C 1.833,-0.27 2.738,0.175 3.888,0.175 C 6.005,0.175 6.658,-0.989 6.658,-2.646 L 6.658,-7.726 L 5.336,-7.726 L 5.336,-2.496 C 5.336,-1.554 4.713,-0.945 3.701,-0.945 C 2.098,-0.945 1.323,-1.975 1.323,-3.363 L 1.323,-7.726 L 0,-7.726 L 0,0 z"
               id="path215"
               style="fill:#003e7e;fill-opacity:1;fill-rule:nonzero;stroke:none" />
          </g>
        </g>
      </g>
      <path
         d="M 275.05387,152.0701 L 276.70887,152.0701 L 276.70887,161.7276 L 275.05387,161.7276 L 275.05387,152.0701 z M 276.70887,150.33635 L 275.05387,150.33635 L 275.05387,148.39635 L 276.70887,148.39635 L 276.70887,150.33635 z"
         id="path217"
         style="fill:#003e7e;fill-opacity:1;fill-rule:nonzero;stroke:none" />
      <g
         transform="matrix(1.25,0,0,-1.25,283.03362,161.7276)"
         id="g219">
        <path
           d="M 0,0 L -1.419,0 L -4.409,7.726 L -2.929,7.726 L -0.672,1.282 L -0.641,1.282 L 1.554,7.726 L 2.941,7.726 L 0,0 z"
           id="path221"
           style="fill:#003e7e;fill-opacity:1;fill-rule:nonzero;stroke:none" />
      </g>
      <g
         transform="matrix(1.25,0,0,-1.25,-605.62113,841.7851)"
         id="g223">
        <g
           clip-path="url(#clipPath227)"
           id="g225">
          <g
             transform="translate(719.7327,548.6486)"
             id="g231">
            <path
               d="M 0,0 C -0.064,1.208 -1.014,2.177 -2.319,2.177 C -3.706,2.177 -4.531,1.177 -4.624,0 L 0,0 z M 1.274,-2.153 C 0.916,-3.858 -0.361,-4.782 -2.165,-4.782 C -4.734,-4.782 -5.947,-3.08 -6.025,-0.719 C -6.025,1.597 -4.436,3.298 -2.243,3.298 C 0.604,3.298 1.476,0.747 1.398,-1.121 L -4.624,-1.121 C -4.671,-2.465 -3.877,-3.662 -2.117,-3.662 C -1.028,-3.662 -0.268,-3.153 -0.034,-2.153 L 1.274,-2.153 z"
               id="path233"
               style="fill:#003e7e;fill-opacity:1;fill-rule:nonzero;stroke:none" />
          </g>
          <g
             transform="translate(722.1431,551.7715)"
             id="g235">
            <path
               d="M 0,0 L 1.246,0 L 1.246,-1.631 L 1.276,-1.631 C 1.913,-0.39 2.801,0.223 4.234,0.175 L 4.234,-1.167 C 2.101,-1.167 1.321,-2.333 1.321,-4.291 L 1.321,-7.726 L 0,-7.726 L 0,0 z"
               id="path237"
               style="fill:#003e7e;fill-opacity:1;fill-rule:nonzero;stroke:none" />
          </g>
          <g
             transform="translate(728.1812,546.4805)"
             id="g239">
            <path
               d="M 0,0 C 0.047,-1.135 1.074,-1.494 2.164,-1.494 C 2.99,-1.494 4.111,-1.314 4.111,-0.345 C 4.111,0.642 2.802,0.807 1.477,1.091 C 0.171,1.374 -1.153,1.793 -1.153,3.272 C -1.153,4.826 0.452,5.466 1.852,5.466 C 3.627,5.466 5.043,4.932 5.152,3.048 L 3.828,3.048 C 3.736,4.034 2.833,4.346 1.961,4.346 C 1.169,4.346 0.251,4.139 0.251,3.363 C 0.251,2.451 1.649,2.301 2.88,2.018 C 4.202,1.733 5.511,1.314 5.511,-0.18 C 5.511,-2.017 3.72,-2.614 2.087,-2.614 C 0.28,-2.614 -1.245,-1.914 -1.321,0 L 0,0 z"
               id="path241"
               style="fill:#003e7e;fill-opacity:1;fill-rule:nonzero;stroke:none" />
          </g>
        </g>
      </g>
      <path
         d="M 312.64012,152.0701 L 314.29387,152.0701 L 314.29387,161.7276 L 312.64012,161.7276 L 312.64012,152.0701 z M 314.29387,150.33635 L 312.64012,150.33635 L 312.64012,148.39635 L 314.29387,148.39635 L 314.29387,150.33635 z"
         id="path243"
         style="fill:#003e7e;fill-opacity:1;fill-rule:nonzero;stroke:none" />
      <g
         transform="matrix(1.25,0,0,-1.25,-605.62113,841.7851)"
         id="g245">
        <g
           clip-path="url(#clipPath249)"
           id="g247">
          <g
             transform="translate(739.5117,551.7715)"
             id="g253">
            <path
               d="M 0,0 L 1.603,0 L 1.603,-1.121 L 0,-1.121 L 0,-5.919 C 0,-6.501 0.171,-6.605 0.995,-6.605 L 1.603,-6.605 L 1.603,-7.726 L 0.592,-7.726 C -0.778,-7.726 -1.322,-7.458 -1.322,-6.038 L -1.322,-1.121 L -2.694,-1.121 L -2.694,0 L -1.322,0 L -1.322,2.316 L 0,2.316 L 0,0 z"
               id="path255"
               style="fill:#003e7e;fill-opacity:1;fill-rule:nonzero;stroke:none" />
          </g>
          <g
             transform="translate(746.0486,543.0125)"
             id="g257">
            <path
               d="M 0,0 C -0.609,-1.507 -1.153,-2.06 -2.337,-2.06 C -2.647,-2.06 -2.958,-2.031 -3.253,-1.924 L -3.253,-0.76 C -3.003,-0.835 -2.74,-0.939 -2.475,-0.939 C -1.93,-0.939 -1.635,-0.687 -1.384,-0.235 L -0.841,1.077 L -4.031,8.759 L -2.539,8.759 L -0.185,2.438 L -0.157,2.438 L 2.101,8.759 L 3.502,8.759 L 0,0 z"
               id="path259"
               style="fill:#003e7e;fill-opacity:1;fill-rule:nonzero;stroke:none" />
          </g>
          <g
             transform="translate(698.1313,567.8434)"
             id="g261">
            <path
               d="M 0,0 L 1.247,0 L 1.247,-1.275 L 1.28,-1.275 C 1.837,-0.28 2.739,0.186 3.891,0.186 C 6.009,0.186 6.662,-1.028 6.662,-2.754 L 6.662,-8.048 L 5.339,-8.048 L 5.339,-2.598 C 5.339,-1.619 4.715,-0.981 3.705,-0.981 C 2.102,-0.981 1.324,-2.054 1.324,-3.501 L 1.324,-8.048 L 0,-8.048 L 0,0 z"
               id="path263"
               style="fill:#003e7e;fill-opacity:1;fill-rule:nonzero;stroke:none" />
          </g>
          <g
             transform="translate(711.799,563.9822)"
             id="g265">
            <path
               d="M 0,0 C 0,1.419 -0.622,2.88 -2.29,2.88 C -3.984,2.88 -4.669,1.496 -4.669,-0.045 C -4.669,-1.492 -4.141,-3.111 -2.398,-3.111 C -0.655,-3.111 0,-1.509 0,0 M 1.307,-3.501 C 1.307,-6.115 0.108,-7.453 -2.429,-7.453 C -3.938,-7.453 -5.681,-6.847 -5.759,-5.086 L -4.436,-5.086 C -4.372,-6.052 -3.223,-6.394 -2.353,-6.394 C -0.622,-6.394 0.062,-5.149 0.062,-3.345 L 0.062,-2.817 L 0.031,-2.817 C -0.406,-3.796 -1.463,-4.28 -2.478,-4.28 C -4.872,-4.28 -6.069,-2.394 -6.069,-0.201 C -6.069,1.698 -5.134,4.047 -2.353,4.047 C -1.341,4.047 -0.437,3.595 0.043,2.709 L 0.062,2.709 L 0.062,3.861 L 1.307,3.861 L 1.307,-3.501 z"
               id="path267"
               style="fill:#003e7e;fill-opacity:1;fill-rule:nonzero;stroke:none" />
          </g>
        </g>
      </g>
      <path
         d="M 289.22262,128.1501 L 287.56887,128.1501 L 287.56887,142.0401 L 289.22262,142.0401 L 289.22262,128.1501 z"
         id="path269"
         style="fill:#003e7e;fill-opacity:1;fill-rule:nonzero;stroke:none" />
      <path
         d="M 290.72137,131.98135 L 292.37387,131.98135 L 292.37387,142.0426 L 290.72137,142.0426 L 290.72137,131.98135 z M 292.37387,130.17135 L 290.72137,130.17135 L 290.72137,128.1501 L 292.37387,128.1501 L 292.37387,130.17135 z"
         id="path271"
         style="fill:#003e7e;fill-opacity:1;fill-rule:nonzero;stroke:none" />
      <g
         transform="matrix(1.25,0,0,-1.25,-605.62113,841.7851)"
         id="g273">
        <g
           clip-path="url(#clipPath277)"
           id="g275">
          <g
             transform="translate(724.8083,563.9521)"
             id="g281">
            <path
               d="M 0,0 C -0.513,-0.373 -1.509,-0.388 -2.394,-0.544 C -3.267,-0.7 -4.016,-1.011 -4.016,-1.991 C -4.016,-2.863 -3.267,-3.174 -2.459,-3.174 C -0.718,-3.174 0,-2.084 0,-1.354 L 0,0 z M 2.148,-4.125 C 1.917,-4.264 1.619,-4.343 1.198,-4.343 C 0.513,-4.343 0.078,-3.969 0.078,-3.097 C -0.655,-3.952 -1.634,-4.343 -2.754,-4.343 C -4.218,-4.343 -5.418,-3.688 -5.418,-2.084 C -5.418,-0.264 -4.063,0.125 -2.691,0.39 C -1.229,0.671 0.015,0.578 0.015,1.574 C 0.015,2.725 -0.935,2.91 -1.772,2.91 C -2.894,2.91 -3.721,2.57 -3.782,1.386 L -5.106,1.386 C -5.028,3.377 -3.487,4.077 -1.695,4.077 C -0.25,4.077 1.322,3.75 1.322,1.868 L 1.322,-2.272 C 1.322,-2.895 1.322,-3.174 1.744,-3.174 C 1.854,-3.174 1.978,-3.159 2.148,-3.097 L 2.148,-4.125 z"
               id="path283"
               style="fill:#003e7e;fill-opacity:1;fill-rule:nonzero;stroke:none" />
          </g>
          <g
             transform="translate(735.4241,565.7897)"
             id="g285">
            <path
               d="M 0,0 C 1.384,0 2.568,0.357 2.568,1.975 C 2.568,3.065 1.975,3.875 0.591,3.875 L -3.084,3.875 L -3.084,0 L 0,0 z M -4.56,5.118 L 0.668,5.118 C 2.755,5.118 4.044,3.984 4.044,2.21 C 4.044,0.87 3.453,-0.234 2.116,-0.607 L 2.116,-0.637 C 3.406,-0.886 3.672,-1.838 3.781,-2.927 C 3.875,-4.015 3.812,-5.229 4.435,-5.994 L 2.785,-5.994 C 2.366,-5.541 2.598,-4.344 2.381,-3.253 C 2.225,-2.164 1.959,-1.247 0.527,-1.247 L -3.084,-1.247 L -3.084,-5.994 L -4.56,-5.994 L -4.56,5.118 z"
               id="path287"
               style="fill:#003e7e;fill-opacity:1;fill-rule:nonzero;stroke:none" />
          </g>
          <g
             transform="translate(747.0308,559.7957)"
             id="g289">
            <path
               d="M 0,0 L -1.241,0 L -1.241,1.278 L -1.272,1.278 C -1.834,0.281 -2.738,-0.186 -3.888,-0.186 C -6.006,-0.186 -6.659,1.028 -6.659,2.756 L -6.659,8.048 L -5.336,8.048 L -5.336,2.602 C -5.336,1.62 -4.713,0.983 -3.701,0.983 C -2.098,0.983 -1.319,2.055 -1.319,3.502 L -1.319,8.048 L 0,8.048 L 0,0 z"
               id="path291"
               style="fill:#003e7e;fill-opacity:1;fill-rule:nonzero;stroke:none" />
          </g>
          <g
             transform="translate(749.2119,562.3342)"
             id="g293">
            <path
               d="M 0,0 C 0.047,-1.182 1.077,-1.556 2.164,-1.556 C 2.987,-1.556 4.108,-1.37 4.108,-0.359 C 4.108,0.669 2.802,0.839 1.478,1.135 C 0.171,1.43 -1.151,1.865 -1.151,3.409 C -1.151,5.026 0.453,5.695 1.853,5.695 C 3.625,5.695 5.043,5.136 5.153,3.174 L 3.829,3.174 C 3.737,4.203 2.834,4.528 1.963,4.528 C 1.168,4.528 0.25,4.313 0.25,3.502 C 0.25,2.551 1.651,2.396 2.878,2.101 C 4.204,1.805 5.511,1.369 5.511,-0.186 C 5.511,-2.102 3.719,-2.725 2.087,-2.725 C 0.281,-2.725 -1.244,-1.992 -1.323,0 L 0,0 z"
               id="path295"
               style="fill:#003e7e;fill-opacity:1;fill-rule:nonzero;stroke:none" />
          </g>
        </g>
      </g>
      <g
         transform="matrix(1.25,0,0,-1.25,338.9275,128.1501)"
         id="g297">
        <path
           d="M 0,0 L 1.323,0 L 1.323,-6.582 L 4.997,-3.065 L 6.773,-3.065 L 3.582,-5.991 L 7.004,-11.112 L 5.323,-11.112 L 2.569,-6.909 L 1.323,-8.061 L 1.323,-11.112 L 0,-11.112 L 0,0 z"
           id="path299"
           style="fill:#003e7e;fill-opacity:1;fill-rule:nonzero;stroke:none" />
      </g>
      <path
         d="M 348.63512,131.98135 L 350.29262,131.98135 L 350.29262,142.0426 L 348.63512,142.0426 L 348.63512,131.98135 z M 350.29137,130.17135 L 348.63387,130.17135 L 348.63387,128.1501 L 350.29137,128.1501 L 350.29137,130.17135 z"
         id="path301"
         style="fill:#003e7e;fill-opacity:1;fill-rule:nonzero;stroke:none" />
      <g
         transform="matrix(1.25,0,0,-1.25,-605.62113,841.7851)"
         id="g303">
        <g
           clip-path="url(#clipPath307)"
           id="g305">
          <g
             transform="translate(765.8518,567.8434)"
             id="g311">
            <path
               d="M 0,0 L 1.241,0 L 1.241,-1.275 L 1.274,-1.275 C 1.835,-0.28 2.736,0.186 3.891,0.186 C 6.007,0.186 6.659,-1.028 6.659,-2.754 L 6.659,-8.048 L 5.336,-8.048 L 5.336,-2.598 C 5.336,-1.619 4.713,-0.981 3.701,-0.981 C 2.098,-0.981 1.323,-2.054 1.323,-3.501 L 1.323,-8.048 L 0,-8.048 L 0,0 z"
               id="path313"
               style="fill:#003e7e;fill-opacity:1;fill-rule:nonzero;stroke:none" />
          </g>
        </g>
      </g>
      <g
         transform="matrix(1.25,0,0,-1.25,261.81087,136.30123)"
         id="g315">
        <path
           d="M 0,0 L -1.853,5.184 L -3.765,0 L 0,0 z M -7.003,-4.591 L -1.834,8.616 L 3.316,-4.591 L 1.679,-4.591 L 0.469,-1.243 L -4.234,-1.243 L -5.479,-4.591 L -7.003,-4.591 z"
           id="path317"
           style="fill:#003e7e;fill-opacity:1;fill-rule:nonzero;stroke:none" />
      </g>
    </g>
  </g>
</svg>
