<svg enable-background="new -0.5 -0.7 38 19" height="223.606798" viewBox="-.5 -.7 38 19" width="447.213595" xmlns="http://www.w3.org/2000/svg"><g fill="#f58423"><path d="m8.668 17.938 4.94-4.935c.146-.148.146-.395 0-.54l-3.885-3.892c-.153-.147-.394-.147-.54 0l-8.833 8.827c-.24.246-.071.651.27.651h7.778c.103.001.2-.039.27-.111z"/><path d="m.359 16.28 12.084-12.092c.146-.146.146-.387 0-.54l-3.887-3.886c-.146-.146-.393-.146-.54 0l-8.206 8.196c-.071.071-.112.167-.112.27v7.775c.004.347.416.52.661.277z"/><path d="m-.301-.064v6.11c0 .335.412.51.652.27l6.109-6.109c.247-.245.072-.657-.269-.657h-6.112c-.213 0-.38.173-.38.386z"/></g><path d="m18.608 9.522v.176c0 .157.094.25.258.25h1.171v3.409c0 .163.084.257.254.257h.268c.173 0 .266-.094.266-.257v-3.409h1.166c.166 0 .25-.093.25-.25v-.176c0-.16-.084-.258-.25-.258h-3.121c-.168 0-.262.098-.262.258m-1.006 2.938c0 .293-.243.489-.648.489-.423 0-.738-.219-.88-.309-.15-.094-.256-.077-.356.049l-.131.201c-.123.157-.06.266.035.356.216.158.717.438 1.334.438.912 0 1.437-.581 1.437-1.287 0-1.376-2.021-1.177-2.021-1.983 0-.292.256-.493.657-.493.338 0 .575.137.752.242.129.068.262.086.352-.092l.109-.196c.073-.137.049-.25-.076-.353-.188-.136-.607-.327-1.123-.327-.826 0-1.462.5-1.462 1.261-.001 1.343 2.021 1.178 2.021 2.004m.43-5.334c0 .365-.229.63-.63.63h-.845v-1.254h.845c.397-.002.63.263.63.624m-.171-1.824c0 .316-.19.556-.534.556h-.771v-1.095h.752c.373.008.553.232.553.539m.279.845v-.009c.327-.177.528-.522.528-.932 0-.717-.566-1.118-1.352-1.118h-1.295c-.163 0-.245.09-.245.256v3.829c0 .174.082.262.245.262h1.318c.803 0 1.492-.393 1.492-1.264.014-.438-.22-.881-.691-1.024m3.382-.711c0 .422-.261.689-.687.689h-.711v-1.354h.593c.225 0 .364.021.468.073.229.096.337.315.337.592m.933 2.688-.717-1.312c-.082-.154-.143-.224-.143-.224v-.012c.459-.184.72-.671.72-1.188 0-.583-.274-1.002-.726-1.186-.182-.076-.396-.114-.824-.114h-1.167c-.17 0-.25.09-.25.256v3.829c0 .174.08.262.25.262h.272c.168 0 .25-.087.25-.262v-1.365h.769l.761 1.447c.069.118.155.171.297.171h.328c.208.002.284-.123.18-.302m2.543 1.14h-2.09c-.168 0-.252.088-.252.258v3.835c0 .163.084.257.252.257h2.19c.159 0 .256-.094.256-.257v-.175c0-.169-.095-.25-.256-.25h-1.668v-1.176h1.216c.168 0 .258-.081.258-.256v-.174c0-.158-.087-.251-.258-.251h-1.216v-1.13h1.565c.172 0 .258-.093.258-.252v-.175c-.001-.156-.085-.254-.255-.254m-1.158-1.088v-3.83c0-.164-.092-.256-.25-.256h-.284c-.169 0-.25.09-.25.256v3.829c0 .174.081.262.25.262h.284c.158-.009.25-.091.25-.261m3.974-3.656v-.174c0-.164-.083-.256-.25-.256h-3.109c-.176 0-.269.09-.269.256v.174c0 .164.093.251.269.251h1.162v3.403c0 .174.092.262.252.262h.277c.174 0 .255-.087.255-.262v-3.403h1.177c.153 0 .236-.088.236-.251m.344 4.744h-2.09c-.17 0-.253.088-.253.258v3.835c0 .163.083.257.253.257h2.18c.17 0 .268-.094.268-.257v-.175c0-.169-.096-.25-.268-.25h-1.656v-1.176h1.216c.168 0 .256-.081.256-.256v-.174c0-.158-.084-.251-.256-.251h-1.216v-1.13h1.566c.158 0 .256-.093.256-.252v-.175c0-.156-.097-.254-.256-.254m.797-1.088v-3.83c0-.164-.084-.256-.252-.256h-.283c-.157 0-.25.09-.25.256v3.829c0 .174.093.262.25.262h.283c.168-.009.252-.091.252-.261m.61 1.088h-.284c-.154 0-.248.088-.248.258v3.835c0 .163.094.257.248.257h2.155c.174 0 .256-.094.256-.257v-.175c0-.169-.082-.25-.256-.25h-1.619v-3.41c.003-.16-.077-.258-.252-.258m.798-4.033c0-.292.256-.487.668-.487.332 0 .573.137.752.243.123.063.256.09.34-.088l.109-.207c.073-.131.059-.245-.076-.346-.184-.131-.609-.327-1.119-.327-.824 0-1.465.493-1.465 1.26 0 1.352 2.03 1.183 2.03 2.009 0 .292-.247.493-.659.493-.418 0-.732-.219-.876-.314-.147-.086-.255-.081-.354.055l-.137.196c-.117.163-.056.27.034.352.216.163.782.443 1.397.443.918 0 1.371-.586 1.371-1.281.018-1.392-2.015-1.182-2.015-2.001m6.139 2.945v-3.83c0-.164-.082-.256-.25-.256h-.276c-.166 0-.257.09-.257.256v1.584h-1.987v-1.584c0-.164-.093-.256-.251-.256h-.283c-.17 0-.25.09-.25.256v3.829c0 .174.08.262.25.262h.283c.158 0 .251-.087.251-.262v-1.563h1.983v1.563c0 .174.093.262.257.262h.276c.172-.009.254-.091.254-.261" fill="#253746"/></svg>