<?xml version="1.0" encoding="utf-8"?>
<!-- Generator: Adobe Illustrator 25.4.1, SVG Export Plug-In . SVG Version: 6.00 Build 0)  -->
<svg version="1.1"
	 id="svg5196" inkscape:version="0.47 r22583" sodipodi:docname="Neues Dokument 3" xmlns:cc="http://creativecommons.org/ns#" xmlns:dc="http://purl.org/dc/elements/1.1/" xmlns:inkscape="http://www.inkscape.org/namespaces/inkscape" xmlns:rdf="http://www.w3.org/1999/02/22-rdf-syntax-ns#" xmlns:sodipodi="http://sodipodi.sourceforge.net/DTD/sodipodi-0.dtd" xmlns:svg="http://www.w3.org/2000/svg"
	 xmlns="http://www.w3.org/2000/svg" xmlns:xlink="http://www.w3.org/1999/xlink" x="0px" y="0px" viewBox="0 0 379 126"
	 style="enable-background:new 0 0 379 126;" xml:space="preserve">
<style type="text/css">
	.st0{fill-rule:evenodd;clip-rule:evenodd;fill:#094270;}
	.st1{fill:#094270;}
	.st2{fill-rule:evenodd;clip-rule:evenodd;fill:#EC0B62;}
	.st3{fill:#FFFFFF;}
</style>
<defs>
	
		<inkscape:perspective  id="perspective5204" inkscape:persp3d-origin="372.04724 : 350.78739 : 1" inkscape:vp_x="0 : 526.18109 : 1" inkscape:vp_y="0 : 1000 : 0" inkscape:vp_z="744.09448 : 526.18109 : 1" sodipodi:type="inkscape:persp3d">
		</inkscape:perspective>
	
		<inkscape:perspective  id="perspective5164" inkscape:persp3d-origin="0.5 : 0.33333333 : 1" inkscape:vp_x="0 : 0.5 : 1" inkscape:vp_y="0 : 1000 : 0" inkscape:vp_z="1 : 0.5 : 1" sodipodi:type="inkscape:persp3d">
		</inkscape:perspective>
</defs>
<sodipodi:namedview  bordercolor="#666666" borderopacity="1.0" id="base" inkscape:current-layer="layer1" inkscape:cx="439.4909" inkscape:cy="24.561797" inkscape:document-units="px" inkscape:pageopacity="0.0" inkscape:pageshadow="2" inkscape:window-height="838" inkscape:window-maximized="1" inkscape:window-width="1440" inkscape:window-x="-8" inkscape:window-y="-8" inkscape:zoom="0.35" pagecolor="#ffffff" showgrid="false">
	</sodipodi:namedview>
<g id="layer1" transform="translate(89.490905,-430.92812)" inkscape:groupmode="layer" inkscape:label="Ebene 1">
	<path id="path1082" class="st0" d="M-33,477.2c0,7.1,4.7,15.5,15.7,15.5c9.7,0,16.1-7.3,16.1-16.1c0-9.2-6.9-14.8-15.9-14.8
		C-28.2,461.8-33,470.9-33,477.2z M-29,476.1c0-8.6,4.9-13,11.6-13c6.3,0,12.1,5.1,12.1,14.5c0,11.5-7.4,13.5-11,13.5
		C-23.5,491.2-29,485.3-29,476.1"/>
	<path id="path1084" class="st1" d="M6,462.4h18.9l0,4.9h-0.6c-0.1-0.4-0.2-1.1-0.2-1.4c-0.4-1.5-1.3-1.8-4.9-1.9l-4.6-0.1v16.8
		c0,4,0,7.2,0.2,8.5c0.1,1.1,0.4,2,1.6,2.2c0.5,0.1,1.1,0.1,1.6,0.2c0,0.2,0,0.4,0,0.5c-2.2,0-9,0-10.2,0c0-0.2,0-0.4,0-0.5
		c0.4,0,1.1-0.1,1.6-0.2c0.9-0.2,1.3-0.8,1.4-2.1c0.2-1.5,0.2-4.6,0.2-8.5V464L5.1,464c-2.8,0-3.5,0.4-4.1,1.3
		c-0.3,0.5-0.7,1.2-0.9,1.6c0,0-0.5,0-0.5,0l1.4-5.2C2,462.1,4.1,462.4,6,462.4"/>
	<path id="path1086" class="st1" d="M200.8,479.1l-4.2-11.8l-3.9,11.8H200.8z M189.8,487.5c-0.5,1.4-0.7,2.4-0.7,2.9
		c0,0.9,0.6,1.2,2,1.2v0.5h-8.2v-0.5c0.2,0,0.6,0,1-0.1c1.7-0.2,2.6-1.5,3.4-3.7c0.9-2.3,8.3-22.2,9.7-26h0.9
		c1.1,2.8,7.7,19.6,9.9,25.2c1,2.5,2,4,3.5,4.4c0.5,0.1,1,0.2,1.4,0.2v0.5h-9.7v-0.5c1.6-0.1,2.1-0.6,2.1-1.3c0-0.3-0.1-0.6-0.2-0.9
		l-3.4-8.8h-9.2C191.8,481.7,190.3,485.9,189.8,487.5"/>
	<path id="path1088" class="st1" d="M154.5,474.9v-1.1c0-6.2,0-7.3,0.1-8.6c0.1-1.4,0.5-2.1,1.5-2.3c0.3,0,0.8-0.1,1.1-0.1v-0.6
		h-9.5v0.5c0.5,0,1.1,0,1.5,0.1c1.2,0.3,1.6,0.9,1.6,2.3c0.1,1.1,0.1,2.2,0.1,8.6v6.8c0,3.8,0,6.9-0.2,8.6c-0.2,1.5-0.4,2-1.3,2.2
		c-0.4,0.1-1,0.1-1.3,0.1v0.6h9.7v-0.6c-0.3,0-0.9-0.1-1.5-0.2c-1-0.1-1.4-0.6-1.6-2.2c-0.1-1.3-0.2-4.5-0.2-8.6v-4.2h17.4v4.3
		c0,2.4,0,7-0.2,8.6c-0.2,1.3-0.6,2-1.5,2.2c-0.4,0.1-0.8,0.1-1.2,0.1v0.6h9.7v-0.6c-0.4,0-1-0.1-1.5-0.2c-1.1-0.2-1.4-0.8-1.5-2.2
		c-0.2-1.7-0.2-4.7-0.2-8.5v-6.9c0-6.3,0-7.4,0.1-8.6c0.1-1.6,0.7-2.1,1.5-2.3c0.4-0.1,0.9-0.1,1.1-0.1v-0.5h-9.2v0.5
		c0.3,0,0.9,0.1,1.2,0.1c1.3,0.3,1.7,0.9,1.7,2.3c0.1,1.3,0.1,2.4,0.1,8.6v1.1L154.5,474.9"/>
	<path id="path1090" class="st1" d="M255.2,491.6v0.5h-10.1v-0.5c2.1-0.1,2.4-0.9,2.4-1.9c0-1.4-0.8-20.2-0.8-20.2l-12,22.6l-0.7,0
		l-12.2-22.4c0,1.7-0.5,17.3-0.5,18.5c0,0.7,0,1.3,0,1.9c0,0.7,0.4,1,1,1.2c0.5,0.1,1.1,0.2,1.6,0.2v0.5h-8c0,0,0-0.4,0-0.5
		c0.5,0,0.9,0,1.3-0.1c1.1-0.2,1.5-1.3,1.6-3.3c0.1-1.1,1.2-21.3,1.5-25.8h1.4l13.4,24.7l12.9-24.7h1.4c0,0,1.3,22.8,1.4,24.7
		c0.2,2.6,0.8,3.8,2.2,4.2C253.7,491.5,254.4,491.6,255.2,491.6"/>
	<path id="path1092" class="st1" d="M-37.6,462.4v0.6c-0.3,0-0.9,0-1.2,0.1c-1.1,0.3-1.4,1-1.4,3.5l0,25.9c0,0-1.1,0-1.4,0
		c-2.9-3.1-9.7-10.3-12.5-13.2c-2.8-3-7.4-8.1-10.4-11.5l0.5,19c0.1,3.6,0.6,4.3,1.6,4.6c0.6,0.2,1.3,0.2,1.8,0.2v0.5h-8.9v-0.5
		c0.5,0,1.2-0.1,1.7-0.2c0.9-0.3,1.2-0.9,1.2-5l0-24.3h1.5c4,4.3,8.7,9.6,13.3,14.4c2.8,3,6.5,7.1,9.6,10.4l-0.4-20
		c0-2.8-0.4-3.5-1.6-3.7c-0.5-0.1-1.3-0.2-1.8-0.2v-0.6L-37.6,462.4"/>
	<path id="path1094" class="st1" d="M107.4,462.4v0.6c-0.3,0-0.9,0-1.2,0.1c-1.1,0.3-1.4,1-1.4,3.5l0,25.9c0,0-1.1,0-1.4,0
		c-2.9-3.1-9.7-10.3-12.5-13.2c-2.8-3-7.4-8.1-10.4-11.5l0.5,19c0.1,3.6,0.6,4.3,1.6,4.6c0.6,0.2,1.3,0.2,1.8,0.2v0.5h-8.9v-0.5
		c0.5,0,1.2-0.1,1.7-0.2c0.9-0.3,1.2-0.9,1.2-5l0-24.3h1.5c4,4.3,8.7,9.6,13.3,14.4c2.8,3,6.5,7.1,9.6,10.4l-0.4-20
		c0-2.8-0.4-3.5-1.6-3.7c-0.5-0.1-1.3-0.2-1.8-0.2v-0.6L107.4,462.4"/>
	<path id="path1096" class="st0" d="M65.3,480.7c0,4.3,0.1,7.5,0.2,8.6c0.1,0.9,0.3,1.5,0.7,1.7c0.5,0.4,1.4,0.5,2.7,0.5v0.5H58.3
		v-0.5c0.4,0,1.4-0.1,1.8-0.2c0.8-0.2,1.3-0.7,1.5-2.1c0.2-1.1,0.2-4.3,0.2-8.6v-6.9c0-4.3-0.1-7.5-0.2-8.6
		c-0.1-0.9-0.3-1.5-0.7-1.7c-0.5-0.4-1.4-0.5-2.7-0.5v-0.6h10.6v0.6c-0.4,0-1.4,0.1-1.8,0.2c-0.8,0.2-1.3,0.7-1.5,2.1
		c-0.2,1.1-0.2,4.3-0.2,8.6V480.7"/>
	<path id="path1098" class="st0" d="M136.3,482.1c0-3.2-0.3-3.8-1.7-4.1c-0.3-0.1-0.9-0.1-1.4-0.1v-0.6h9.1v0.6
		c-0.3,0-0.6,0-1.1,0.1c-1,0.2-1.4,0.9-1.5,2.2c-0.1,1.2-0.1,2.3-0.1,4.1v6.2c-1.6,1.1-5.5,2.1-9,2.1c-3.1,0-8.8-0.4-13.3-4.2
		c-2.4-2.1-4.8-6.3-4.8-11.2c0-5.9,2.9-10.6,6.8-13c2.8-1.7,5.8-2.5,10.7-2.5c3.1,0,6.9,0.8,9.6,2v5.8h-0.5
		c-0.8-4.6-4.2-6.4-10.2-6.4c-7,0-12.6,4.3-12.6,12.6c0,5.6,2.7,9.3,4.2,10.9c2.5,2.6,6.8,4.2,10.5,4.2c2.1,0,4.1-0.4,5.4-1.3V482.1
		"/>
	<path id="path1100" class="st1" d="M101.6,506.7c-0.3,0-0.9,0-1.2,0.1c-0.5,0.1-0.9,0.4-0.9,2.2l0,17.7h-1c-1.8-1.8-6.2-6.4-8.7-9
		c-2.4-2.5-5.1-5.4-6.7-7.1l0.3,12.2c0.1,2.2,0.3,2.7,0.9,2.8c0.4,0.1,1,0.2,1.6,0.2v0.7h-6.8v-0.7c0.7,0,1.2,0,1.6-0.2
		c0.5-0.2,0.7-0.6,0.7-3.1l0-16.4h1c2,2.1,6.2,6.4,9.2,9.6c2,2.1,4.4,4.7,6.1,6.5l-0.3-13c0-1.8-0.3-2.1-0.9-2.3
		c-0.3-0.1-1-0.1-1.5-0.1V506h6.5L101.6,506.7L101.6,506.7z M233,506v3.9h-0.6c-0.1-2-0.8-2.4-3.4-2.4c-2.1,0-3.2,0-3.2,0v11.1
		c0,3.1,0,5,0.1,5.7c0.1,0.8,0.4,1.2,1,1.3c0.3,0.1,1,0.1,1.3,0.1v0.7h-7.5v-0.7c0.3,0,1.1-0.1,1.3-0.1c0.6-0.2,0.8-0.6,0.9-1.2
		c0.1-0.7,0.1-2.7,0.1-5.7v-11.1c0,0-2.3,0-3.8,0c-1.7,0-2.2,0.2-2.6,0.8c-0.2,0.3-0.5,1-0.6,1.2h-0.7l1-4.1
		c1.3,0.4,2.7,0.6,3.9,0.6H233L233,506z M255.6,506.7c-0.6,0-1.2,0.1-1.6,0.3c-0.6,0.3-1,0.7-2,2.4c-0.7,1.2-3.7,6.2-4.7,8.1v4.2
		c0,0.4,0,2,0.1,2.7c0.1,1,0.5,1.2,0.9,1.2c0.5,0.1,1.1,0.1,1.4,0.1v0.7h-7.4v-0.7c0.6,0,1.2-0.1,1.5-0.1c0.5-0.1,0.6-0.5,0.7-1.2
		c0.1-0.7,0.1-2.2,0.1-2.7v-4.1c-1.2-2-4.6-7.5-5.4-8.7c-1.5-2.2-2-2.3-3.5-2.3V506h6.9v0.7c-1.1,0-1.4,0.1-1.4,0.4
		c0,0.3,0.2,0.6,0.5,1.2c0.4,0.8,3.7,6.1,4.6,7.7c1-1.8,3.6-6.3,4.1-7.3c0.4-0.7,0.5-1.1,0.5-1.5c0-0.4-0.3-0.5-1.2-0.5V506h5.7
		L255.6,506.7L255.6,506.7z M195.9,525.7c-1.2,0.8-2.7,1.2-4.1,1.2c-1.6,0-3.4-0.5-4.4-1.4v-3.9h0.7c0,0.4,0.1,0.9,0.2,1.4
		c0.4,1.5,1.7,2.4,4.1,2.4c2.5,0,3.5-1.7,3.4-3.3c-0.1-1.7-0.9-2.7-3.3-4.6l-1.3-1c-3.1-2.3-4-4-4-5.9c-0.1-3.2,2.3-5,5.6-5
		c1.5,0,3.3,0.4,4.1,0.9v3.5H196c-0.1-0.7-0.2-1.4-0.5-1.8c-0.6-0.9-1.8-1.3-3.3-1.3c-1.7,0-3.1,1-3,2.9c0,1.4,0.8,2.2,3.5,4.3
		l0.8,0.6c3.4,2.5,4.3,4.2,4.4,6.4C198.1,522.5,197.5,524.5,195.9,525.7L195.9,525.7z M141.2,506.7c-1.1,0-1.3,0.1-1.6,0.2
		c-0.4,0.2-0.7,0.8-1.4,2.4c-0.7,1.8-6.3,15.3-7.2,17.5h-0.8l-7.4-18.1c-0.6-1.4-0.9-1.7-1.7-1.9c-0.2-0.1-0.9-0.1-1.3-0.1V506h7.4
		v0.7c-1.3,0-1.6,0.1-1.6,0.5c0,0.3,0.3,1,0.8,2.3l4.9,12.9c1.6-3.9,4.5-11.5,5.3-13.6c0.3-0.9,0.5-1.4,0.5-1.7
		c0-0.3-0.2-0.4-1.5-0.4V506h5.7V506.7L141.2,506.7z M58.2,524.9c-1.4-1.3-2.4-3.2-2.4-7.2v-3.9c0-4.1,0-4.9-0.1-5.7
		c-0.1-0.9-0.3-1.2-1-1.3c-0.4,0-0.7-0.1-1.2-0.1V506h7v0.7c-0.3,0-0.8,0-1.1,0.1c-0.5,0.1-0.7,0.5-0.8,1.3
		c-0.1,0.9-0.1,1.6-0.1,5.7v3.8c0,3.8,0.9,5.4,2,6.4c1.3,1.2,2.4,1.4,3.9,1.4c1.6,0,3.1-0.7,4.1-1.8c1.2-1.4,1.5-3.6,1.5-6.4v-3.3
		c0-4.1,0-5-0.1-5.7c-0.1-0.8-0.3-1.2-1-1.3c-0.4,0-0.8-0.1-1.2-0.1V506h6.4v0.7c-0.2,0-0.8,0-1.1,0.1c-0.5,0.1-0.8,0.5-0.8,1.3
		c0,0.8-0.1,1.6-0.1,5.7v2.9c0,2.9-0.3,6.2-2.6,8.1c-2,1.8-4.1,2-5.7,2C63,526.9,60.2,526.8,58.2,524.9z M154.7,507.5
		c1.6,0,2,0.3,2,2.2h0.7l0.4-3.6c-3.9,0-12.1,0-13,0c0,0.2,0,0.5,0,0.7c0.4,0,1,0,1.2,0.1c0.7,0.1,1,0.3,1,1.3
		c0.1,0.8,0.1,1.6,0.1,5.7v4.8c0,2.5,0,4.6-0.1,5.7c-0.1,0.7-0.1,1.1-0.8,1.3c-0.2,0.1-0.9,0.1-1.2,0.1v0.7h12.9l0.5-3.7h-0.7
		c-0.2,1-0.6,1.7-1.2,2c-0.5,0.2-1.3,0.3-2.5,0.3c-2.6,0-4-0.3-4.1-2c0-0.6,0-3.6,0-4.5v-2.4h4.5c1.8,0,1.9,0.3,1.9,2h0.8l0.5-5
		h-0.8c-0.2,1.2-0.4,1.5-1.9,1.5h-5v-7.4C150.4,507.4,154.3,507.5,154.7,507.5L154.7,507.5z M209.1,518.7c0,3.1,0,5,0.1,5.7
		c0.1,0.6,0.3,1.1,1,1.3c0.3,0.1,1.1,0.1,1.4,0.1v0.7c0,0-6.7,0-7.6,0c0-0.3,0-0.5,0-0.7c0.3,0,1.2-0.1,1.4-0.1
		c0.5-0.1,0.7-0.5,0.8-1.2c0.1-0.7,0.1-2.7,0.1-5.7v-4.8c0-3.1,0-5-0.1-5.7c-0.1-0.6-0.3-1.1-1-1.3c-0.3-0.1-1.1-0.1-1.4-0.1V506
		c0,0,6.7,0,7.5,0c0,0.3,0,0.4,0,0.7c-0.3,0-1.1,0.1-1.4,0.1c-0.5,0.1-0.7,0.5-0.8,1.2c-0.1,0.7-0.1,2.7-0.1,5.7L209.1,518.7
		L209.1,518.7z M113,518.7c0,3.1,0,5,0.1,5.7c0.1,0.6,0.3,1.1,1,1.3c0.3,0.1,1.1,0.1,1.4,0.1v0.7c0,0-6.7,0-7.6,0c0-0.3,0-0.5,0-0.7
		c0.3,0,1.1-0.1,1.4-0.1c0.5-0.1,0.7-0.5,0.8-1.2c0.1-0.7,0.1-2.7,0.1-5.7v-4.8c0-3.1,0-5-0.1-5.7c-0.1-0.6-0.3-1.1-1-1.3
		c-0.3-0.1-1.1-0.1-1.4-0.1V506c0,0,6.7,0,7.6,0c0,0.3,0,0.4,0,0.7c-0.3,0-1.2,0.1-1.4,0.1c-0.5,0.1-0.7,0.5-0.8,1.2
		c-0.1,0.7-0.1,2.7-0.1,5.7L113,518.7L113,518.7z M170,516.2c0.5,0.3,1.6,0.4,2.8,0.4c0.6,0,1.3-0.1,1.9-0.5
		c0.9-0.6,1.6-1.8,1.6-3.8c0-3.2-1.7-5-4.5-5c-0.8,0-1.6,0.1-1.8,0.1L170,516.2L170,516.2z M170,517.9l0,0.6c0,2.8,0,5,0.1,5.9
		c0.1,0.9,0.4,1.2,0.9,1.3c0.3,0,0.7,0.1,1,0.1v0.7h-6.8v-0.7c0.4,0,0.8,0,1.1-0.1c0.5-0.1,0.8-0.4,0.9-1.3c0.1-1,0.1-3,0.1-5.8
		v-4.8c0-4.3,0-4.9-0.1-5.7c-0.1-0.8-0.3-1.2-1-1.3c-0.3,0-0.7-0.1-1.3-0.1V506h6.9c1.7,0,3.6,0.2,5.1,1.2c0.7,0.5,2,1.8,2,3.8
		c0,2.5-1,4.3-3.2,6.1c1,1.6,3.1,4.9,4.4,6.7c0.7,1.1,1.6,1.6,3.1,1.8c0.4,0.1,0.7,0.1,1.1,0.1v0.7h-5.6c-0.4-0.9-0.9-1.6-1.8-3
		c-1.1-1.8-2.9-4.6-3.4-5.5L170,517.9"/>
	<path id="path1102" class="st1" d="M-52.9,506v3.9h-0.6c-0.1-2-0.8-2.4-3.4-2.4c-2.1,0-3.2,0-3.2,0v11.1c0,3.1,0,5,0.1,5.7
		c0.1,0.8,0.4,1.2,1,1.3c0.3,0.1,1,0.1,1.3,0.1v0.7h-7.6v-0.7c0.3,0,1.1-0.1,1.3-0.1c0.6-0.2,0.8-0.6,0.9-1.2
		c0.1-0.7,0.1-2.7,0.1-5.7v-11.1c0,0-2.3,0-3.8,0c-1.7,0-2.2,0.2-2.6,0.8c-0.2,0.3-0.5,1-0.6,1.2h-0.7l1-4.1
		c1.3,0.4,2.7,0.6,3.9,0.6H-52.9L-52.9,506z M37.5,506v3.9h-0.6c-0.1-2-0.8-2.4-3.4-2.4c-2.1,0-3.2,0-3.2,0v11.1c0,3.1,0,5,0.1,5.7
		c0.1,0.8,0.4,1.2,1,1.3c0.3,0.1,1,0.1,1.3,0.1v0.7h-7.6v-0.7c0.3,0,1.1-0.1,1.3-0.1c0.6-0.2,0.8-0.6,0.9-1.2
		c0.1-0.7,0.1-2.7,0.1-5.7v-11.1c0,0-2.3,0-3.8,0c-1.7,0-2.2,0.2-2.6,0.8c-0.2,0.3-0.5,1-0.6,1.2H20l1-4.1c1.3,0.4,2.7,0.6,3.9,0.6
		C24.9,506,37.5,506,37.5,506z M16,506.7c-0.3,0-0.9,0-1.2,0.1c-0.5,0.1-0.9,0.4-0.9,2.2l0,17.7h-1c-1.8-1.8-6.2-6.4-8.7-9
		c-2.4-2.5-5.1-5.4-6.7-7.1l0.3,12.2c0.1,2.2,0.3,2.7,0.9,2.8c0.4,0.1,1,0.2,1.6,0.2v0.7h-6.8v-0.7c0.7,0,1.2,0,1.6-0.2
		c0.5-0.2,0.7-0.6,0.7-3.1l0-16.4h1c2,2.1,6.2,6.4,9.2,9.6c2,2.1,4.4,4.7,6.1,6.5l-0.3-13c0-1.8-0.2-2.1-0.9-2.3
		c-0.3-0.1-1-0.1-1.5-0.1V506H16L16,506.7L16,506.7z M-16,507.5c1.6,0,2,0.3,2,2.2h0.7l0.4-3.6c-3.1,0-12,0-13,0c0,0.2,0,0.5,0,0.7
		c0.4,0,1,0,1.2,0.1c0.7,0.1,1,0.3,1,1.3c0.1,0.8,0.1,1.6,0.1,5.7v4.8c0,2.5,0,4.6-0.1,5.7c-0.1,0.7-0.1,1.1-0.8,1.3
		c-0.2,0.1-0.9,0.1-1.2,0.1v0.7h12.9l0.5-3.7H-13c-0.2,1-0.6,1.7-1.2,2c-0.6,0.2-1.3,0.3-2.5,0.3c-2.6,0-4-0.3-4.1-2
		c0-0.6,0-3.6,0-4.5v-2.4h4.5c1.8,0,1.9,0.3,1.9,2h0.8l0.5-5H-14c-0.2,1.2-0.4,1.5-1.9,1.5h-5v-7.4C-20.3,507.4-16.4,507.5-16,507.5
		L-16,507.5z M-43.2,516.2c0.5,0.3,1.6,0.4,2.8,0.4c0.6,0,1.3-0.1,1.9-0.5c0.9-0.6,1.6-1.8,1.6-3.8c0-3.2-1.7-5-4.5-5
		c-0.8,0-1.6,0.1-1.8,0.1L-43.2,516.2L-43.2,516.2z M-43.2,517.9l0,0.6c0,2.8,0,5,0.1,5.9c0.1,0.9,0.4,1.2,0.9,1.3
		c0.3,0,0.7,0.1,1,0.1v0.7h-6.8v-0.7c0.4,0,0.8,0,1.1-0.1c0.5-0.1,0.8-0.4,0.9-1.3c0.1-1,0.1-3,0.1-5.8v-4.8c0-4.3,0-4.9-0.1-5.7
		c-0.1-0.8-0.3-1.2-1-1.3c-0.3,0-0.7-0.1-1.3-0.1V506h6.8c1.7,0,3.6,0.2,5.1,1.2c0.7,0.5,2,1.8,2,3.8c0,2.5-1,4.3-3.2,6.1
		c1,1.6,3.1,4.9,4.4,6.7c0.7,1.1,1.6,1.6,3.1,1.8c0.4,0.1,0.7,0.1,1.1,0.1v0.7h-5.6c-0.4-0.9-0.9-1.6-1.8-3
		c-1.1-1.8-2.9-4.6-3.4-5.5L-43.2,517.9"/>
	<path id="path1104" class="st1" d="M38.6,464L34,464c-3.7,0.1-4.6,0.4-4.9,1.9c-0.1,0.3-0.2,0.9-0.2,1.4h-0.6l0-4.9h24.5v4.8h-0.5
		c-0.1-0.4-0.2-1-0.2-1.3c-0.4-1.5-1.3-1.8-5-1.8l-4.9-0.1v16.8c0,4,0,7.2,0.2,8.5c0.1,1.1,0.4,2,1.6,2.2c0.6,0.1,1.1,0.1,1.5,0.2
		c0,0.2,0,0.4,0,0.5c-2.2,0-9,0-10.2,0c0-0.2,0-0.4,0-0.5c0.4,0,1.2-0.1,1.7-0.2c0.9-0.2,1.3-0.8,1.4-2.1c0.2-1.5,0.2-4.6,0.2-8.5
		V464"/>
	<path id="path1106" class="st2" d="M271,445.4c-7.5,0-10.7,0.9-10.7,0.9s0,7,0,12.8c0,9.9,10.7,11.8,10.7,11.8s10.7-1.9,10.7-11.8
		c0-5.8,0-12.8,0-12.8S278.5,445.4,271,445.4"/>
	<path id="path1108" class="st3" d="M264.7,458.8v-4.5l2.1,4.5h1.4v-6.2v-0.1h-0.1h-1.1H267v0.1l0,4.5l-2.1-4.6h-1.4v6.2H264.7"/>
	<path id="path1110" class="st3" d="M271.7,458.8v-5.2h1.4v-1H269v1h1.4v5.2H271.7"/>
	<path id="path1112" class="st3" d="M273.9,456.5c0,1.5,0.8,2.3,2.3,2.3c1.4,0,2.3-0.8,2.3-2.3v-4h-1.3v4c0,1.1-0.4,1.3-0.9,1.3
		c-0.6,0-1-0.2-1-1.3v-4h-1.3V456.5"/>
</g>
</svg>
