<svg xmlns="http://www.w3.org/2000/svg" width="155.426" height="61" viewBox="0 0 155.426 61"><g data-name="Group 2283"><g data-name="Group 1953"><path data-name="Path 4544" d="M127.171 16.979V.002l6.185 1.888v16.977z" fill="#6fc4c2"></path><path data-name="Path 4545" d="M127.171 48.439V31.462l6.185 1.888v16.977z" fill="#6ab651"></path><path data-name="Path 4546" d="M122.077 28.256H105.1l1.888-6.185h16.976z" fill="#e5481d"></path><path data-name="Path 4547" d="M153.538 28.256h-16.977l1.888-6.185h16.977z" fill="#36bcee"></path></g><g data-name="Group 1952" fill="#1c3661"><path data-name="Path 4548" d="M0 39.002h2.867l8.483 12.256 8.4-12.256h2.926v21.617h-4.33V48.363l-6.289 9.039H10.56l-6.289-9.039v12.256H0z"></path><path data-name="Path 4549" d="M26.897 48.439h11.174v2.459H26.897z"></path><path data-name="Path 4550" d="M42.631 39.002h13.046v2.632H45.322v6.67h9.009v2.632h-9.009v9.682h-2.691z"></path><path data-name="Path 4551" d="M57.096 49.942a11.224 11.224 0 0111.174-11.32 11.217 11.217 0 0111.174 11.2 11.175 11.175 0 01-11.291 11.146 10.878 10.878 0 01-11.057-11.026zm19.54-.088a8.339 8.339 0 00-8.366-8.571 8.375 8.375 0 00-8.366 8.571 8.264 8.264 0 008.366 8.483 8.282 8.282 0 008.37-8.482z"></path><path data-name="Path 4552" d="M82.981 53.423V39.002h2.691v13.865c0 3.569 1.843 5.47 5.061 5.47 3.189 0 5-2.047 5-5.47V39.002h2.721v14.421c0 4.709-3.1 7.576-7.723 7.576s-7.75-2.866-7.75-7.576z"></path><path data-name="Path 4553" d="M109.079 51.697h-3.042v8.922h-2.691V39.002h7.2a6.268 6.268 0 016.7 6.376 6.205 6.205 0 01-5.148 6.143l6.143 9.1h-3.371zm-3.042-2.575h3.919c3.276 0 4.5-1.9 4.5-3.8a3.592 3.592 0 00-3.891-3.715h-4.534z"></path></g></g></svg>