<?xml version="1.0" encoding="utf-8"?>
<!-- Generator: Adobe Illustrator 25.4.1, SVG Export Plug-In . SVG Version: 6.00 Build 0)  -->
<svg version="1.1" id="layer" xmlns="http://www.w3.org/2000/svg" xmlns:xlink="http://www.w3.org/1999/xlink" x="0px" y="0px"
	 viewBox="0 0 652 135" style="enable-background:new 0 0 652 135;" xml:space="preserve">
<path d="M258.7,44.7c0.9,0,1.6,0.7,1.6,1.6c0,0.2-0.1,0.4-0.2,0.6l-19.2,47.7c-0.2,0.6-0.9,1-1.5,1c-0.7,0-1.3-0.4-1.5-1L220,50.5
	l-17.7,44.1c-0.2,0.6-0.9,1-1.5,1s-1.3-0.3-1.5-0.9l-19.2-47.8c-0.1-0.2-0.2-0.3-0.2-0.6c0-0.9,0.7-1.6,1.6-1.6c0.6,0,1.3,0.4,1.5,1
	l17.7,44.1l17.9-44.1c0.2-0.6,0.9-1,1.5-1s1.2,0.4,1.5,1c5.1,12.5,12.6,31.2,17.8,44.1l17.8-44.1C257.5,45.1,258.1,44.7,258.7,44.7
	 M70.7,44.7c-0.9,0-1.6,0.7-1.6,1.6v43.8L24.3,45.3c-0.4-0.4-0.8-0.6-1.3-0.6c-0.9,0-1.6,0.7-1.6,1.6V94c0,0.9,0.7,1.6,1.6,1.6
	s1.6-0.7,1.6-1.6V50.2L69.4,95c0.3,0.3,0.7,0.6,1.3,0.6c0.9,0,1.6-0.7,1.6-1.6V46.3C72.3,45.5,71.6,44.7,70.7,44.7 M150.2,47.9
	c0.9,0,1.6-0.7,1.6-1.6s-0.7-1.6-1.6-1.6h-39.7c-0.9,0-1.6,0.7-1.6,1.6V94c0,0.9,0.7,1.6,1.6,1.6h39.7c0.9,0,1.6-0.7,1.6-1.6
	s-0.7-1.6-1.6-1.6H112V71.7h30.2c0.9,0,1.6-0.7,1.6-1.6s-0.7-1.6-1.6-1.6H112V47.8h38.2V47.9z M511.6,92.6c12.4,0,22.3-10,22.3-22.3
	c0-12.4-10-22.3-22.3-22.3c-12.4,0-22.3,10-22.3,22.3C489.3,82.6,499.3,92.6,511.6,92.6 M511.6,44.7c14.1,0,25.5,11.4,25.5,25.5
	s-11.4,25.5-25.5,25.5c-14.1,0-25.5-11.4-25.5-25.5C486.1,56.1,497.5,44.7,511.6,44.7 M620.8,92.9l-27.4-26.1l27.4-19.2
	c0.7-0.5,0.9-1.5,0.4-2.2s-1.5-0.9-2.2-0.4l-45.3,31.7V46.4c0-0.9-0.7-1.6-1.6-1.6c-0.9,0-1.6,0.7-1.6,1.6v47.8
	c0,0.9,0.7,1.6,1.6,1.6c0.9,0,1.5-0.9,1.5-1.6V80.7l17.1-12l27.9,26.5c0.3,0.3,0.7,0.6,1.3,0.6c0.9,0,1.6-0.7,1.6-1.6
	C621.5,93.7,621.2,93.2,620.8,92.9 M429.6,92.6c12.4,0,22.3-10,22.3-22.3c0-12.4-10-22.3-22.3-22.3c-12.4,0-22.3,10-22.3,22.3
	C407.3,82.6,417.3,92.6,429.6,92.6 M429.6,44.7c14.1,0,25.5,11.4,25.5,25.5s-11.4,25.5-25.5,25.5s-25.5-11.4-25.5-25.5
	S415.5,44.7,429.6,44.7 M378.3,92.6H340V46.4c0-0.9-0.7-1.6-1.6-1.6s-1.6,0.7-1.6,1.6v47.8c0,0.9,0.7,1.6,1.6,1.6h39.8
	c0.9,0,1.6-0.7,1.6-1.6C379.9,93.3,379.1,92.6,378.3,92.6"/>
</svg>
