<?xml version="1.0" encoding="utf-8"?>
<!-- Generator: Adobe Illustrator 25.4.1, SVG Export Plug-In . SVG Version: 6.00 Build 0)  -->
<svg version="1.1" id="Layer_1" xmlns="http://www.w3.org/2000/svg" xmlns:xlink="http://www.w3.org/1999/xlink" x="0px" y="0px"
	 viewBox="0 0 300 300" style="enable-background:new 0 0 300 300;" xml:space="preserve">
<style type="text/css">
	.st0{fill:#172E4F;}
	.st1{fill:#211E1E;}
</style>
<path class="st0" d="M27.8,269.6H32V30.4h-4.2V269.6z"/>
<path class="st1" d="M99,66.9c-0.6,0-1.1-0.5-1.1-1.1c0-0.6,0.5-1,1.1-1c0.6,0,1.1,0.5,1.1,1C100.1,66.4,99.6,66.9,99,66.9 M99,71.7
	c-0.6,0-1.1-0.5-1.1-1.1s0.5-1.1,1.1-1.1c0.6,0,1.1,0.5,1.1,1.1S99.6,71.7,99,71.7 M99,76.5c-0.6,0-1.1-0.5-1.1-1s0.5-1.1,1.1-1.1
	c0.6,0,1.1,0.5,1.1,1.1C100.1,76,99.6,76.5,99,76.5 M99,81.3c-0.6,0-1.1-0.5-1.1-1.1c0-0.6,0.5-1.1,1.1-1.1c0.6,0,1.1,0.5,1.1,1.1
	C100.1,80.8,99.6,81.3,99,81.3 M98.7,85.9c-0.4-0.2-0.6-0.5-0.6-0.9c0-0.6,0.5-1.1,1.1-1.1c0.1,0,0.1,0,0.2,0
	C99.2,84.6,98.9,85.3,98.7,85.9 M94.2,86.1c-0.6,0-1.1-0.5-1.1-1c0-0.6,0.5-1.1,1.1-1.1c0.6,0,1.1,0.5,1.1,1.1
	C95.3,85.6,94.8,86.1,94.2,86.1 M94.2,90.9c-0.6,0-1.1-0.5-1.1-1.1c0-0.6,0.5-1.1,1.1-1.1c0.6,0,1,0.5,1,1.1
	C95.3,90.4,94.8,90.9,94.2,90.9 M94.2,79.2c0.6,0,1,0.5,1,1.1c0,0.6-0.4,1.1-1,1.1s-1.1-0.4-1.1-1c0,0,0,0,0-0.1
	C93.1,79.6,93.6,79.2,94.2,79.2 M92.3,75l-1.1-2.1l-2.4,4.6l-2.6-4.5l-2.3,4.4l-2.5-4.5L80.3,75l-0.6-2.5l1.8-3.6l2.5,4.5l2.3-4.5
	l2.6,4.4l2.3-4.4l1.8,3.4L92.3,75z M90.6,85c0,0.6-0.5,1-1.1,1c-0.2,0-0.4-0.1-0.6-0.2l-0.2,0.4l-2.6-4.5l-2.3,4.4l-0.2-0.4
	c-0.2,0.2-0.4,0.2-0.7,0.2c-0.6,0-1-0.5-1-1c0,0,0,0,0,0c0-0.5,0.3-0.9,0.7-1l-1.5-5.6l0.3-0.6l2.5,4.5l2.3-4.5l2.6,4.4l2.3-4.4
	l0.2,0.4L89.9,84C90.3,84.2,90.6,84.6,90.6,85 M88.4,89.8c0-0.6,0.5-1.1,1.1-1.1c0.6,0,1.1,0.5,1.1,1.1c0,0.6-0.5,1.1-1.1,1.1
	C88.9,90.9,88.4,90.4,88.4,89.8 M89.5,95.5c-0.6,0-1-0.5-1-1.1c0-0.6,0.5-1,1-1c0.6,0,1.1,0.5,1.1,1C90.6,95,90.1,95.5,89.5,95.5
	 M87.4,93.3l-1.2-2.1l-1.1,2.2l-0.8-3l1.9-3.7l2,3.5L87.4,93.3z M86.3,98.7c-0.6,0-1.1-0.5-1.1-1.1c0-0.5,0.3-0.9,0.8-1l0.2-0.5
	l0.2,0.4l0,0.1c0.5,0.1,0.8,0.5,0.8,1C87.4,98.2,86.9,98.7,86.3,98.7 M81.9,89.8c0-0.6,0.5-1.1,1-1.1c0.6,0,1.1,0.5,1.1,1.1
	c0,0.6-0.5,1.1-1.1,1.1C82.4,90.9,81.9,90.4,81.9,89.8 M83,95.5c-0.6,0-1.1-0.5-1.1-1.1c0-0.6,0.5-1.1,1.1-1.1
	c0.6,0,1.1,0.5,1.1,1.1C84.1,95,83.6,95.5,83,95.5 M94.2,74.4c0.6,0,1,0.5,1,1.1c0,0.6-0.5,1-1,1c-0.6,0-1.1-0.5-1.1-1
	S93.6,74.4,94.2,74.4 M94.2,69.6c0.6,0,1,0.5,1,1.1c0,0.6-0.4,1.1-1,1.1c-0.6,0-1.1-0.4-1.1-1c0,0,0,0,0-0.1
	C93.1,70,93.6,69.6,94.2,69.6 M77.8,71.7c-0.6,0-1.1-0.5-1.1-1.1s0.5-1.1,1.1-1.1c0.6,0,1.1,0.5,1.1,1.1S78.4,71.7,77.8,71.7
	 M77.8,76.5c-0.6,0-1.1-0.5-1.1-1s0.5-1.1,1.1-1.1c0.6,0,1.1,0.5,1.1,1.1C78.9,76,78.4,76.5,77.8,76.5 M77.8,81.3
	c-0.6,0-1.1-0.5-1.1-1.1c0-0.6,0.5-1.1,1.1-1.1c0.6,0,1.1,0.5,1.1,1.1C78.9,80.8,78.4,81.3,77.8,81.3 M77.8,86.1
	c-0.6,0-1.1-0.5-1.1-1s0.5-1.1,1.1-1.1c0.6,0,1.1,0.5,1.1,1.1C78.9,85.6,78.4,86.1,77.8,86.1 M77.8,90.9c-0.6,0-1.1-0.5-1.1-1.1
	c0-0.6,0.5-1.1,1.1-1.1c0.6,0,1.1,0.5,1.1,1.1C78.9,90.4,78.4,90.9,77.8,90.9 M73.8,85.9c-0.2-0.7-0.5-1.3-0.7-2
	c0.6-0.1,1.1,0.3,1.3,0.8c0,0.1,0,0.1,0,0.2C74.4,85.4,74.1,85.8,73.8,85.9 M72.1,80.2c0-0.6,0.5-1.1,1-1.1c0.6,0,1.1,0.5,1.1,1.1
	c0,0.6-0.5,1.1-1.1,1.1S72.1,80.8,72.1,80.2 M73.2,69.6c0.6,0,1.1,0.5,1.1,1.1c0,0.6-0.5,1.1-1.1,1.1s-1.1-0.5-1.1-1.1
	C72.1,70.1,72.6,69.6,73.2,69.6 M74.3,75.4c0,0.6-0.5,1-1.1,1c-0.6,0-1-0.5-1-1c0,0,0,0,0,0c0-0.6,0.5-1.1,1-1.1
	C73.8,74.4,74.3,74.8,74.3,75.4 M73.2,64.8c0.6,0,1.1,0.5,1.1,1s-0.5,1.1-1.1,1.1s-1-0.5-1-1.1C72.1,65.2,72.6,64.8,73.2,64.8
	 M102,62.7H84.9c0,0.2-0.1,0.3-0.2,0.5h10.7L94.9,65c0.2,0.2,0.4,0.5,0.4,0.8c0,0.6-0.5,1.1-1,1.1h-0.1l-0.6,1.5L91.2,64l-2.4,4.6
	l-2.6-4.5l-2.3,4.4L81.4,64L79,68.6L78.1,67l-0.1-0.2c-0.6,0.1-1.1-0.2-1.3-0.8c0-0.1,0-0.2,0-0.3c0-0.5,0.3-0.9,0.8-1l-0.4-1.7H80
	c-0.2-0.1-0.5-0.3-0.7-0.5h-8.9c0,6-0.8,31.1,15.9,38.1C102.9,93.8,102,68.7,102,62.7 M86,62.5l0.3,0c0.3-0.4,0.6-0.8,0.9-1
	c-0.1-0.1-0.1-0.1-0.1-0.1S86.1,62.5,86,62.5 M93.3,59.7c-1.2-0.7-2.1-1.7-2.8-2.8c0,0,0,0,0,0c0.2,0.6,0.6,1.2,1.1,1.7
	c0.5,0.5,1,0.9,1.5,1.2L93.3,59.7z M94.8,50.6c0.1,0.1,0.1,0.2,0.1,0.2l-0.2-0.3C94.8,50.5,94.8,50.5,94.8,50.6 M86.9,51.8
	c-0.3-0.3-0.5-0.4-0.9-0.7c0.1,0.2,0.1,0.6,0,0.8c-0.1,0.3-0.3,0.4-0.7,0.5c0.3,0,0.7-0.1,0.9-0.2C86.5,52.2,86.7,52,86.9,51.8
	 M86.6,52.2c0,0,0.2-0.1,0.5-0.3c0.2-0.2,0.5-0.4,0.6-0.7c0.2-0.5,0.2-0.8,0.3-1c0-0.3,0-0.2,0-0.4c0.4,0.2,0.8,0.3,1,0.6
	c0.1-0.4,0-1.5-0.8-2.1c-0.7-0.5-1-1.1-1.3-1.7c0.1,0.4,0.7,2.2,0.8,2.8C87.7,50.2,87.7,51.4,86.6,52.2 M118.4,39
	c-1,0.8-1.7,1.3-2.9,1.9c-1.1,0.4-2,0-2.9-0.6c-1.2-0.9-2.4-2.4-2.9-2.8c0,0-0.7-0.6-0.8-0.6c0.1,0.6,0.5,1.2,0.7,1.7
	c0.4,1,0.5,1.7,0.2,3.6c-0.4,0.2-1.7,0-1.8-0.1c-0.4-0.6-0.5-1.3-0.2-2.3c0-0.1,0-0.3,0.1-0.4c-0.2,0.2-0.7,1-1.1,0.9
	c0-0.6,0.5-0.9,0.6-1.5c0.4-1.2-0.6-2.3-1.2-2.6c0.1-2,1-2.5,2.9-2.4c1.9,0.1,2.9,0.2,3.9-1.2c0.2-0.3,0.8-1.3,1.3-1.6
	c0,0.5-0.1,1,0,1.6c0.1,0.8,0.3,1.1,0.2,2c-0.1,0.8-0.8,0.9-1.7,0.9c-0.6,0-2.3,0-3-0.1c0,0,0.4,0.3,0.8,0.5
	c0.5,0.3,1.9,0.9,2.5,1.3c0.9,0.6,1.8,1.6,2.9,1.9c0.6,0.1,1,0.1,1.7-0.2c0.3-0.1,0.6-0.4,0.9-0.6C118.9,38.6,118.6,38.8,118.4,39
	 M107.1,47c0,0.5-0.6,1.2-0.9,1.6c-1.1,1.2-2.1,2.9-4.4,2.7c-0.9-0.1-1.9-0.5-2.7-0.4c-0.2,0-0.3,0.1-0.5,0.1
	c0.7,0.2,1.8,0.7,2.2,0.9c0.5,0.3,1.9,1.4,3,1.6c0.1,0,0.9,0.2,1.4,0.1c0.1,0.2,0.6,1.4,0,2c-0.4,0.4-0.8,0.6-1.2,0.7
	c-0.6,0.1-1.7-0.2-2.5-0.8c-0.8-0.5-1.5-1.4-1.9-1.8c0.1,0.5,0.2,1,0.3,1.5c0.3,1.1-0.3,2.2-0.7,2.6l-0.4,0.4
	c-0.5-0.4-1-1.3-0.9-2.2c0.1-0.5,0.2-0.7,0.1-1.4c0-0.3-0.1-0.5-0.2-0.9c0.3-0.3,0.6-0.6,1-1c0.3-0.4,0.4-1-0.4-1.2l-0.7-0.2
	c0,0-0.4-0.1-0.5-0.2c0.1,0.7,0.1,1.1,0.1,1.4c-0.5-0.8-1-1.3-1.7-1.6c-0.3-0.1-0.6-0.2-0.8-0.3c-0.1-0.1-0.1-0.1-0.1-0.2
	c-0.3-0.4-0.9-1.3-1.1-1.6c-0.3-0.4-1.4-1.3-1.6-1.7c-0.2-0.3-0.4-0.6-0.5-0.9c0,0,1.2,0.6,1.8,0.7c0.2,0.1,1.2,0.3,2.3,0.6
	c2.2,0.4,5.2,0.8,5.2,0.8s-4.2-0.5-5-0.6c0,0,0,0-0.1,0c-0.1,0-0.1,0,0.1,0c0,0-2.4-0.4-3.7-1c0,0,0.1,0.2,0.3,0.4
	c0.3,0.4,0.9,0.9,1.2,1.2c0.3,0.3,0.9,1.4,1.3,1.9c-0.2-0.5-0.1-1.3-0.1-1.9C98.1,49,105.1,50.1,107.1,47 M105.1,51.9
	c0.1-1.1,1.1-2,1.8-2.5c0.3-0.3,1.1-0.6,1.2,0c0,0.3-0.1,0.9-0.3,1.2c-0.9-0.6-1.8,0.1-2.3,0.8C105.3,51.5,105.1,51.9,105.1,51.9
	 M95.1,51c0.9,0.2,1.8,0.9,2.3,1.8c-0.1,0.2-0.2,0.3-0.3,0.4c-0.3-0.1-0.5-0.3-0.7-0.5C95.9,52.2,95.5,51.7,95.1,51 M95.5,54.5
	l-0.3-0.1c0.6,0.2,2.5-0.6,2.6-2.2c0-0.1,0-0.5,0-0.6c0.2,0.1,0.8,0,1,0.3c0.3,0.3-0.1,0.6-0.3,0.9C98.1,53.2,96.7,54.8,95.5,54.5
	 M92.6,58.5c1.8,0.3,3.4-1.7,2.5-3c0.4,0.2,0.8,0.9,1,1.3c0.6,1.1,1.2,2.4-0.4,3.3c-1.9,1-3.8-1.2-4.1-1.5c0,0,0,0,0-0.1
	c-1.3-1.3-1.7-2.6-1.7-2.6c-0.3-0.9-0.4-2.5-0.3-3.7c-0.6,1.7-2,2.2-3,1.7c-1-0.5-2.2-1.5-2.3-1.5c0,0-0.1-0.1-0.1-0.1
	c-0.2-0.2-0.4-0.5-0.3-0.9c0.1-0.6,0.4-0.8,0.6-0.9c0.4-0.2,0.7-0.2,1.2,0.1c0.2,0.1,1.2,0.9,1.4,1.1c0.4-0.6,0.5-1.5,0.5-2.1
	c0-0.6-1-3.6-1-3.6l0.5,0.6c0.2,0.2,0.8,1.1,1.3,1.6c0.7,0.6,0.7,1.2,0.8,1.6c0,0.2,0.1,0.7-0.2,1c-0.1-0.5-0.4-0.6-0.8-0.8
	c0,0.6-0.1,1.8-1.5,2.3c-1,0.4-1.8,0.3-2.2,0.2c0.5,0.4,1.6,1.1,2,1.2c0,0,0.5,0.3,1.1,0.2c0.6-0.1,1.4-0.6,2-2.5l0.1-0.4l0,0.5
	c0,0.8-0.1,3.5,0.3,4.5c0,0,0.1,0.4,0.5,1C91,57.7,91.6,58.4,92.6,58.5 M93.6,62.7h-0.3c-0.5-1.3-1.1-2.3-1.9-2.7
	c-0.8-0.4-1.6-0.2-3.2,0.7c-0.3,0.2-0.6,0.4-0.9,0.7c0.2,0.2,0.5,0.5,0.6,1c-0.6,0-1.9,0-1.8,0c0.8-1,1.5-1.6,2-1.9
	c1.4-0.8,2.4-1.3,3.4-0.8C92.1,60,93,60.9,93.6,62.7 M84.9,60.1c-0.4,0.4-0.4,0.4-0.8,0.8c-0.2,0.2-0.4,0.5-0.5,0.8
	c0.3,0.9,0.6,1.4,0.2,2.2c-0.5,0.6-0.2,1.2-0.3,1.3c-0.9-0.7-1.9-1.2-2.8-1.8c-0.3-0.2-0.7-0.4-1.1-0.6c-0.1-0.1-0.2-0.2-0.3-0.2
	c0,0,0-0.2,0-0.4c0.1-0.2,0.3-0.6,0.6-1.1c0.2-0.2,0.6-0.9,0.8-1c0.2,0.2,0.3,0.7,0.4,1c0.2,0.6,0.1,1.1,0.1,1.7
	c0.6,0,0.7-1.1,0.5-1.5c-0.4-1.5-1.3-3.4-2.2-5.4c-0.9-2-1.9-3.2-3.5-4.4c1.8-0.2,4.2-0.8,4.2-0.8c0.8,0.3,2.2,2.1,2.8,3.2
	c0.8,1.4,1.4,2.9,1.9,4.6C85.1,58.7,85.6,59.5,84.9,60.1 M75,51.1c0,0-0.3,0-0.2-0.2c0.2-0.5,2-1.1,2.6-1.2c-1,0.6-0.9,0.6-0.6,0.5
	c0.8-0.2,0.7-0.2,1.6-0.4c2.2-0.6,4.6-1.2,6.2-2.4c0.2-0.2,0.4-0.3,0.5-0.3c0.2-0.1,0.6-0.1,0.7,0.1c-0.2-0.1-0.7,0-0.9,0.1
	c-0.5,0.3-1,0.6-1.4,1c0.6-0.1,2.1-0.6,2.2-0.5c-0.5,0.4-2.7,1.3-3.5,1.6C79.9,50.3,77.8,50.7,75,51.1 M73.2,58.8
	c-0.4,0.1-0.6,0.1-0.8-0.1c-0.2-0.2-0.2-0.6-0.1-0.9c0-0.1,0.2-0.3,0.2-0.4c0.4,0.3,1.5,0.4,2.5-0.3C74.5,57.7,73.6,58.6,73.2,58.8
	 M79.7,47.1c0.5-0.2,3.2-0.8,3.5-0.8c-0.4,0.4-1.4,1.6-1.5,2.3c0.5-0.2,1.1-0.3,1.6-0.5c-0.3,0.2-1,0.5-1.4,0.6
	c-1.3,0.5-3.9,1.1-4.6,1.3C77.5,49.5,78.9,47.4,79.7,47.1 M67.2,54.5c-0.3,0.1-0.8,0.4-1.3,0.2c-0.3-0.1-0.4-0.3-0.5-0.3
	c-0.6-0.7-0.4-1.7-0.2-2.7c0.3-0.1,0.6-0.2,0.9-0.3C67.7,51.7,67.4,53.1,67.2,54.5 M67.1,50.2c-0.4-0.3-0.8-1.2-1.1-1.7
	c-0.6-1.2-0.9-2.1-0.9-3.2c0-0.7,0.1-1.6,0.3-2.4c0.1-0.7,0.2-1.2,0.3-1.8c0.2,0,0.5-0.2,0.8-0.1c0.7-0.9,1-2.9-0.8-3.2
	c-0.1-0.7-0.2-1-0.2-1.6c1-0.4,1.5-0.1,2.3,0.8c0.9,1-0.1,4.4-0.4,5.7c-0.2,0.8-0.8,3-0.1,3.3c0.1-0.5,0.5-1.4,1.3-2.1
	c0.7-0.7,1.6-1,2.6-2.3c2,1.4-0.5,2.2-0.8,3.4c0.8-0.2,2.6,0.1,2.8,1.3c-0.5,0.3-0.9,0.8-1.6,1c-0.7,0.1-1.8,0-2.4,0
	c-1.4-0.1-1.8,1-2.1,2.2C67.1,49.6,67.1,50,67.1,50.2 M65.2,36.4c0.1,0.5,0.1,0.9,0.2,1.4C64.9,37.4,64.7,36.6,65.2,36.4 M56.3,42.3
	c-1.1-0.2-2.4-2-2.5-3.3c0-0.2,0-0.9,0.1-1.3c0-0.2,0.1-0.6,0.4-0.7c0,0.2,0.1,0.4,0.5,0.7c0,0,0.6,0.3,0.7,0.5
	c0.2,0.2,0.7,0.6,0.7,2.2c0,0.4,0.3,1.6,1.5,1.6C57.5,42.2,56.9,42.4,56.3,42.3 M57.1,33.9c-0.4-0.3-0.5-0.5-0.6-0.9
	c-0.1-0.2-0.1-0.4-0.1-0.6c0.1-0.2,0.2-0.4,0.3-0.5c0.2-0.2,0.5-0.2,0.8-0.1c0.2,0.1,0.4,0.2,0.6,0.3c0,0.4-0.2,0.9-0.3,1.2
	C57.5,33.5,57.2,33.7,57.1,33.9 M101,43.2c-0.7,0.8-0.1,1.4-0.1,2.1c0,0.4,0,0.9-0.1,1.3c0,0.1,0,0.3,0,0.4c-0.2,0-1.2-0.2-1.3-0.5
	c-0.2-0.4-0.2-0.6-0.1-1.1c0.1-0.2,0.5-0.7,0.5-0.8c0.3-0.3,0.6-1,0.8-1.5c0.1-0.2,0.2-0.3,0.4-0.4c0.3-0.1,0.4-0.1,0.6,0
	C101.5,43,101.3,42.9,101,43.2 M117.1,35.9c-0.2,0-0.5,0.1-0.7,0c-0.1,0.2-0.2,0.3-0.2,0.5c-0.2,0.6-0.1,1.3-0.1,1.8
	c0,0.3,0.2,0.4,0.1,0.5c-1.3-0.3-2.3-1.4-3.3-2c-0.8-0.4-1.6-0.7-2.2-1c0.7,0.1,1.8,0.1,2,0.1c3.7,0,1.8-1.8,2-4.6
	c0-0.7,0.2-1,0.2-1c-0.9,0.2-1.9,2.5-3.1,3.1c-1.4,0.7-3.5-0.3-5,0.2c-0.7,0.3-1.2,0.9-1.6,1.4c-1.1,1.2-2.8,2-2,4.9
	c0.4,1.4,1.4,2.9,1.6,4c0.1,0.3,0.2,0.7,0.1,0.8l-0.3-0.7c-0.6-1.3-1.2-2.2-2.5-2.8c-0.2-0.1-0.6-0.4-0.5-0.6
	c-0.2,0-0.3,0.1-0.4,0.2c-0.3,0.3-0.4,0.8,0.3,1.9c-0.3-0.1-0.4,0-0.6,0c-0.2,0.1-0.4,0.2-0.6,0.6c-0.2,0.3-0.2,0.5-0.4,0.9
	c-0.2,0.3-0.5,0.6-0.8,1.1c-0.5,1-0.2,1.6,0.8,1.8c0.3,0.1,0.7,0.2,1,0.2c-0.2-0.2-0.1-0.5-0.1-0.7c0.1-0.4,0.1-0.8,0.1-1.2
	c1.8-0.6,3.1,0.9,3.6,2.3c0.1,0.2,0.1,0.4,0.2,0.6v0.1c-0.5,0.2-1,0.2-1.6,0.3c-3.2,0.6-6.5-1.5-9.5-2c-0.8-0.2-4.7-0.9-7.7-0.8
	c-3,0-6.7,1.1-7.4,1.3c-0.7,0.2-1.5,0.6-1.7,0.6c-2.7,1-5.8,1.3-9.2,1.3c0-0.9,0.7-1.4,1.4-1.4c0.8,0,1.8,0.2,2.6,0.1
	c1.1-0.3,1.2-0.7,1.8-1.1c-0.3-1.3-1.2-1.7-2.7-1.7c0.5-0.6,1.3-0.8,1.7-1.5c0.8-1.5,0.2-2.8-1.3-3.4c-0.6-0.2-0.6-0.9-0.6-0.9
	c-0.9,0.7-0.3,2.1,0.4,2.5c-1.1,1.4-2,1.6-2.7,2.3c-0.3,0.3-0.9,1-1,1.6C67,45,67.7,42.7,67.9,42c0.4-1.5,1.6-3.6,0.4-5.5
	c-0.6-0.9-4.6-3.2-6.9-2.5c-1.2,0.3-2.6,0.7-3.4,0.5c-0.5-0.1-0.5-0.2-0.6-0.2c0.1-0.4,0.3-0.4,0.6-1c0.2-0.3,0.2-0.8,0.2-1.3
	c-0.2,0-0.3-0.1-0.5-0.2c-0.3-0.2-0.7-0.4-1.3,0c-1.1,0.7-0.4,4.5,0.5,5.1c1,0.6,3.1-0.1,3.5-0.2l0.4-0.2c-0.2,0.2-0.7,0.4-0.7,0.4
	c-1,0.4-1.7,0.9-2.4,1.6c-0.6,0.6-0.7,1.1-1.4,1.3c-0.1-0.9-0.2-1.1-0.6-1.4c-0.3-0.3-1.6-0.8-1.3-1.6c-0.9-0.2-1,1.6-1.1,1.9
	c0,0.7,0.2,1.5,0.5,2.1c0.7,1.2,2,2.2,2.9,2c1.6-0.3,3-1.9,3.8-3c0.3-0.5,0.4-0.8,0.8-1.2c0.1-0.1,0.3-0.3,0.4-0.3
	c0,0.8-1,1.8-1,2.6c0,0.8,0.3,1.2,0.2,1.9c-0.1,0.5-0.3,1.3-1,1.4c0.6,0,1.3-0.1,1.6-0.2c1.6-0.4,1.8-1.5,1.7-3.7
	c0.7,0.4,0.8,1,1.9,1c0,1.7-0.9,3.4-0.5,5.2c0.5,2.7,2.5,6.6,6.2,5.5c0.8-0.2,1.4-0.6,2-0.8c-0.2,0.3-5.1,3.4-5.5,3.5
	c0.1-2.6,0.2-3.1-2.1-3.9c-0.7-0.2-1.6-1-2.1,0c-0.1,0.2-0.1,0.5-0.1,0.7c0,0.1,0.1,0.2,0.1,0.4c0.1,0,0.3,0.1,0.5,0.2
	c0.3,0.1,0.6,0.1,1,0.1c-0.1,0.8-0.3,1.6,0,2.4c0.3,0.8,3.5,2.6,4.9,2.1c1.8-0.6,2.6-2.2,3.6-3.6c0.2-0.2,0.6-0.7,0.9-0.8
	c0,0.1-0.1,0.2-0.2,0.3c-0.8,1.3-0.7,2.4-0.4,4.2c0.1,0.5,0.1,0.7,0,0.9c-0.7,0.1-1.1-0.1-1.3-0.2c-0.2,0.3-0.5,0.8-0.5,1.4
	c0,0.7,1,0.7,1.4,0.4c0.6-0.3,2.2-2,2.4-2.5c0.2-0.6-0.1-1.5-0.1-2.1c0.6,0.6,1.1,0.4,1.7,0c-0.1-0.6-0.8-1.5-0.9-1.8
	c0-0.1,0-0.2,0-0.3c1.9,1.2,3.2,4.8,4.2,7.3c-0.4,0.2-1.5,1.7-1.7,2.6c0,0.1-0.1,0.4-0.1,0.5c0,0.1,0.1,0.1,0.2,0.2
	c1.3,0.6,3.3,1.9,4.8,2.8c0.4,0.2,1.4-1.9,2-2.9c3.6-0.1,7.3,0,8.1,0c-0.3-0.8-0.9-2.1-1.2-2.7c0.4,0.3,0.7,0.4,1.2,0.6
	c1.6,0.4,3.4-0.9,2.9-2.7c-0.2-0.7-1-2.5-1.7-2.8c-1.5-0.7-2.4,0.7-2,2.1c0.6,0.3,1.1,0.2,1.7-0.1c-0.5,0.8-1.6,1.2-2.3,1
	c-0.2-1.5,0.3-2.8,0.6-4.1c0.1-0.2,0.2-0.7,0.2-0.7c1.2,0.9,2,1.7,3.3,1.1c0.3-0.1,1-0.6,1-0.6c0.1,0.4,0.2,1,0.1,1.3
	c-0.2,1.3-0.4,1.8,0.4,2.8c0.2,0.2,0.5,0.6,0.8,0.7c-0.1-0.3,0.2-0.5,0.3-0.6c0.4-0.5,0.8-1.2,0.9-1.9c0.1-0.6,0-1.2-0.2-1.8
	c0.8,0.8,1.2,1.6,3.4,2.1c2,0.4,3.4-1.7,4-3.8c0.2-0.8-0.5-1.7-0.6-2.1c0.3-0.1,0.7-0.1,1,0.3c0.2-0.4,0.9-2.4-0.2-2.2
	c-0.4,0.1-0.9,0.5-1.2,0.7c-0.9,0.9-2,1.9-1.3,3.7c0,0,0.1,0.2,0.1,0.2c-1.5,0.2-3.1-1-4-1.6c-0.6-0.3-1.6-0.7-1.6-0.7
	c0.5-0.1,2,0.7,3.3,0.4c1-0.2,1.8-0.6,3.1-2.1c0.9-0.9,1.5-2,1.7-2.8c0.3-1.2-0.2-4.4-0.6-6c0,0-0.2-0.8-0.2-0.9
	c-0.3-0.6-0.4-2.1-0.3-3c1.4,0.7,0.6,2.1,0.5,3.3c0,0.3,0,0.5,0,0.6c0.2,0.1,0.4,0,0.6-0.2l0.2-0.2l0,0.2c-0.3,1.4,0.2,2.6,1.6,2.8
	c1.1,0.2,2.6,0.5,3-0.3c0.1-0.3,0.1-0.4,0-0.6c-0.1-0.2-0.2-0.4-0.3-0.5c-0.1-0.1-0.2-0.2-0.3-0.3c-0.2,0.1-0.4,0.1-0.6,0.2
	c-0.2,0.1-0.4,0.2-0.6,0.4c-0.1,0-0.1,0.1-0.2,0.1c0-0.7,0.2-1.6,0-2.5c-0.1-0.6-0.5-1.5-0.8-2.1c0,0,0.5,0.5,0.8,0.8
	c0.2,0.2,1.1,1.5,2.5,2.3c0.9,0.6,1.9,0.9,2.8,0.6c1.1-0.4,0.9-0.5,1.9-1.1c0.4-0.2,0.7-0.4,1.2-0.9C120.4,38,119.2,35.6,117.1,35.9
	 M115.7,56.1c-0.3-0.1-0.9-0.4-0.8-0.7c0.1-0.4,0.2-0.4,0.7-0.6c0.1,0,0.3,0.1,0.4,0.1c0,0.1,0.1,0.1,0.1,0.2
	c-0.2-0.1-0.6,0-0.6,0.2c-0.1,0.2,0,0.4,0.2,0.5c0.4,0.1,0.8-0.1,0.9-0.2l0.1-0.2c0.1,0,0.2,0.1,0.3,0.2
	C116.6,55.7,116.2,56.1,115.7,56.1 M129.6,81.6c-0.4-0.8-1-1.3-1.9-1.6c-0.6-0.2-1.3-0.1-1.9,0c-0.8,0.1-1.6,0.4-2.3,0.9
	c-0.6,0.4-1.3,0.6-2.1,0.4c-0.4-0.1-0.5-0.3-0.6-0.5c-0.3-0.3-0.5-0.6-0.7-1c-0.6-0.9-0.8-1.7-1.1-2.8c-0.2-0.7-0.4-1.5-0.6-2.2
	c0-0.1-0.7-2.8-0.8-3.2c0-0.5-0.2-1-0.2-1.5c-0.1-1,0-2.1,0.1-3.1c0.1-1,0.4-2,1.1-2.8c0.1-0.1,0.8-1.3,1-1.8c0.7-1.6,1-3.3,0.9-5.1
	c0-0.4-0.1-0.8-0.2-1.3c-0.1-0.2-0.2-0.8-0.2-0.9c-0.2-0.5-0.2-1.1-0.1-1.7c0.2-0.7,0.2-1.5,0.2-2.3c0-0.4-0.1-1-0.2-1.4
	c0,0.3-0.2,0.4-0.3,0.6c-0.3,0.5-0.4,0.5-0.6,1c-0.3,0.5-0.4,1.1-0.4,1.7c0,0.1,0,0.1,0,0.2c-0.1,0.2-0.1,0.2-0.2,0.2
	c-0.1,0-0.2-0.1-0.2-0.1c0-0.1,0-0.2,0-0.3c0.1-0.4,0.1-0.7,0-1.1c-0.1-0.7-0.5-1.7-0.8-2.1c0,0.1-0.1,0.5-0.2,0.6
	c-0.2,0.8-0.3,1.5-0.1,2.3c0.1,0.2,0,0.3-0.2,0.3c-0.1,0-0.2,0-0.4,0.1c-0.6,0.1-1.1,0.2-1.6,0.6c-0.4,0.3-0.8,0.4-1.2,0.4
	c-0.6,0.1-1.2,0.2-1.8,0.4c-0.3,0.1-0.6,0.2-0.9,0.1c-0.1,0-0.2,0-0.3,0c-0.5,0.1-1,0.4-1.4,0.8c-0.1,0.1-0.1,0.2-0.1,0.3
	c0.1,0.3,0.2,0.5,0.4,0.7c0.1,0.1,0.2,0.2,0.2,0.4c0,0.1-0.1,0.1-0.1,0.1c-0.1,0-0.3,0-0.6,0c0,0.1,0.3,0.2,0.5,0.2
	c0,0,0.3,0,0.3,0.1c0.1,0.1,0,0.3,0.2,0.4c0.2,0.2,0.6,0.3,1,0.3c0.3,0,0.6,0,0.9,0c0.6-0.1,1.2-0.1,1.7,0c0.5,0.1,0.9,0.3,1,0.8
	c0.1,0.4,0,0.9-0.2,1.3c-0.6,0.8-1.2,1.5-1.9,2.1c-0.4,0.4-2,1.9-2.4,2.3c-0.4,0.3-0.7,0.6-1,1.1c-0.1,0.2-0.2,0.4-0.4,0.6
	c-0.2,0.2-0.3,0.2-0.4,0c-0.2-0.3-0.3-0.6-0.4-0.9c-0.2-0.6-0.5-1.1-0.9-1.7c-0.2-0.3-0.5-0.7-0.6-1c-0.2-0.5-0.5-1.1-0.7-1.6
	c-0.1-0.2-0.2-0.3-0.3-0.4c-0.3-0.3-0.7-0.5-1.1-0.6c-0.2-0.1-0.4-0.1-0.5,0c-1,0.3-2,0.5-3,0.7l-0.2,0c-0.4,0.1-0.8,0.2-1.2,0.4
	c-0.1,0.1-0.2,0.1-0.3,0.1c-0.4,0-0.8,0.2-1.2,0.4c-0.6,0.3-1.1,0.7-1.7,1.1L96,62.8c-0.1,0.1-0.1,0.2,0,0.4
	c0.1,0.1,0.1,0.1,0.2,0.1c0.6,0.4,1.2,0.4,1.9,0.3c0.4-0.1,0.9-0.3,1.3-0.4c0.2-0.1,0.3-0.2,0.3-0.4c0-0.1,0-0.3,0-0.4
	c0.2,0,0.4,0.1,0.5,0.3c0.1,0.2,0.2,0.1,0.3,0.1c0.2-0.1,0.5-0.2,0.7-0.3c0.2-0.1,0.4-0.2,0.6-0.3c0.1,0,0.8-0.3,1.1-0.3
	c0.2,0,0.4,0,0.5,0.2c0.3,0.2,0.4,0.4,0.5,0.7c0.4,1.3,0.7,2.7,1.1,4c0.1,0.2,0.5,1.3,0.5,1.7c0,0.2,0.1,0.5,0.1,0.7
	c0.1,0.4,0.3,0.6,0.6,0.8c0.3,0.1,0.5,0.3,0.7,0.5c0.1,0.1,0.2,0.2,0.2,0.3c0.1,0.2,0.4,0.8,0.4,1c-0.4,0.3-0.7,0.5-1,0.8
	c-0.6,0.5-1.1,0.9-1.7,1.4c-0.2,0.2-0.5,0.4-0.7,0.5c-0.8,0.4-1.3,1-1.6,1.9c0,0.1-0.1,0.2-0.1,0.3c-0.3,0.6-0.6,1.3-0.9,2
	c-0.1,0.2-0.2,0.4-0.4,0.6c0,0,0,0,0,0c0,0-0.1,0.1-0.1,0.1c-0.2,0.3-0.4,0.7-0.4,1.1c0,0.1,0,0.2-0.1,0.2c-0.2,0.3-0.4,0.4-0.5,0.8
	c0,0.2-0.2,0.5-0.2,0.6c-0.1,0.4,0,0.7-0.1,1.1c0,0.1,0.1,0.4,0.1,0.5c0,0.2,0.1,0.2,0.2,0.2h0l0.2,0c0.6-0.2,1-0.6,1.3-1.1
	c0.2-0.4,0.3-0.8,0.5-1.1c0.1-0.2,0-0.4-0.1-0.5c0,0,0,0,0,0c-0.1-0.1-0.3-0.2-0.2-0.2c0.1-0.1,0.3-0.2,0.5-0.2c0.1,0,0.2,0,0.2,0
	c0.1-0.2,0.2-0.4,0.3-0.6c0-0.1,0-0.1,0.1-0.2l0.1-0.2c0.1-0.4,0.2-0.7,0.4-1.1c0.3-0.8,0.9-1.5,1.7-1.8c0.1,0,0.2-0.1,0.2-0.2
	c0.4-0.5,0.9-0.8,1.6-1c0.8-0.3,2.5-0.8,2.5-0.8c0,0.1,0.6,0.9,0.9,1.2c0.9,1,1.8,2,2.8,2.8c0.2,0.1,0.3,0.3,0.4,0.4
	c-0.1,0.1-0.8,0.5-1,0.6c-0.7,0.2-1.3,0.6-1.9,1c-0.9,0.6-1.4,1.4-1.4,2.5c-0.1,1.7,0,3.3,0.2,5c0.1,0.8,0.1,1.6-0.1,2.4
	c-0.1,0.4-0.3,0.7-0.6,0.9c-0.5,0.4-1,0.7-1.5,1c-0.6,0.2-1.3,0.4-1.8,0.8c0,0,0,0,0,0c-0.1,0.1-0.2,0.1-0.2,0.2c0,0,0,0,0,0
	c-0.3,0.3-0.6,0.7-1,0.9c-0.3,0.1-0.6,0.4-0.5,0.7c0,0.1,0,0.2-0.1,0.3c0,0-0.1,0.1-0.1,0.1c-0.2,0.2-0.3,0.3-0.4,0.5
	c0,0.1-0.1,0.1-0.1,0.2c-0.1,0.2-0.2,0.4-0.3,0.5c-0.1,0.2-0.4,0.7-0.4,0.7c0.3,0.2,0.6,0.3,1,0.3c0.7,0,1.3-0.2,1.8-0.6
	c0.2-0.1,0.6-0.5,0.6-0.6c0.1-0.2,0.5-0.6,0.4-0.7c0-0.1-0.1-0.3-0.1-0.4c-0.1-0.2,0-0.3,0.2-0.2c0.3,0.1,0.6,0,0.8-0.2
	c0.1-0.1,0.1-0.2,0.2-0.2c0.3-0.3,0.6-0.5,1-0.7c0.3-0.2,0.6-0.3,1-0.4c0.5-0.2,2.2-0.7,2.6-0.8c0.4-0.1,0.6-0.4,0.6-0.8
	c0-0.4,0-0.7,0-1.1c0-0.6,0-1.2,0.1-1.8c0.1-0.6,0.3-1.2,0.7-1.6c0.2-0.2,0.5-0.5,0.7-0.6c0.3-0.2,0.6-0.3,0.9-0.4
	c0.3-0.1,0.4-0.1,0.4,0.2c0,0.4,0,0.8,0.1,1.2c0.2,1,0.7,1.8,1.5,2.4c0.9,0.7,1.8,1.4,2.7,2c0.4,0.2,0.7,0.6,1.1,0.9
	c0.4,0.3,0.6,0.8,0.7,1.3c0.2,0.6,0.2,1.2,0,1.7c-0.1,0.3-0.2,0.5-0.2,0.8c-0.1,0.3-0.2,0.6-0.3,0.8c0,0,0,0.1-0.1,0.1
	c0,0,0,0.1-0.1,0.1c-0.1,0.1-0.2,0.2-0.2,0.3c-0.1,0.2,0,0.4,0,0.6c0,0.1-0.2,0.3-0.3,0.3c-0.1,0.1-0.2,0.3-0.3,0.4
	c-0.2,0.3-0.3,0.7-0.4,1.1c-0.1,0.3-0.1,0.6-0.2,0.9c-0.1,0.2-0.2,0.8-0.2,0.9c0.4,0.1,0.7,0,1.1-0.1c0.7-0.2,1.2-0.7,1.6-1.2
	c0.1-0.2,0.4-0.7,0.4-0.8c0.1-0.2,0.1-0.5,0-0.7c0-0.1,0-0.1,0-0.2c0-0.1,0-0.1-0.2-0.1c0,0-0.1,0-0.1,0c0.1-0.4,0.3-0.4,0.7-0.2
	c0.1,0,0.4-0.3,0.4-0.7c0-0.1,0-0.2,0.1-0.4v-0.1c0-0.2,0-0.3,0-0.5c0-0.9,0.2-1.7,0.4-2.6c0.2-0.7,0.3-1.5,0.1-2.2
	c0-0.1,0-0.1,0-0.2c0.1-0.3-0.1-0.5-0.3-0.6c-0.7-0.4-1.2-0.9-1.6-1.6c-0.2-0.4-0.3-0.8-0.3-1.3c0-0.8,0-1.7-0.1-2.5
	c0-0.5-0.1-1-0.1-1.5c0-0.3,0-0.6,0-0.9c0-0.3-0.1-0.6-0.1-0.9c0-0.1,0-0.1,0-0.2c0,0,0.2,0.2,0.3,0.4c0.6,0.7,1.2,1.2,2.2,1.2
	c0.4,0,0.9,0,1.3,0c0.2,0,0.5,0,0.7,0.1c0.3,0.2,0.4,0.3,0.5,0.6c0.1,0.7,0,1.1-0.3,1.6c-0.3,0.5-0.5,1-0.6,1.6
	c-0.1,0.9,0.2,1.6,0.9,2.1c0.4,0.3,0.9,0.5,1.4,0.8c0.2,0.1,0.3,0.2,0.5,0.3c0.3,0.2,0.4,0.5,0.3,0.8c-0.1,0.3-0.1,0.5-0.2,0.8
	c-0.1,0.2-0.1,0.7,0,0.9c0-0.1,0-0.3,0-0.4c0.1-0.2,0.2-0.4,0.5-0.6c0.1-0.1,0.2-0.2,0.3-0.2c0.7-0.8,0.8-1.9,0.1-2.7
	c-0.1-0.1-0.1-0.1-0.2-0.2c-0.4-0.4-0.6-0.9-0.4-1.5c0.1-0.3,0.2-0.7,0.2-1c0-0.1,0-0.2,0.1-0.4c0.3,0.2,0.5,0.5,0.7,0.7
	c0.2,0.3,0.4,0.7,0.2,1.1c0.4-0.2,0.5-0.7,0.4-1c0-0.2-0.1-0.4-0.1-0.5c-0.2-0.6-0.1-1.2,0.2-1.8c0.3-0.5,0.5-1.1,0.6-1.7
	C130.1,83.5,130.1,82.4,129.6,81.6 M55.7,56.8c-0.3-0.1-0.9-0.4-0.8-0.7c0.1-0.4,0.2-0.4,0.7-0.6c0.1,0,0.3,0.1,0.4,0.1
	c0,0.1,0.1,0.1,0.1,0.2c-0.2-0.1-0.6,0-0.6,0.2c-0.1,0.2,0,0.3,0.2,0.5c0.4,0.1,0.8-0.1,0.9-0.2l0.1-0.2c0.1,0,0.2,0.1,0.3,0.2
	C56.5,56.3,56.1,56.8,55.7,56.8 M76.3,63.1c0,0-0.1-0.1-0.1-0.1c-0.5-0.4-0.9-0.8-1.4-1.2c-0.1,0-0.1-0.1-0.2-0.1
	c-0.3-0.2-0.6-0.5-1.1-0.6c-0.1,0-0.2-0.1-0.2-0.1c-0.3-0.3-0.7-0.5-1.1-0.6c-0.1,0-0.1,0-0.2-0.1c-0.6,0-1.2,0-1.8-0.1
	c-0.1,0-0.3,0-0.4,0c-0.4,0-0.7,0-1.1-0.1c-0.8,0-1.6,0.3-1.9,1.1c-0.2,0.5-0.5,1-0.7,1.5c-0.3,0.7-0.6,1.3-0.9,2
	c-0.3,0.6-0.6,1.2-0.9,1.8c0,0,0,0.1-0.1,0.1c-0.1,0.1-0.1,0.1-0.2,0.1c-0.1,0-0.1-0.1-0.2-0.1c0-0.1,0-0.2-0.1-0.2
	c-0.2-0.3-0.3-0.6-0.5-0.9c-0.1-0.2-0.3-0.4-0.5-0.6c-1-1.2-2-2.5-3.2-3.6c-0.4-0.4-0.9-0.8-1.4-1.2c-0.2-0.1-0.4-0.3-0.5-0.5
	c-0.2-0.2-0.1-0.4,0.1-0.5c0.3-0.2,0.7-0.5,1.1-0.6c0.6-0.3,1.2-0.4,1.8-0.3c0.7,0.1,1.3-0.1,1.8-0.6c0.2-0.2,0.4-0.3,0.6-0.5
	c0.1-0.1,0.1-0.1,0.1-0.2c0,0-0.1-0.1-0.2-0.1c-0.2-0.1-0.3-0.1-0.2-0.3c0.1-0.2,0.2-0.5,0.3-0.7c0.1-0.3,0.1-0.5-0.2-0.6
	c-0.3-0.1-0.5-0.2-0.8-0.3c-0.3-0.1-0.6-0.1-0.9,0.1c-0.2,0.1-0.5,0.1-0.7,0c-0.6-0.1-1.2-0.2-1.8-0.3c-0.3,0-0.5-0.1-0.8-0.3
	c-0.4-0.3-0.9-0.5-1.4-0.4c-0.1,0-0.3,0-0.4,0c-0.1,0-0.2,0-0.4-0.1c-0.2,0-0.3-0.1-0.2-0.3c0.3-0.8,0.1-1.6,0-2.3
	c0-0.1-0.2-0.5-0.2-0.6c-0.3,0.4-0.7,1.4-0.8,2.1c-0.1,0.4,0,0.7,0,1.1c0,0.1,0,0.2,0,0.3c0,0.1-0.1,0.1-0.2,0.1
	c-0.1,0-0.1,0-0.2-0.2c0-0.1,0-0.1,0-0.2c0-0.6-0.1-1.1-0.4-1.6c-0.3-0.5-0.3-0.5-0.6-0.9c-0.1-0.1-0.3-0.3-0.4-0.5
	c-0.1,0.4-0.2,1-0.2,1.4c-0.1,0.8,0,1.5,0.2,2.2c0.1,0.5,0.1,1,0,1.5c-0.4,0.9-0.5,1.9-0.6,2.9c0,0.7,0.1,1.3,0.2,2
	c0.2,1.2,0.7,2.3,1.4,3.2c0.2,0.3,0.5,0.7,0.6,1.1c0.2,0.5,0.4,0.9,0.6,1.4c0.3,0.7,0.6,2.2,0.6,2.9c0.1,0.9,0.1,1.7-0.1,2.6
	c-0.3,1.5-0.7,2.9-1.2,4.3c-0.4,1.2-0.7,2.4-0.8,3.7c0,0.4-0.1,0.8-0.2,1.2c-0.2,0.9-0.8,1.4-1.7,1.7c-0.2,0.1-0.4,0.1-0.6,0.1
	c-0.5,0.1-0.9,0-1.2-0.3c-0.4-0.3-0.8-0.5-1.2-0.8c-1.5-1.1-3.5-0.6-4.7,0.7c-0.5,0.5-0.8,1.1-0.9,1.8c0,0.1,0,0.2-0.1,0.3
	c-0.1,0.7-0.2,1,0,1.9c0.1,0.6,0.3,1.1,0.5,1.7c0.3,0.6,0.6,1.3,0.8,1.9c0.4,1,0.5,2,0.3,3.1c-0.1,0.4,0,0.9,0.1,1.3
	c0.1,0.4,0.7,0.9,1.1,1.1c-0.3-0.3-0.4-0.4-0.4-0.5c-0.1-0.2-0.1-0.5,0.1-0.7c0.1-0.1,0.2-0.2,0.3-0.4c0.3-0.4,0.5-0.8,0.7-1.2
	c0.2-0.4,0.3-0.8,0.2-1.2c0-0.2,0-0.3,0-0.5c0-0.1,0-0.2,0.2-0.2c0.1,0,0.1,0.1,0.1,0.2c0.1,0.6,0,1.1-0.3,1.6
	c-0.1,0.1-0.1,0.2-0.2,0.4c-0.1,0.2-0.2,0.4,0,0.6c0.2,0.2,0.4,0.2,0.6,0c0,0-1,0,0.4-1.4c0.4-0.4,0.6-0.8,0.6-1.3
	c0.1-0.6,0-1.1-0.2-1.6c-0.1-0.2-0.2-0.4-0.3-0.7c-0.1-0.3-0.1-0.3,0.2-0.5c0.3-0.1,0.6-0.4,0.7-0.6c0-0.1,0-0.1,0.1-0.2
	c-0.3,0.3-0.6,0.3-0.8,0.2c-0.2-0.1-0.4-0.2-0.5-0.7c-0.1-0.3,0.2-0.9,0.5-1.1c0.2-0.1,0.5-0.2,0.7-0.3c0.4-0.1,0.8-0.1,1.2-0.2
	c0.4-0.1,0.8-0.1,1.2-0.2c0.4-0.1,0.8-0.3,1.1-0.5c0.1-0.1,0.2-0.2,0.4-0.3c0,0.1-0.2,1.4-0.2,2c0,0.8,0.1,1.5,0.1,2.3
	c0,0.9-0.1,1.7-0.3,2.5c-0.1,0.4-0.3,0.9-0.6,1.2c-0.3,0.5-0.7,0.9-1.2,1.3c-0.4,0.3-0.5,0.6-0.4,1.1c0.4,1.4,0.7,2.8,0.9,4.2
	c0,0.1,0,0.1,0,0.2c0,0.1,0,0.1,0,0.2c0.1,0.3,0.3,0.5,0.4,0.5c0.4-0.1,0.6-0.2,0.7,0.1c0,0-0.1,0-0.1,0c-0.2,0-0.2,0-0.2,0.1
	c0,0.1,0,0.1-0.1,0.2c-0.1,0.2-0.1,0.5,0,0.7c0,0.1,0.3,0.6,0.4,0.8c0.1,0.1,0.2,0.2,0.2,0.3c0.4,0.4,0.8,0.7,1.4,0.9c0,0,0,0,0,0
	c0.3,0.1,1.1,0.1,1-0.1c0-0.1,0-0.2-0.1-0.3c0-0.2-0.1-0.3-0.1-0.4c0,0,0,0,0-0.1c-0.1-0.3-0.1-0.6-0.2-0.8c-0.1-0.4-0.2-0.7-0.4-1
	c-0.1-0.1-0.2-0.3-0.3-0.4c0,0,0,0-0.1-0.1c-0.1-0.1-0.2-0.2-0.2-0.3c0-0.1,0-0.5,0-0.6c0-0.1-0.1-0.3-0.1-0.3c0,0-0.1-0.1-0.2-0.1
	c-0.1,0-0.1,0-0.1-0.1c-0.1-0.1-0.2-0.2-0.2-0.3c-0.3-0.7-0.4-1.4-0.3-2.2c0.1-0.6,0.4-1.2,0.9-1.6c0.2-0.2,0.4-0.4,0.6-0.5
	c1-0.7,1.9-1.5,2.9-2.4c0.4-0.3,0.7-0.7,0.9-1.1c0.4-0.7,0.5-1.5,0.5-2.3c0-0.3,0-0.6,0.1-0.9c0.1-0.2,0.2-0.2,0.4-0.1
	c0.2,0.2,0.5,0.4,0.8,0.5c0.5,0.3,0.8,0.8,1,1.3c0.2,0.4,0.3,0.9,0.4,1.3c0.2,0.7,0.3,1.5,0,2.3c-0.1,0.4,0,0.7,0.4,0.9
	c0.2,0.1,0.4,0.1,0.5,0.2c0.9,0.3,1.8,0.4,2.6,0.9c0.1,0,1,0.6,1.3,1.1c0,0,0,0,0,0c0.2,0.2,0.6,0,0.9-0.1c0.2-0.1,0.3,0,0.2,0.2
	c0,0.1-0.1,0.3-0.1,0.4c0,0.1,0.1,0.2,0.2,0.3c0.1,0.1,0.2,0.2,0.3,0.3c0,0,0,0,0,0c0.1,0.1,0.5,0.5,0.6,0.6
	c0.1,0.1,0.2,0.1,0.3,0.2c0.1,0,0.1,0.1,0.2,0.1c0.4,0.2,0.8,0.2,1.3,0.2c0.3,0,0.8-0.2,0.9-0.5c-0.1-0.2-0.2-0.4-0.3-0.5l-0.4-0.5
	c-0.2-0.3-0.3-0.5-0.6-0.7c0,0-0.3-0.3-0.3-0.3c-0.3-0.2-0.5-0.5-0.8-0.8c-0.1-0.1-0.1-0.2-0.1-0.3v0c-0.1-0.5-0.5-0.8-1-0.9
	c-0.1,0-0.2,0-0.3-0.1c-0.6-0.2-1.2-0.5-1.7-0.7c-0.2-0.1-0.4-0.2-0.6-0.3c-0.5-0.4-0.8-0.9-0.8-1.5c0-0.8,0-1.6,0.1-2.4
	c0.1-1,0.3-1.9,0.2-2.9c0-0.5-0.1-1-0.2-1.5c-0.1-0.6-0.4-1.1-0.7-1.6c-0.3-0.4-0.6-0.8-1.1-1c-0.6-0.3-1.2-0.6-1.9-0.7l-0.6-0.1
	c-0.2-0.1-0.3-0.2-0.2-0.4c0-0.1,0.1-0.1,0.1-0.1c0.9-0.7,1.6-1.6,2.1-2.6c0.2-0.4,0.4-0.8,0.6-1.3c0.1-0.2,0.1-0.2,0.4-0.2
	c0.1,0,0.1,0,0.2,0c0.5,0.1,1,0.3,1.4,0.4c0.5,0.1,0.9,0.3,1.4,0.4c0.5,0.1,0.9,0.2,1.4,0.4c0.3,0.1,0.6,0.3,0.8,0.5
	c0.2,0.3,0.5,0.5,0.8,0.7c0.6,0.6,1,1,1.2,1.9c0,0.1,0,0.2,0.1,0.3c0,0.1,0,0.2,0,0.2c0.1,0.2,0.1,0.3,0.2,0.4c0,0.1,0.1,0.1,0.2,0
	c0.2-0.1,0.4,0,0.5,0.1c0,0.1-0.2,0.1-0.2,0.2v0c0,0,0,0,0,0c-0.1,0.1-0.1,0.3-0.1,0.5c0.2,0.4,0.3,0.8,0.5,1.1
	c0.1,0.2,0.2,0.3,0.3,0.4c0.3,0.3,0.6,0.6,1.1,0.6c0.1,0,0.1,0,0.2,0h0c0.2,0,0.2-0.1,0.2-0.2c0-0.4-0.1-0.7-0.1-0.9
	c0-0.2-0.1-0.5-0.2-0.7c-0.1-0.3-0.2-0.6-0.3-0.8c0-0.1-0.1-0.2-0.2-0.2c0,0,0,0,0,0c-0.1-0.1-0.1-0.2-0.1-0.2
	c0-0.1-0.1-0.3-0.1-0.4c-0.1-0.2-0.2-0.4-0.4-0.6l0,0c0-0.1-0.1-0.2-0.1-0.2c-0.3-0.6-0.6-1.2-0.7-1.9c-0.1-0.4-0.2-0.8-0.4-1.2
	c-0.1-0.3-0.3-0.6-0.6-0.8c-0.5-0.3-1-0.7-1.4-1.1c-0.6-0.5-1.2-1-1.8-1.5c-0.5-0.4-1-0.8-1.6-1.1c-0.1,0-0.2-0.1-0.3-0.2
	c0.1-0.2,0.2-0.4,0.3-0.6c0.2-0.3,0.4-0.5,0.7-0.5c0.6-0.1,0.9-0.4,1.1-0.9c0.1-0.4,0.3-0.9,0.4-1.3c0.3-1.1,0.5-2.2,0.7-3.2
	c0.1-0.7,0.3-1.3,0.7-1.9c0.3-0.5,0.7-0.8,1.3-1c0.6-0.2,1.2-0.1,1.7,0.1l0.2,0.1c0.2,0.1,0.4,0.2,0.6,0.2c0,0,0.1,0,0.1,0
	c0,0,0,0,0-0.1c0.1-0.2,0.3-0.3,0.5-0.2c0,0.1-0.1,0.2-0.1,0.3v0c0,0.2,0.1,0.4,0.3,0.4c0.4,0.2,0.8,0.4,1.2,0.6
	c0.6,0.2,1.3,0.3,1.9-0.1c0.1,0,0.1-0.1,0.2-0.1C76.4,63.3,76.4,63.2,76.3,63.1 M102.2,100c-2-0.5-4.7-1.6-9,0.2
	c-4.3,1.8-5.1,1.7-6.9,1.7c-1.8,0-2.5,0.1-6.9-1.7c-4.3-1.8-7-0.7-9-0.2c-2.2,0.5-6.9,2.6-7.9,0.2c0.2,1.3,1.4,3,1.9,3.9
	c0.8,1.2,1.3,1.5,2.6,1.2c1-0.2,2.3-0.6,3.1-0.9c1.1-0.3,2.5-0.6,4-0.6c1.3,0,3.2,0.4,5.1,1.2c2.5,1,4.5,1.3,7,1.2
	c2.4,0,4.5-0.2,7-1.2c2-0.8,3.9-1.2,5.1-1.2c1.5-0.1,3,0.3,4,0.6c0.9,0.3,2.1,0.6,3.1,0.9c1.3,0.3,1.8,0,2.6-1.2
	c0.6-0.9,1.7-2.6,1.9-3.9C109.1,102.6,104.4,100.5,102.2,100 M104.5,100.5L104.5,100.5c0.2-0.3,0.6-1.4,0.9-2.4
	C105.2,98.5,104.8,100.1,104.5,100.5 M104.5,100.8l-0.2-0.3l0.1-0.1c0.2-0.2,0.6-1.4,0.9-2.5l0-0.1l0.3,0.1l0,0.1
	C105.4,98.6,104.9,100.5,104.5,100.8L104.5,100.8z M104.5,100.7l-0.1-0.1c0.2-0.2,0.7-1.7,0.9-2.5l0.2,0
	C105.4,98.3,104.8,100.4,104.5,100.7 M106.7,99.8c-0.3,0.7-0.4,1.1-0.4,1.2C106.3,100.7,106.6,100,106.7,99.8z M106.1,101.2
	L106.1,101.2c0-0.2,0.1-0.7,0.5-1.6l0-0.1l0.3,0.1l0,0.1c-0.3,0.7-0.5,1.3-0.5,1.3v0.1l-0.1,0L106.1,101.2z M106.2,101.1
	c0-0.2,0.3-1.1,0.5-1.4l0.2,0.1c-0.2,0.6-0.5,1.3-0.5,1.4L106.2,101.1z M110.1,99.5c0.2,1.2-1,3.2-1.7,4.3c-0.1,0.1-0.2,0.2-0.2,0.3
	c-0.4,0.7-0.8,1.1-1.2,1.2c0.4-0.2,0.8-0.5,1.2-1.2c0.1-0.1,0.1-0.2,0.2-0.3l0-0.1C109.1,102.6,110.3,100.7,110.1,99.5z M86.4,106.3
	h0.2c1.9,0,4-0.2,6.6-1.2c1.7-0.7,3.7-1.2,5.1-1.2c1.6-0.1,3.1,0.3,4,0.6c0.3,0.1,1.9,0.6,3.1,0.9c0.4,0.1,0.7,0.1,1,0.1
	c-0.3,0-0.6,0-1-0.1c-1.2-0.3-2.7-0.7-3.1-0.9c-0.9-0.3-2.4-0.6-4-0.6c-1.5,0-3.4,0.5-5.1,1.2c-2.6,1.1-4.7,1.2-6.6,1.2L86.4,106.3
	L86.4,106.3z M86.7,106.5h-0.3l-0.1,0v-0.4h0.4c1.9,0,3.9-0.1,6.6-1.2c1.8-0.7,3.7-1.2,5.2-1.2c1.6-0.1,3.1,0.3,4.1,0.6
	c0.4,0.1,1.9,0.6,3.1,0.9c0.3,0.1,0.6,0.1,0.8,0.1c0.6,0,1-0.3,1.6-1.2c0.1-0.1,0.1-0.2,0.2-0.3c0.7-1.2,1.9-3.1,1.7-4.3l0-0.1
	l0.3-0.1l0,0.1c0.3,1.3-1,3.3-1.7,4.5l0,0.1c-0.1,0.1-0.1,0.2-0.2,0.3c-0.6,1-1.1,1.4-1.9,1.4c-0.2,0-0.5,0-0.8-0.1
	c-1.2-0.3-2.8-0.8-3.1-0.9c-0.9-0.3-2.4-0.6-4-0.6c-1.5,0.1-3.4,0.5-5.1,1.2C90.7,106.4,88.6,106.5,86.7,106.5 M86.7,106.4
	c-0.1,0-0.2,0-0.3,0v-0.2c2.3,0,4.4-0.2,6.9-1.2c1.7-0.7,3.7-1.2,5.2-1.2c1.6,0,3.1,0.3,4.1,0.6c0.4,0.1,1.9,0.6,3.1,0.9
	c1.2,0.3,1.7,0,2.5-1.2c0.1-0.1,0.1-0.2,0.2-0.3c0.7-1.2,2-3.2,1.7-4.3l0.2,0c0.3,1.2-1,3.3-1.7,4.5c-0.1,0.1-0.1,0.2-0.2,0.3
	c-0.8,1.3-1.4,1.6-2.7,1.3c-1.2-0.3-2.7-0.7-3.1-0.9c-0.9-0.3-2.4-0.6-4-0.6c-1.5,0-3.4,0.5-5.1,1.2
	C90.9,106.2,88.8,106.4,86.7,106.4 M86.4,101.9h0.3c1.5,0,2.5-0.1,6.4-1.7c1.6-0.7,3.1-1,4.6-1c1.5,0,2.7,0.3,3.7,0.6l0,0
	c0.2,0.1,0.4,0.1,0.6,0.2c0.4,0.1,0.9,0.2,1.4,0.4c1.3,0.4,3,0.9,4.3,0.9c1.1,0,1.8-0.4,2.1-1.1c0.1-0.3,0.1-0.7,0-1
	c-0.4-0.9-1.5-1.4-1.8-1.5c-0.4-0.2-1.1-0.4-1.7-0.4c-0.6,0-0.9,0.2-1.1,0.5c-0.1,0.2-0.2,0.4-0.1,0.6c0.1,0.4,0.6,0.8,1.4,1.3h0
	c-0.9-0.5-1.3-0.9-1.4-1.3c-0.1-0.2,0-0.4,0.1-0.6c0.2-0.3,0.6-0.5,1.1-0.5c0.5,0,1.1,0.1,1.7,0.4c0.2,0.1,1.4,0.6,1.8,1.4
	c0.1,0.3,0.1,0.6,0,0.9c-0.3,0.8-1,1.1-2.1,1.1c-1.3,0-3-0.5-4.3-0.9l0,0c-0.5-0.2-0.9-0.3-1.4-0.4c-0.2,0-0.4-0.1-0.6-0.2
	c-1-0.3-2.2-0.6-3.7-0.6c-1.5,0-3,0.3-4.6,1c-4,1.6-4.9,1.7-6.4,1.7L86.4,101.9L86.4,101.9z M86.7,102h-0.5v-0.4h0.5
	c1.5,0,2.4-0.1,6.4-1.7c1.7-0.7,3.2-1,4.7-1c1.5,0,2.8,0.3,3.8,0.6c0.2,0.1,0.4,0.1,0.6,0.2c0.4,0.1,0.9,0.3,1.4,0.4l0,0
	c1.3,0.4,3,0.9,4.2,0.9c1,0,1.7-0.3,2-1c0.1-0.3,0.1-0.6,0-0.8c-0.3-0.8-1.5-1.3-1.7-1.3c-0.5-0.2-1.2-0.3-1.6-0.3
	c-0.3,0-0.8,0.1-1,0.4c-0.1,0.1-0.1,0.3-0.1,0.4c0.1,0.4,0.6,0.7,1.4,1.2l0.1,0l-0.2,0.3l-0.1,0c-1-0.5-1.5-0.9-1.6-1.4
	c-0.1-0.2,0-0.5,0.1-0.7c0.2-0.4,0.7-0.5,1.3-0.5c0.6,0,1.3,0.2,1.8,0.4c0.2,0.1,1.5,0.6,1.9,1.5c0.2,0.4,0.2,0.7,0,1.1
	c-0.3,0.8-1.1,1.2-2.3,1.2c-1.3,0-3-0.5-4.3-0.9c-0.5-0.2-0.9-0.3-1.4-0.4c-0.2-0.1-0.4-0.1-0.6-0.2l0,0c-1-0.3-2.2-0.6-3.7-0.6
	c-1.5,0-3,0.3-4.6,1C89.2,102,88.3,102,86.7,102 M86.7,102h-0.4v-0.2h0.2c1.6,0,2.5,0,6.6-1.7c3.9-1.6,6.5-0.9,8.4-0.4
	c0.2,0.1,0.4,0.1,0.6,0.2c0.4,0.1,0.9,0.3,1.4,0.4c2.3,0.7,5.5,1.7,6.3-0.2c0.1-0.3,0.1-0.6,0-0.9c-0.3-0.8-1.5-1.3-1.7-1.4
	c-0.9-0.3-2.3-0.6-2.7,0.1c-0.1,0.2-0.1,0.3-0.1,0.5c0.1,0.4,0.6,0.8,1.5,1.2l-0.1,0.2c-0.9-0.5-1.4-0.9-1.6-1.3
	c-0.1-0.2,0-0.5,0.1-0.6c0.5-0.8,2.1-0.5,2.9-0.1c0.2,0.1,1.5,0.6,1.8,1.5c0.2,0.3,0.2,0.7,0,1c-0.8,2-4.1,1-6.5,0.2
	c-0.5-0.1-0.9-0.3-1.4-0.4c-0.2-0.1-0.4-0.1-0.6-0.2c-1.9-0.5-4.4-1.2-8.3,0.4C89.2,101.9,88.3,102,86.7,102 M67.3,98.1
	c0.3,1,0.6,2.1,0.9,2.4v0C67.9,100.1,67.4,98.5,67.3,98.1z M68.2,100.8L68.2,100.8c-0.4-0.3-0.9-2.2-1.1-2.7l0-0.1l0.3-0.1l0,0.1
	c0.3,1.1,0.7,2.3,0.9,2.5l0.1,0.1L68.2,100.8z M68.2,100.7c-0.4-0.3-0.9-2.4-1-2.6l0.2,0c0.2,0.9,0.7,2.3,0.9,2.5L68.2,100.7z
	 M66.4,101L66.4,101c0-0.2-0.2-0.6-0.4-1.2v0C66,100,66.3,100.7,66.4,101 M66.5,101.2l-0.3,0v-0.1c0-0.1-0.2-0.6-0.5-1.3l0-0.1
	l0.3-0.1l0,0.1C66.4,100.5,66.6,101,66.5,101.2L66.5,101.2z M66.5,101.1l-0.2,0c0-0.1-0.2-0.8-0.5-1.4l0.2-0.1
	C66.1,100.1,66.5,101,66.5,101.1 M73.9,103.9c0.1,0,0.2,0,0.3,0c1.5,0,3.4,0.5,5.1,1.2c2.7,1.1,4.7,1.2,6.6,1.2h0.2H86
	c-1.9,0-4-0.1-6.6-1.2c-1.7-0.7-3.7-1.2-5.1-1.2c-1.6-0.1-3.1,0.3-4,0.6c-0.4,0.1-1.9,0.6-3.1,0.9c-0.3,0.1-0.6,0.1-0.8,0.1
	c-0.7,0-1.2-0.3-1.8-1.3c-0.1-0.1-0.1-0.2-0.2-0.3l0-0.1c-0.7-1.2-1.9-3.1-1.7-4.3c-0.2,1.2,1,3.2,1.7,4.3l0,0.1
	c0.1,0.1,0.1,0.2,0.2,0.3c0.6,1,1.1,1.3,1.8,1.3c0.2,0,0.5,0,0.8-0.1c1.2-0.3,2.8-0.8,3.1-0.9C71.1,104.2,72.4,103.9,73.9,103.9
	 M86,106.5c-1.9,0-4-0.2-6.7-1.3c-1.7-0.7-3.6-1.2-5.1-1.2c-1.6-0.1-3,0.3-4,0.6c-0.3,0.1-1.9,0.6-3.1,0.9c-0.3,0.1-0.6,0.1-0.8,0.1
	c-0.8,0-1.3-0.4-1.9-1.4c-0.1-0.1-0.1-0.2-0.2-0.3l0-0.1c-0.8-1.2-2-3.3-1.7-4.5l0-0.1l0.4,0.1l0,0.1c-0.2,1.1,1,3.1,1.7,4.3l0,0.1
	c0.1,0.1,0.1,0.2,0.2,0.3c0.6,0.9,1,1.2,1.6,1.2c0.2,0,0.5,0,0.8-0.1c1.2-0.3,2.7-0.7,3.1-0.9c0.9-0.3,2.5-0.7,4.1-0.6
	c1.5,0,3.4,0.5,5.2,1.2c2.6,1.1,4.7,1.2,6.6,1.2h0.4l0,0.4H86 M86,106.4c-2.2,0-4.2-0.2-6.7-1.3c-1.7-0.7-3.6-1.2-5.1-1.2
	c-1.6,0-3.1,0.3-4,0.6c-0.4,0.1-1.9,0.6-3.1,0.9c-1.3,0.3-1.9,0-2.7-1.3c-0.1-0.1-0.1-0.2-0.2-0.3c-0.8-1.2-2-3.2-1.7-4.5l0.2,0
	c-0.3,1.2,1,3.2,1.7,4.3c0.1,0.1,0.2,0.2,0.2,0.3c0.7,1.2,1.3,1.5,2.5,1.2c1.2-0.3,2.7-0.7,3.1-0.9c1-0.3,2.5-0.6,4.1-0.6
	c1.5,0.1,3.4,0.5,5.2,1.2c2.6,1.1,4.6,1.3,6.9,1.2v0.2C86.2,106.4,86.1,106.4,86,106.4 M74.8,99.2c1.5,0,3,0.3,4.6,1
	c4,1.6,4.9,1.7,6.4,1.7l0.3,0h-0.3c-1.5,0-2.5-0.1-6.4-1.7C77.8,99.5,76.3,99.2,74.8,99.2c-1.5,0-2.7,0.3-3.7,0.6
	c-0.2,0.1-0.4,0.1-0.6,0.2c-0.4,0.1-0.9,0.2-1.4,0.4l0,0c-1.3,0.4-3,0.9-4.3,0.9c-1.1,0-1.8-0.4-2.1-1.1c-0.1-0.3-0.1-0.7,0-1
	c0.4-0.8,1.5-1.3,1.8-1.4c0.6-0.2,1.2-0.4,1.7-0.4c0.6,0,0.9,0.2,1.1,0.5c0.1,0.2,0.2,0.4,0.1,0.6c-0.1,0.4-0.6,0.8-1.4,1.3
	c0.9-0.5,1.3-0.9,1.4-1.3c0.1-0.2,0-0.4-0.1-0.6c-0.2-0.3-0.6-0.5-1.1-0.5c-0.6,0-1.3,0.2-1.7,0.4c-0.2,0.1-1.4,0.6-1.8,1.4
	c-0.1,0.3-0.1,0.7,0,1c0.3,0.8,1,1.1,2.1,1.1c1.3,0,3-0.5,4.3-0.9c0.5-0.1,0.9-0.3,1.4-0.4c0.2-0.1,0.4-0.1,0.6-0.2l0.1,0
	C72.1,99.5,73.3,99.2,74.8,99.2 M85.9,102c-1.6,0-2.5-0.1-6.5-1.7c-1.6-0.6-3.1-1-4.6-1c-1.5,0-2.7,0.3-3.7,0.6l0,0
	c-0.2,0.1-0.4,0.1-0.6,0.2c-0.4,0.1-0.9,0.2-1.4,0.4c-1.3,0.4-3,0.9-4.3,0.9c-1.2,0-2-0.4-2.3-1.2c-0.2-0.4-0.2-0.7,0-1.1
	c0.4-0.9,1.6-1.4,1.9-1.5c0.4-0.2,1.1-0.4,1.8-0.4c0.6,0,1.1,0.2,1.3,0.5c0.1,0.2,0.2,0.5,0.1,0.7c-0.1,0.5-0.6,0.9-1.6,1.4l-0.1,0
	l-0.2-0.3l0.1,0c0.8-0.4,1.3-0.8,1.4-1.2c0-0.1,0-0.3-0.1-0.4c-0.2-0.3-0.6-0.4-1-0.4c-0.5,0-1.1,0.1-1.6,0.3
	c-0.2,0.1-1.3,0.6-1.7,1.3c-0.1,0.3-0.1,0.6,0,0.8c0.3,0.7,0.9,1,2,1c1.3,0,2.9-0.5,4.2-0.9l0,0c0.5-0.2,0.9-0.3,1.4-0.4
	c0.2,0,0.4-0.1,0.6-0.2c1-0.3,2.3-0.6,3.8-0.6c1.5,0,3.1,0.3,4.7,1c4,1.6,4.9,1.7,6.4,1.7h0.5v0.4L85.9,102z M85.9,102
	c-1.5,0-2.5-0.1-6.5-1.7c-3.9-1.6-6.4-0.9-8.3-0.4c-0.2,0.1-0.4,0.1-0.6,0.2c-0.4,0.1-0.9,0.2-1.4,0.4c-2.4,0.7-5.7,1.8-6.5-0.2
	c-0.2-0.3-0.2-0.7,0-1c0.4-0.9,1.6-1.4,1.8-1.5c0.8-0.3,2.4-0.7,2.9,0.1c0.1,0.2,0.2,0.4,0.1,0.6c-0.1,0.4-0.6,0.9-1.6,1.3l-0.1-0.2
	c0.9-0.5,1.4-0.9,1.5-1.2c0-0.2,0-0.4-0.1-0.5c-0.4-0.7-1.9-0.4-2.7-0.1c-0.2,0.1-1.4,0.6-1.7,1.4c-0.1,0.3-0.1,0.6,0,0.9
	c0.8,1.9,4,0.9,6.3,0.2c0.5-0.1,0.9-0.3,1.4-0.4c0.2,0,0.4-0.1,0.6-0.2c1.9-0.5,4.5-1.2,8.4,0.4c4.2,1.7,5,1.7,6.6,1.7h0.2v0.2H85.9
	 M98.2,36.8l0-0.4l-5.3,0l4.9-2L97.6,34l-5.2,1l4.4-3l-0.2-0.4l-4.9,2.1l3.8-3.8l-0.3-0.3l-4.4,3l3-4.4L93.4,28l-3.8,3.8l2.1-4.9
	l-0.4-0.2l-3,4.4l1-5.2L89,25.7l-2,4.9l0-5.3l-0.4,0l-1,5.2l-1-5.2l-0.4,0l0,5.3l-2-4.9l-0.4,0.1l1,5.2l-3-4.4l-0.4,0.2l2.1,4.9
	L77.7,28l-0.3,0.3l3,4.4l-4.4-3L75.7,30l3.8,3.8l-4.9-2.1l-0.2,0.4l4.4,3l-5.2-1l-0.1,0.4l4.9,2l-5.3,0l0,0.4l5.2,1l-5.2,1l0,0.4
	l5.3,0l-4.9,2l0.1,0.4l5.2-1l-4.4,3l0.2,0.4l4.9-2l-3.8,3.8l0.3,0.3l4.4-3l-0.9,1.4c0.1,0,0.2-0.1,0.3-0.1c0.1-0.2,0.3-0.3,0.6-0.5
	l1.6-2.4l-4.4,3l3.8-3.7l-4.9,2l4.4-2.9l-5.2,1l4.9-2h-5.3l5.2-1l-5.2-1h5.3l-4.9-2l5.2,1l-4.4-2.9l4.9,2l-3.8-3.7l4.4,2.9v0
	l-2.9-4.4l3.7,3.7l-2-4.9l2.9,4.4l-1-5.2l2,4.9v-5.3l1,5.2l1-5.2l0,5.3l2-4.9l-1,5.2l2.9-4.4l-2,4.9l3.7-3.7l-3,4.4l4.4-3L89.9,35
	l4.9-2l-4.4,2.9l5.2-1l-4.9,2H96l-5.2,1l5.2,1h-5.3l4.9,2l-5.2-1l4.4,2.9l-4.9-2l3.7,3.7l-1.4-1l-3-2l1.2,1.7l0.1,0.2
	c0,0,0.2,0.1,0.5,0.3l0.7,0.6l-0.9-1.2l0.9,0.6l3.6,2.4l0.3-0.3L91.7,42l4.9,2l0.2-0.4l-4.4-3l5.2,1l0.1-0.4l-4.9-2l5.3,0l0-0.4
	l-5.2-1L98.2,36.8z M89.5,33.6h-7.8c0,0-0.9,8.8,3.9,9.7C90.4,42.3,89.5,33.6,89.5,33.6 M88.3,34.8c0,0.8,0,1.9-0.2,3.1
	c-0.4,2.4-1.2,3.7-2.5,4.1c-2.5-0.7-2.7-5.1-2.7-7.2H88.3 M84.9,38.3c0,0-0.1,0-0.1,0l-0.1,0c0,0,0,0,0,0c0,0,0,0,0,0c0,0,0,0,0,0
	c0,0,0,0,0-0.1c0,0,0-0.1,0-0.1c0,0,0,0,0-0.1c0,0,0,0,0.1-0.1c0,0,0,0,0,0l0.1,0l0.2,0.2C85.1,38.2,85,38.2,84.9,38.3
	C85,38.3,85,38.3,84.9,38.3 M84.2,38.2L84.2,38.2L84.2,38.2L84.2,38.2L84.2,38.2C84.3,38.2,84.2,38.2,84.2,38.2 M87.6,39.1L86.2,38
	l1.2,0.6l-1-0.8c0,0,0.5,0.2,1,0.5c-0.4-0.4-1-1-1.2-1.2c-0.2-0.2-1.1-0.8-1.3-1.1c-0.2-0.4-0.3-0.6-0.7-0.6c-0.3,0-0.6,0.3-0.6,0.3
	h-0.4l0.4,0.3c0,0-0.1,0.7,0.1,1c0.2,0.3,0.9,0.8,0.9,0.8l0.2,0.2l0,0c0,0,0,0-0.1,0c0,0,0,0-0.1,0.1c0,0-0.1,0-0.1,0
	c0,0-0.1,0-0.1,0h0c0,0,0,0-0.1,0h-0.1c0,0,0,0-0.1,0H84c0,0,0,0,0,0c0,0,0,0,0,0c0,0,0,0,0,0c0,0,0,0,0,0c0,0,0,0,0,0c0,0,0,0,0,0
	h0.1c0,0,0,0,0,0l0.1,0c0,0-0.1,0-0.1,0c0,0,0,0,0,0c0,0,0,0,0,0.1c0,0,0,0,0,0.1c0,0,0,0,0,0c0,0,0,0,0,0s0,0,0,0c0,0,0,0,0,0
	c0,0,0.1,0,0.1-0.1c0,0,0.1,0,0.1,0c0,0,0,0,0,0c0,0,0,0,0,0c0,0,0,0,0,0c0,0,0,0,0,0c0,0,0,0,0,0c0,0,0,0,0,0c0,0,0,0,0,0
	c0,0,0,0,0,0c0,0,0,0,0.1,0.1c0,0,0.1,0,0.1,0c0,0,0,0-0.1,0c0,0,0,0-0.1,0c0,0,0,0-0.1,0c0,0,0,0,0,0.1v0c0,0,0,0,0,0c0,0,0,0,0,0
	c0,0,0,0,0,0h0c0,0,0.1,0,0.1,0c0,0,0.1,0,0.1,0c0,0,0,0,0.1,0c0,0,0,0,0.1,0h0c0,0,0,0.1-0.1,0.1c0,0-0.1,0-0.1,0.1
	c0,0-0.1,0-0.1,0.1c0,0,0,0.1,0,0.1v0c0,0,0,0,0,0v0c0,0,0-0.1,0-0.1c0,0,0-0.1,0.1-0.1c0,0,0.1-0.1,0.1-0.1c0,0,0.1,0,0.1-0.1
	c0,0,0,0,0.1-0.1c0,0,0,0,0-0.1h0c0,0,0,0,0,0l0.1,0.1c0,0,0,0,0.1,0.1l0.1,0h0c0,0,0,0,0,0c0,0,0,0,0,0c0,0,0,0,0,0v0c0,0,0,0,0,0
	c0,0-0.1,0-0.1-0.1c0,0,0,0-0.1,0c0,0,0,0-0.1-0.1c0,0,0-0.1,0-0.1v0c0,0,0,0,0,0c0,0,0,0,0-0.1l0.7,0.3l1.3,1.4l-0.6-1.2L87.6,39.1
	z M92.1,51.3c-0.1-0.4-0.2-0.7-0.2-0.7s0,0.2-0.1,0.7c0,0.5-0.7,4.7,0,6.3c0.1,0.3,0.4,0.5,0.7,0.5c0,0-0.7-0.2-0.7-1
	c-0.1-0.8-0.1-1.7,0-2.3c0-0.8,0.1-1.5,0.1-1.7c0-0.4,0.2-1.3,0.2-1.3s0.7,1,0.5,0.8c-0.2-0.3,0.7,0.9,0.7,0.9S92.3,51.7,92.1,51.3
	 M91.4,46c-0.3,0-0.6-0.2-0.8-0.4c-0.3-0.3-0.4-0.5-0.4-1.1c-0.2,0.6,0,0.8,0.2,1.3c-0.3,0.1-0.4,0.1-0.9-0.1
	c-0.6-0.2-0.7-0.9-0.9-1.4c0,0-0.2-0.7,0.2-0.9c0.4-0.1,0.7-0.1,0.9-0.1c0.2,0,0.5,0,0.8,0.1h0c0.3,0.1,0.7,0.4,0.8,0.7
	c0.1,0.3,0.2,0.7,0.2,1.1c0,0.2,0.2,0.6,0.4,0.7C91.9,46.1,91.6,46.1,91.4,46 M85.7,45.7c-0.3,0-0.4,0-0.6-0.1
	c-0.2-0.1-0.6-0.2-0.7-1.3c-0.3,0.6,0,1.1,0.3,1.4c-0.7,0.1-1.1,0-1.5-0.5c-0.3-0.4-0.5-0.9-0.5-1.2c0-0.6,0.8-0.6,1.3-0.7
	c0.6,0,1,0,1.4,0.3c0.3,0.3,0.4,0.4,0.5,1c0,0.2,0.2,0.6,0.5,0.8C86.1,45.7,85.9,45.7,85.7,45.7 M79.9,46.5
	c-0.2-0.1-0.7-0.4-0.9-0.9c-0.1,0.6,0.7,1.1,0.7,1.1c-0.4,0.1-0.6,0.1-0.8,0.1c-0.5-0.1-0.8-0.6-0.8-1.1c0-0.8,0.6-1.1,0.9-1.1
	c0.3,0,0.5,0.1,0.7,0.2c0.6,0.4,0.4,1.4,1.3,1.6C80.7,46.6,80.2,46.7,79.9,46.5 M94.1,45.3c0,0-0.1-1.1-0.9-1.4
	c-0.7-0.3-1.2-0.3-1.4-0.3c-0.2,0-0.3,0.1-0.4,0.1c-0.2-0.2-0.7-0.4-0.7-0.4l-0.4-0.1c-0.6-0.1-0.9-0.1-1.1-0.1
	c-0.4,0.1-0.8,0.1-0.8,0.1c-0.8-0.4-1.9-0.3-2.8,0.2c0,0-0.5-0.3-1.5-0.3c-0.8,0-1.4,0.1-1.7,0.5c-0.2-0.1-0.4-0.2-0.7-0.2
	c-0.1,0-0.1,0-0.2,0c-0.5,0-1,0.2-1.4,0.5c-0.2,0.1-0.4,0.3-0.6,0.5c-0.1,0-0.1-0.1-0.2-0.1c-1.2-0.4-2.6,1.7-0.7,2.7
	c0.3,0.2,0.8,0,1.1-0.1c0,0,1.4-0.3,1.5-0.4c0.5-0.2,1.7-0.2,2-0.3c-0.1,0.2,2.9,0,3.5-0.1c0.5,0,7.2,0.4,7,0.4
	C93.9,46.4,94.3,46.3,94.1,45.3 M81.2,44.1C81.2,44.2,81.2,44.2,81.2,44.1C81.3,44.2,81.2,44.2,81.2,44.1L81.2,44.1z M83,44.4
	c-0.1,0-0.1,0-0.2-0.1C82.9,44.4,82.9,44.4,83,44.4 M80.8,44.6h0.8c-0.2-0.2-0.3-0.2-0.6-0.2C81,44.4,80.9,44.5,80.8,44.6
	 M90.2,43.3l-0.1-0.1v0L90.2,43.3z M222.5,267.9c-2,5-3.7,6.9-7.5,6.9c-1,0-2-0.1-2.9-0.4v-3.9c0.8,0.2,1.7,0.6,2.5,0.6
	c1.7,0,2.7-0.9,3.5-2.3l1.7-4.4l-10.2-25.6h4.8l7.5,21.1h0.1l7.2-21.1h4.5L222.5,267.9z M202.7,238.6h5.1v3.7h-5.1v16
	c0,2,0.5,2.3,3.2,2.3h1.9v3.7h-3.2c-4.4,0-6.1-0.9-6.1-5.6v-16.4h-4.4v-3.7h4.4v-7.7h4.2L202.7,238.6z M187.3,238.6h4.2v25.8h-4.2
	V238.6z M191.5,234h-4.2v-5.2h4.2V234z M171.2,238.6h4v5.4h0.1c2-4.1,4.9-6.2,9.5-6v4.5c-6.8,0-9.3,3.9-9.3,10.4v11.5h-4.2
	L171.2,238.6z M155,261.3c4.4,0,8-3.5,8-9.7c0-6.3-3.6-9.8-8-9.8c-4.4,0-8,3.5-8,9.8C147,257.8,150.5,261.3,155,261.3 M155,238.1
	c8.2,0,12.5,5.9,12.5,13.5c0,7.5-4.3,13.5-12.5,13.5c-8.2,0-12.5-5.9-12.5-13.5C142.5,244,146.8,238.1,155,238.1 M117.4,228.8h4.2
	v13.6h0.1c1.4-3.1,5-4.4,8.1-4.4c6.8,0,8.9,3.9,8.9,9.4v16.9h-4.2V247c0-3.1-2-5.2-5.2-5.2c-5.1,0-7.6,3.4-7.6,8.1v14.6h-4.2
	L117.4,228.8z M109.1,238.6h5.1v3.7h-5.1v16c0,2,0.5,2.3,3.2,2.3h1.9v3.7H111c-4.4,0-6.1-0.9-6.1-5.6v-16.4h-4.4v-3.7h4.4v-7.7h4.2
	L109.1,238.6z M97.9,264.4h-4v-4.1h-0.1c-1.8,3.2-4.7,4.7-8.4,4.7c-6.8,0-8.9-3.9-8.9-9.4v-17h4.2v17.5c0,3.1,2,5.2,5.2,5.2
	c5.1,0,7.6-3.4,7.6-8.1v-14.6h4.2L97.9,264.4z M52.6,249.7h12.1l-5.9-16.6h-0.1L52.6,249.7z M56.1,228.8h5.2l13.9,35.6H70l-3.9-10.7
	H51.1l-4,10.7h-4.9L56.1,228.8z M180.1,215.5c-1.9,5-3.7,6.9-7.5,6.9c-1,0-2-0.1-2.9-0.4V218c0.8,0.2,1.6,0.6,2.5,0.6
	c1.7,0,2.7-0.9,3.5-2.3l1.7-4.4l-10.2-25.6h4.8l7.5,21.1h0.1l7.2-21.1h4.5L180.1,215.5z M160.4,198.6c0-4.5-2-9.2-7.3-9.2
	c-5.4,0-7.6,4.4-7.6,9.4c0,4.6,1.7,9.8,7.3,9.8C158.3,208.6,160.4,203.5,160.4,198.6 M164.6,209.9c0,8.4-3.8,12.7-12,12.7
	c-4.8,0-10.4-1.9-10.7-7.6h4.2c0.2,3.1,3.9,4.2,6.7,4.2c5.5,0,7.7-4,7.7-9.8v-1.7h-0.1c-1.4,3.1-4.8,4.7-8,4.7
	c-7.7,0-11.5-6-11.5-13.1c0-6.1,3-13.6,11.9-13.6c3.2,0,6.1,1.4,7.7,4.3h0v-3.7h4L164.6,209.9z M126.9,186.3h4v5.4h0.1
	c2-4.1,4.9-6.2,9.5-6v4.5c-6.8,0-9.3,3.9-9.3,10.4V212h-4.2V186.3z M119,196.7c-0.2-4-3.2-7.3-7.4-7.3c-4.4,0-7.1,3.3-7.4,7.3H119z
	 M123.1,203.9c-1.1,5.7-5.2,8.8-11,8.8c-8.2,0-12.1-5.7-12.4-13.6c0-7.7,5.1-13.4,12.1-13.4c9.1,0,11.9,8.5,11.7,14.8h-19.3
	c-0.2,4.5,2.4,8.5,8,8.5c3.5,0,5.9-1.7,6.7-5H123.1z M74.7,186.3h4v4.1h0.1c1.8-3.2,4.7-4.7,8.4-4.7c6.8,0,8.9,3.9,8.9,9.4V212h-4.2
	v-17.5c0-3.1-2-5.2-5.2-5.2c-5.1,0-7.6,3.4-7.6,8.1V212h-4.2L74.7,186.3z M46.5,176.5H71v4H51.2v11.3h18.5v4H51.2v12.3h20v4H46.5
	L46.5,176.5z M266.6,142.2c-0.6-3.2-2.9-5.1-6.4-5.1c-6.1,0-8,4.8-8,10.1c0,4.7,2.1,9.4,7.5,9.4c4.1,0,6.5-2.4,7.1-6.3h4.3
	c-0.9,6.3-4.9,10-11.4,10c-7.9,0-12.1-5.5-12.1-13.2c0-7.7,4-13.8,12.2-13.8c5.8,0,10.5,2.7,11.1,8.9H266.6z M239.4,133.9h4.2v25.8
	h-4.2V133.9z M243.7,129.3h-4.2v-5.2h4.2V129.3z M198,133.9h4v3.8h0.1c1.9-2.9,4.8-4.4,8.3-4.4c3.2,0,6,1.2,7.1,4.4
	c1.7-2.7,4.8-4.4,8.1-4.4c5.1,0,8.6,2.1,8.6,7.5v18.9h-4.2v-16.9c0-3.2-0.9-5.7-5-5.7c-4.1,0-6.7,2.6-6.7,6.6v16.1h-4.2v-16.9
	c0-3.3-1-5.7-4.8-5.7c-5,0-6.9,4.6-6.9,6.6v16.1H198L198,133.9z M181.7,156.5c4.4,0,8-3.5,8-9.7c0-6.3-3.6-9.8-8-9.8
	c-4.4,0-8,3.5-8,9.8C173.6,153,177.2,156.5,181.7,156.5 M181.7,133.3c8.2,0,12.5,5.9,12.5,13.5c0,7.5-4.3,13.5-12.5,13.5
	c-8.2,0-12.5-5.9-12.5-13.5C169.2,139.2,173.5,133.3,181.7,133.3 M162.8,133.9h5.1v3.7h-5.1v16c0,1.9,0.6,2.3,3.2,2.3h1.9v3.7h-3.2
	c-4.4,0-6.1-0.9-6.1-5.6v-16.4h-4.4v-3.7h4.4v-7.7h4.2V133.9z M133.4,145h12.1l-5.9-16.6h-0.1L133.4,145z M137,124.1h5.2l13.9,35.6
	h-5.2L147,149H132l-4,10.7h-4.9L137,124.1z M81.2,124.1h4.7v17.7l18-17.7h6.1l-15,14.4l15.6,21.2h-6l-12.9-18l-5.9,5.5v12.5h-4.7
	L81.2,124.1z M74.9,146.8c0,9-5.1,13.7-14,13.7c-9.2,0-14.6-4.2-14.6-13.7v-22.7H51v22.7c0,6.3,3.6,9.7,9.9,9.7c6,0,9.3-3.4,9.3-9.7
	v-22.7h4.7V146.8z"/>
</svg>
